<?xml version="1.0" standalone="no"?>
<!DOCTYPE svg PUBLIC "-//W3C//DTD SVG 1.1//EN" "http://www.w3.org/Graphics/SVG/1.1/DTD/svg11.dtd" >
<svg xmlns="http://www.w3.org/2000/svg" xmlns:xlink="http://www.w3.org/1999/xlink" version="1.1">
<metadata></metadata>
<defs>
<font id="amplesoftmedium" horiz-adv-x="1302" >
<font-face units-per-em="2048" ascent="1573" descent="-475" />
<missing-glyph horiz-adv-x="503" />
<glyph horiz-adv-x="0" />
<glyph horiz-adv-x="682" />
<glyph unicode=" "  horiz-adv-x="503" />
<glyph unicode="&#x09;" horiz-adv-x="503" />
<glyph unicode="&#xa0;" horiz-adv-x="503" />
<glyph unicode="!" horiz-adv-x="565" d="M150 115q0 55 39 94t94 39t94 -39t39 -94q0 -57 -38.5 -96t-94.5 -39t-94.5 39t-38.5 96zM182 883v356q0 55 18 73.5t74 18.5h21q55 0 73.5 -18.5t18.5 -73.5v-356q0 -263 -27 -445q-5 -33 -18.5 -45t-48.5 -12h-17q-33 0 -47 11.5t-20 45.5q-27 159 -27 445z" />
<glyph unicode="&#x22;" horiz-adv-x="645" d="M80 1130v273q0 47 15.5 62.5t62.5 15.5h20q47 0 62.5 -15.5t15.5 -62.5v-273q0 -45 -15.5 -61t-62.5 -16h-20q-47 0 -62.5 16t-15.5 61zM389 1130v273q0 46 16.5 62t61.5 16h20q45 0 61.5 -16t16.5 -62v-273q0 -44 -17 -60.5t-61 -16.5h-20q-44 0 -61 16.5t-17 60.5z" />
<glyph unicode="#" horiz-adv-x="1380" d="M90 375v22q0 40 14.5 54t53.5 14h161l101 401h-172q-39 0 -53.5 14t-14.5 54v22q0 38 15 53t53 15h211l57 231q11 45 30 60.5t66 15.5h23q47 0 58.5 -15.5t0.5 -60.5l-59 -231h287l59 231q11 45 30 60.5t66 15.5h21q47 0 58.5 -15.5t0.5 -60.5l-59 -231h125 q38 0 52.5 -15t14.5 -53v-22q0 -41 -14 -54.5t-53 -13.5h-162l-100 -401h172q39 0 53 -13.5t14 -54.5v-22q0 -38 -14.5 -53t-52.5 -15h-213l-58 -231q-11 -45 -30 -60.5t-66 -15.5h-21q-47 0 -58.5 15.5t-0.5 60.5l57 231h-286l-58 -231q-11 -45 -30 -60.5t-66 -15.5h-22 q-47 0 -59 15.5t-1 60.5l58 231h-121q-38 0 -53 15t-15 53zM496 465h286l101 401h-287z" />
<glyph unicode="$" horiz-adv-x="1030" d="M84 145v33q0 55 18 70.5t68 -0.5q149 -47 305 -47q132 0 190 30t58 101q0 54 -34 92.5t-134 101.5l-256 164q-199 129 -199 330q0 265 318 303v104q0 46 16.5 62t61.5 16h24q45 0 61.5 -16t16.5 -62v-98q91 -3 201 -39q57 -21 71.5 -37.5t14.5 -64.5v-35 q0 -55 -16.5 -69.5t-67.5 1.5q-115 41 -266 41q-113 0 -162 -26.5t-49 -87.5q0 -48 25.5 -80t94.5 -76l265 -172q129 -84 183 -160t54 -194q0 -283 -348 -324v-102q0 -46 -16.5 -62t-61.5 -16h-24q-45 0 -61.5 16t-16.5 62v94q-133 6 -248 43q-55 19 -70.5 37t-15.5 67z" />
<glyph unicode="%" horiz-adv-x="1695" d="M86 1014q0 338 324 338q323 0 323 -338q0 -340 -323 -340q-324 0 -324 340zM266 1014q0 -93 31 -135q33 -39 113 -39q81 0 110 39q33 39 33 135q0 94 -33 133q-35 41 -110 41q-76 0 -111 -41q-33 -39 -33 -133zM422 16.5q-10 16.5 16 67.5l604 1163q26 51 53.5 67.5 t84.5 16.5h30q57 0 67.5 -16.5t-15.5 -67.5l-609 -1163q-26 -51 -53 -67.5t-84 -16.5h-27q-57 0 -67 16.5zM961 317q0 340 323 340q326 0 326 -340q0 -337 -326 -337q-323 0 -323 337zM1141 317q0 -95 30 -135q33 -39 113 -39t113 39t33 135q0 95 -33 134q-35 41 -113 41 t-113 -41q-30 -40 -30 -134z" />
<glyph unicode="&#x26;" horiz-adv-x="1271" d="M109 371q0 243 208 319q-176 74 -176 281q0 379 451 379q18 0 100 -4q53 -4 70.5 -23.5t17.5 -71.5v-32q0 -51 -17.5 -67t-66.5 -9q-52 8 -110 8q-123 0 -177.5 -46t-54.5 -147q0 -99 51 -142.5t177 -43.5h262v88q0 58 18.5 77t77.5 19h25q59 0 77.5 -19t18.5 -77v-88 h100q46 0 61 -15.5t15 -60.5v-24q0 -45 -15 -60.5t-61 -15.5h-100v-197q0 -422 -469 -422q-483 0 -483 394zM326 383q0 -113 62.5 -159t195.5 -46t196.5 50t63.5 180v188h-258q-137 0 -198.5 -49.5t-61.5 -163.5z" />
<glyph unicode="'" horiz-adv-x="335" d="M80 1130v273q0 47 15.5 62.5t62.5 15.5h20q47 0 62.5 -15.5t15.5 -62.5v-273q0 -45 -15.5 -61t-62.5 -16h-20q-47 0 -62.5 16t-15.5 61z" />
<glyph unicode="(" horiz-adv-x="737" d="M104 512q0 581 361 954q33 32 55 31.5t58 -33.5l18 -18q35 -32 36.5 -53.5t-30.5 -53.5q-301 -310 -301 -827q0 -515 305 -829q31 -31 29 -52t-37 -53l-20 -18q-35 -31 -58.5 -31t-54.5 29q-361 373 -361 954z" />
<glyph unicode=")" horiz-adv-x="737" d="M104 -369q-2 21 29 52q305 314 305 829q0 517 -301 827q-32 32 -30.5 53.5t36.5 53.5l19 18q36 33 57.5 33.5t54.5 -31.5q361 -373 361 -954t-361 -954q-31 -29 -54 -29t-58 31l-21 18q-35 32 -37 53z" />
<glyph unicode="*" horiz-adv-x="954" d="M106 1176.5q-10 17.5 3 58.5l8 25q13 41 31 49t59 -6l209 -80l-10 223q-2 43 12 57.5t57 14.5h25q43 0 57 -14.5t12 -57.5l-10 -225l209 79q38 17 59 7.5t31 -50.5l6 -22q12 -41 3 -58.5t-50 -29.5l-213 -64l135 -172q29 -32 26 -53.5t-38 -44.5l-18 -12 q-35 -25 -54.5 -22t-44.5 38l-125 184l-123 -182q-23 -35 -42 -38t-54 22l-18 12q-35 25 -38 43t23 53l138 174l-213 62q-42 12 -52 29.5z" />
<glyph unicode="+" horiz-adv-x="1146" d="M104 645v23q0 45 15.5 61t62.5 16h295v289q0 51 16.5 67.5t67.5 16.5h25q51 0 67.5 -16.5t16.5 -67.5v-289h295q46 0 61.5 -16t15.5 -61v-23q0 -47 -15 -62.5t-62 -15.5h-295v-286q0 -51 -16.5 -67.5t-67.5 -16.5h-25q-51 0 -67.5 16.5t-16.5 67.5v286h-295 q-47 0 -62.5 15.5t-15.5 62.5z" />
<glyph unicode="," horiz-adv-x="438" d="M84 -242q0 82 6 164q21 314 143 314q43 0 68 -29.5t25 -79.5q0 -62 -58 -184q-59 -131 -104 -203q-19 -36 -47 -27l-6 2q-27 9 -27 43z" />
<glyph unicode="-" horiz-adv-x="819" d="M53 645v23q0 44 17 60.5t61 16.5h557q44 0 61 -16.5t17 -60.5v-23q0 -46 -16.5 -62t-61.5 -16h-557q-45 0 -61.5 16t-16.5 62z" />
<glyph unicode="." horiz-adv-x="454" d="M95 112.5q0 56.5 38 94.5t94.5 38t94.5 -38t38 -94.5t-38 -94.5t-94.5 -38t-94.5 38t-38 94.5z" />
<glyph unicode="/" horiz-adv-x="681" d="M22.5 -45q-11.5 16 2.5 63l454 1420q18 48 39.5 64t71.5 16h28q51 0 63 -16.5t-5 -63.5l-457 -1420q-18 -48 -39 -63.5t-71 -15.5h-25q-50 0 -61.5 16z" />
<glyph unicode="0" horiz-adv-x="1193" d="M102 502v321q0 266 115.5 396.5t378.5 130.5q265 0 380.5 -130t115.5 -397v-321q0 -267 -115.5 -397t-380.5 -130q-263 0 -378.5 130.5t-115.5 396.5zM319 502q0 -174 62.5 -249t214.5 -75q155 0 215.5 73.5t60.5 250.5v321q0 176 -60.5 250t-215.5 74q-152 0 -214.5 -75 t-62.5 -249v-321z" />
<glyph unicode="1" horiz-adv-x="757" d="M21.5 1042.5q-0.5 24.5 31.5 65.5l99 117q107 125 237 125q115 0 170 -64.5t55 -208.5v-983q0 -57 -18.5 -75.5t-75.5 -18.5h-26q-57 0 -76 18.5t-19 75.5v912q0 98 -6 120.5t-35 22.5q-26 0 -82 -68l-83 -108q-32 -41 -55.5 -42.5t-59.5 34.5l-19 18q-37 35 -37.5 59.5z " />
<glyph unicode="2" horiz-adv-x="1058" d="M90 213q0 87 36.5 154.5t123.5 134.5l305 239q108 84 150 136q36 48 36 112q0 85 -59.5 122.5t-192.5 37.5q-129 0 -260 -35q-51 -13 -69.5 2.5t-18.5 71.5v35q0 51 16 68.5t72 31.5q102 27 254 27q238 0 356.5 -84t118.5 -269q0 -111 -53 -194q-52 -82 -184 -187 l-346 -272q-76 -58 -76 -94q0 -27 20 -37t80 -10h467q56 0 74 -18.5t18 -73.5v-19q0 -56 -18 -74t-74 -18h-481q-159 0 -227 50t-68 163z" />
<glyph unicode="3" horiz-adv-x="1040" d="M92 113v32q0 54 19.5 70.5t68.5 3.5q139 -39 281 -39q149 0 206.5 47.5t57.5 159.5q0 104 -61.5 155.5t-208.5 51.5h-15q-46 0 -62 16.5t-16 61.5v24q0 45 16 61.5t62 16.5h15q140 0 195 42.5t55 141.5q0 106 -53 148.5t-191 42.5q-115 0 -256 -33q-51 -12 -69.5 4 t-18.5 72v33q0 54 17 72.5t73 29.5q128 23 254 23q461 0 461 -379q0 -107 -41.5 -174.5t-130.5 -110.5q192 -70 192 -299q0 -410 -481 -410q-157 0 -281 31q-54 14 -71 34t-17 71z" />
<glyph unicode="4" horiz-adv-x="1067" d="M168.5 363q-64.5 89 1.5 286l197 588q19 57 44 75.5t85 18.5h30q60 0 73.5 -18.5t-5.5 -73.5l-221 -657q-19 -57 0 -82t80 -25h340v434q0 57 18.5 76t75.5 19h26q57 0 76 -19t19 -76v-815q0 -57 -19 -75.5t-76 -18.5h-26q-57 0 -75.5 18.5t-18.5 75.5v180h-353 q-207 0 -271.5 89z" />
<glyph unicode="5" horiz-adv-x="1114" d="M143 115v30q0 56 19.5 72.5t68.5 -0.5q112 -37 283 -37q151 0 217 49.5t66 157.5q0 127 -69 172t-251 45h-88q-122 0 -177.5 56t-55.5 178v260q0 123 55 178t178 55h455q56 0 74 -18.5t18 -73.5v-18q0 -56 -18.5 -74.5t-73.5 -18.5h-393q-80 0 -80 -77v-164q0 -80 80 -80 h73q253 0 370.5 -102t117.5 -318q0 -209 -123 -308t-371 -99q-173 0 -287 30q-54 14 -71 34t-17 71z" />
<glyph unicode="6" horiz-adv-x="1122" d="M102 500v331q0 276 123.5 397.5t407.5 121.5q147 0 250 -33q88 -24 88 -107v-28q0 -99 -88 -72q-121 39 -256 39q-180 0 -244 -64t-64 -245v-62q119 43 277 43q230 0 336 -93t106 -306q0 -229 -113.5 -335.5t-349.5 -106.5q-247 0 -360 129t-113 391zM319 518 q0 -176 52 -258q53 -80 219 -80q132 0 182.5 52t50.5 178q0 127 -55.5 175t-194.5 48q-148 0 -254 -47v-68z" />
<glyph unicode="7" horiz-adv-x="1017" d="M70 1221v18q0 55 18 73.5t74 18.5h475q152 0 222.5 -55t70.5 -174q0 -125 -94 -309l-353 -699q-26 -57 -56.5 -75.5t-96.5 -18.5h-33q-63 0 -74.5 18.5t17.5 75.5l450 881q29 63 29 94q0 59 -101 59h-456q-55 0 -73.5 18.5t-18.5 74.5z" />
<glyph unicode="8" horiz-adv-x="1155" d="M98 373q0 124 46.5 197.5t152.5 117.5q-92 47 -129 111.5t-37 175.5q0 375 447 375q228 0 337 -92.5t109 -282.5q0 -111 -36.5 -175.5t-127.5 -111.5q104 -44 149.5 -117.5t45.5 -197.5q0 -189 -119 -292.5t-361 -103.5q-477 0 -477 396zM315 387q0 -111 60.5 -160 t202.5 -49q141 0 200.5 49t59.5 160q0 107 -61 157t-199 50t-200.5 -50t-62.5 -157zM344 958q0 -104 52.5 -147t181.5 -43q128 0 180.5 43t52.5 147q0 103 -52 148t-184 45q-130 0 -180.5 -45t-50.5 -148z" />
<glyph unicode="9" horiz-adv-x="1122" d="M84 907q0 230 113.5 336.5t349.5 106.5q246 0 359.5 -129t113.5 -392v-333q0 -276 -123.5 -397.5t-407.5 -121.5q-146 0 -264 37q-55 18 -71.5 37.5t-16.5 69.5v29q0 56 19.5 72t68.5 -1q118 -41 271 -41q178 0 243 62q64 64 64 245v64q-109 -41 -273 -41q-232 0 -339 92 t-107 305zM299 920q0 -131 55 -177q59 -47 201 -47t248 47v68q0 178 -53 258q-52 82 -218 82q-131 0 -182 -52t-51 -179z" />
<glyph unicode=":" horiz-adv-x="454" d="M94 903q0 57 38.5 96t94.5 39q55 0 94 -39.5t39 -95.5q0 -54 -39 -93.5t-94 -39.5t-94 39t-39 94zM95 112.5q0 56.5 38 94.5t94.5 38t94.5 -38t38 -94.5t-38 -94.5t-94.5 -38t-94.5 38t-38 94.5z" />
<glyph unicode=";" horiz-adv-x="448" d="M90 903q0 57 39 96t96 39q55 0 94 -39.5t39 -95.5q0 -54 -39 -93.5t-94 -39.5q-57 0 -96 38.5t-39 94.5zM104 -242q0 68 7 164q21 314 143 314q43 0 67.5 -29.5t24.5 -79.5q0 -64 -57 -184q-56 -125 -105 -203q-19 -36 -47 -27l-6 2q-27 9 -27 43z" />
<glyph unicode="&#x3c;" horiz-adv-x="940" d="M59 664q0 71 31 119t107 85l567 287q47 25 63.5 15t16.5 -64v-23q0 -54 -16 -80t-64 -51l-488 -239q-36 -20 -36 -49q0 -36 36 -50l488 -239q48 -25 64 -51t16 -80v-25q0 -54 -16.5 -64t-63.5 15l-567 287q-76 37 -107 86t-31 121z" />
<glyph unicode="=" horiz-adv-x="1105" d="M104 428v21q0 47 15.5 62t62.5 15h742q47 0 62 -15t15 -62v-21q0 -47 -15 -62.5t-62 -15.5h-742q-47 0 -62.5 15.5t-15.5 62.5zM104 887v20q0 47 15.5 62.5t62.5 15.5h742q47 0 62 -15.5t15 -62.5v-20q0 -47 -15 -62.5t-62 -15.5h-742q-47 0 -62.5 15.5t-15.5 62.5z" />
<glyph unicode="&#x3e;" horiz-adv-x="940" d="M96 219v25q0 54 16 80t64 51l488 239q36 14 36 50q0 29 -36 49l-488 239q-48 25 -64 51t-16 80v23q0 54 16.5 64t63.5 -15l567 -287q76 -37 107 -85t31 -119q0 -72 -31 -121t-107 -86l-567 -287q-47 -25 -63.5 -15t-16.5 64z" />
<glyph unicode="?" horiz-adv-x="870" d="M92 1200v37q0 51 17 69t71 29q83 15 152 15q229 0 335.5 -90.5t106.5 -298.5q0 -154 -67 -236q-61 -78 -193 -152q-109 -62 -143 -131q-19 -39 -35.5 -49t-63.5 -10h-22q-49 0 -68.5 15.5t-17.5 52.5q9 141 225 280q64 40 92 62q33 26 55.5 70.5t22.5 97.5 q0 107 -50 148.5t-175 41.5q-74 0 -156 -18q-51 -12 -68.5 2t-17.5 65zM127 115q0 55 38.5 94t94.5 39t94.5 -39t38.5 -94q0 -57 -38.5 -96t-94.5 -39t-94.5 39t-38.5 96z" />
<glyph unicode="@" horiz-adv-x="1972" d="M117 436v146q0 389 235 596q236 211 633 211q360 0 608 -195q125 -95 195 -253.5t70 -358.5v-136q0 -60 -8.5 -112t-31.5 -105t-59.5 -91t-97 -61.5t-139.5 -23.5q-94 0 -165.5 48.5t-101.5 142.5q-68 -191 -313 -191q-186 0 -277.5 102.5t-91.5 288.5v138q0 385 412 385 q193 0 300.5 -98.5t107.5 -286.5v-146q0 -207 125 -207q147 0 147 213v142q0 309 -195 469q-194 159 -485 159q-322 0 -499 -162t-177 -468v-146q0 -320 180 -475q184 -158 461 -158q210 0 346 95q43 26 57.5 23t45.5 -42l14 -18q31 -36 29.5 -57.5t-39.5 -45.5 q-210 -131 -473 -131q-352 0 -582 217q-231 214 -231 592zM772 442q0 -113 46.5 -163t160.5 -50q217 0 217 213v136q0 108 -47.5 159t-165.5 51q-117 0 -164 -50.5t-47 -159.5v-136z" />
<glyph unicode="A" horiz-adv-x="1296" d="M80 18q-7 9 -7 26q0 18 7 46l252 916q56 200 117 270q65 74 213 74t210 -74q62 -70 117 -270l252 -916q7 -27 7 -46q0 -18 -6 -26q-14 -18 -71 -18h-28q-56 0 -78.5 17.5t-40.5 72.5l-76 279h-575l-76 -279q-18 -55 -40.5 -72.5t-78.5 -17.5h-28q-56 0 -70 18zM424 563 h473l-121 447q-25 93 -45.5 120t-68.5 27q-49 0 -70.5 -27.5t-46.5 -119.5z" />
<glyph unicode="B" horiz-adv-x="1232" d="M150 233v865q0 123 55 178t178 55h270q439 0 439 -354q0 -114 -44 -180.5t-147 -102.5v-8q127 -40 179.5 -113.5t52.5 -195.5q0 -377 -480 -377h-270q-123 0 -178 55t-55 178zM365 281q0 -78 79 -78h197q154 0 213 41.5t59 146.5q0 101 -53.5 149t-179.5 48h-315v-307z M365 774h288q117 0 168 45t51 135q0 89 -50.5 131.5t-168.5 42.5h-209q-79 0 -79 -77v-277z" />
<glyph unicode="C" horiz-adv-x="1083" d="M109 489v328q0 533 550 533q155 0 259 -43q57 -24 71.5 -41.5t14.5 -65.5v-31q0 -57 -16 -71q-7 -6 -22 -6q-18 0 -46 10q-118 47 -265 47q-170 0 -247.5 -80t-77.5 -252v-328q0 -155 77 -232t257 -77q163 0 264 43q34 14 58 -3t24 -64v-31q0 -45 -18.5 -67t-65.5 -40 q-109 -41 -267 -41q-279 0 -414.5 124t-135.5 388z" />
<glyph unicode="D" horiz-adv-x="1263" d="M150 233v865q0 123 55 178t178 55h170q325 0 463 -114q139 -115 139 -410v-283q0 -279 -142.5 -401.5t-459.5 -122.5h-170q-123 0 -178 55t-55 178zM365 281q0 -78 79 -78h109q223 0 301 69q80 71 80 252v283q0 179 -80 250t-301 71h-109q-79 0 -79 -77v-770z" />
<glyph unicode="E" horiz-adv-x="1150" d="M150 233v865q0 123 55 178t178 55h580q55 0 73.5 -18.5t18.5 -73.5v-18q0 -56 -18.5 -74.5t-73.5 -18.5h-519q-79 0 -79 -77v-263h516q55 0 73.5 -18t18.5 -74v-18q0 -56 -18.5 -74t-73.5 -18h-516v-305q0 -78 79 -78h519q55 0 73.5 -18.5t18.5 -73.5v-19 q0 -56 -18.5 -74t-73.5 -18h-580q-123 0 -178 55t-55 178z" />
<glyph unicode="F" horiz-adv-x="1101" d="M150 94v1004q0 123 55 178t178 55h551q56 0 74 -18.5t18 -73.5v-18q0 -56 -18.5 -74.5t-73.5 -18.5h-490q-79 0 -79 -77v-277h487q56 0 74 -18t18 -74v-18q0 -56 -18.5 -74.5t-73.5 -18.5h-487v-477q0 -57 -19 -75.5t-76 -18.5h-26q-57 0 -75.5 18.5t-18.5 75.5z" />
<glyph unicode="G" horiz-adv-x="1206" d="M109 498v327q0 253 148.5 389t449.5 136q159 0 292 -50q54 -20 67 -36.5t13 -67.5v-31q0 -55 -17 -69q-7 -7 -22 -7q-17 0 -43 9q-134 51 -288 51q-207 0 -293 -77.5t-86 -260.5v-328q0 -155 87.5 -229t297.5 -74q78 0 112 6q72 9 72 95v372q0 55 18.5 73.5t73.5 18.5h19 q56 0 74 -18.5t18 -73.5v-374q0 -138 -46 -202.5t-165 -84.5q-85 -15 -174 -15q-322 0 -465 122t-143 399z" />
<glyph unicode="H" horiz-adv-x="1286" d="M150 94v1143q0 57 18.5 75.5t75.5 18.5h26q57 0 76 -18.5t19 -75.5v-434h557v434q0 57 18.5 75.5t75.5 18.5h26q57 0 76 -18.5t19 -75.5v-1143q0 -57 -19 -75.5t-76 -18.5h-26q-57 0 -75.5 18.5t-18.5 75.5v506h-557v-506q0 -57 -19 -75.5t-76 -18.5h-26 q-57 0 -75.5 18.5t-18.5 75.5z" />
<glyph unicode="I" horiz-adv-x="542" d="M164 94v1143q0 57 18.5 75.5t75.5 18.5h27q57 0 75.5 -18.5t18.5 -75.5v-1143q0 -57 -18.5 -75.5t-75.5 -18.5h-27q-57 0 -75.5 18.5t-18.5 75.5z" />
<glyph unicode="J" horiz-adv-x="542" d="M0 -186q170 153 170 491v932q0 57 18.5 75.5t75.5 18.5h27q57 0 75.5 -18.5t18.5 -75.5v-918q0 -262 -72 -415q-71 -155 -198 -264q-23 -19 -44 -19q-35 0 -67 47l-14 21q-26 41 -26 65q0 25 36 60z" />
<glyph unicode="K" horiz-adv-x="1198" d="M150 94v1143q0 57 18.5 75.5t75.5 18.5h26q57 0 76 -18.5t19 -75.5v-1143q0 -57 -19 -75.5t-76 -18.5h-26q-57 0 -75.5 18.5t-18.5 75.5zM442 698q0 96 97 213l278 334q43 51 79 68.5t101 17.5h37q68 0 76 -16q1 -2 1 -6q0 -18 -36 -64l-340 -414q-57 -70 -71.5 -92 t-14.5 -45q0 -18 14 -39.5t72 -95.5l381 -473q34 -45 34 -64q0 -4 -1 -6q-8 -16 -74 -16h-37q-67 0 -102.5 17.5t-77.5 68.5l-319 395q-97 121 -97 217z" />
<glyph unicode="L" horiz-adv-x="1021" d="M150 233v1004q0 57 18.5 75.5t75.5 18.5h26q57 0 76 -18.5t19 -75.5v-956q0 -78 79 -78h437q55 0 73.5 -18.5t18.5 -73.5v-19q0 -56 -18.5 -74t-73.5 -18h-498q-123 0 -178 55t-55 178z" />
<glyph unicode="M" horiz-adv-x="1683" d="M80 94l70 948q12 159 78.5 230t201.5 71q127 0 191 -70t84 -231l96 -790q6 -48 14 -61t31 -13q21 0 29 13.5t14 60.5l96 790q20 160 85 230.5t190 70.5q137 0 202.5 -70t77.5 -231l72 -948q1 -11 1 -20q-1 -42 -15 -56q-18 -18 -74 -18h-31q-57 0 -76 18.5t-24 75.5 l-66 946q-4 65 -20 88t-52 23q-32 0 -48 -23.5t-23 -87.5l-111 -823q-18 -124 -65 -170.5t-162 -46.5q-105 0 -158 48.5t-70 168.5l-112 823q-7 64 -24 87.5t-50 23.5t-49.5 -24.5t-20.5 -86.5l-63 -946q-1 -56 -21.5 -75t-78.5 -19h-31q-56 0 -74 18q-14 15 -15 56 q0 9 1 20z" />
<glyph unicode="N" horiz-adv-x="1351" d="M150 94v987q0 147 56 209t185 62q108 0 161.5 -46.5t88.5 -170.5l258 -916q10 -34 21 -45.5t32 -11.5q41 0 41 67v1008q0 57 18.5 75.5t75.5 18.5h21q57 0 75.5 -18.5t18.5 -75.5v-987q0 -148 -54 -209t-179 -61q-112 0 -167.5 49t-92.5 178l-254 895q-10 41 -21.5 54 t-34.5 13q-41 0 -41 -71v-1004q0 -57 -18.5 -75.5t-75.5 -18.5h-20q-57 0 -75.5 18.5t-18.5 75.5z" />
<glyph unicode="O" d="M109 516v293q0 265 118 401q122 140 424 140t424 -140q119 -137 119 -401v-293q0 -264 -121 -403q-120 -138 -422 -138q-304 0 -424 138q-118 136 -118 403zM326 516q0 -178 65 -258t260 -80t260 80q66 81 66 258v293q0 180 -66 258q-65 80 -260 80t-260 -80 q-65 -77 -65 -258v-293z" />
<glyph unicode="P" horiz-adv-x="1222" d="M150 94v1004q0 123 55 178t178 55h317q233 0 341 -109.5t108 -324.5q0 -434 -449 -434h-335v-369q0 -57 -19 -75.5t-76 -18.5h-26q-57 0 -75.5 18.5t-18.5 75.5zM365 666h335q129 0 181.5 53t52.5 178q0 123 -52.5 177t-181.5 54h-256q-79 0 -79 -77v-385z" />
<glyph unicode="Q" d="M109 516v293q0 265 118 401q122 140 424 140t424 -140q119 -137 119 -401v-293q0 -220 -76 -346.5t-254 -169.5l201 -195q45 -43 45 -61q0 -2 -1 -4q-7 -16 -79 -16h-53q-64 0 -100 15t-78 62l-160 176q-98 3 -170 23q-195 36 -277.5 161.5t-82.5 354.5zM326 516 q0 -178 65 -258t260 -80t260 80q66 81 66 258v293q0 180 -66 258q-65 80 -260 80t-260 -80q-65 -77 -65 -258v-293z" />
<glyph unicode="R" horiz-adv-x="1265" d="M150 94v1004q0 123 55 178t178 55h324q232 0 337 -102.5t105 -308.5q0 -168 -68 -265t-219 -129l283 -436q27 -42 27 -62q0 -6 -2 -10q-10 -18 -74 -18h-35q-63 0 -96 18t-68 72l-268 420h-264v-416q0 -57 -19 -75.5t-76 -18.5h-26q-57 0 -75.5 18.5t-18.5 75.5zM365 713 h342q125 0 176 49.5t51 157.5q0 111 -50.5 159.5t-176.5 48.5h-263q-79 0 -79 -77v-338z" />
<glyph unicode="S" horiz-adv-x="1075" d="M88 127v33q0 54 18 70q9 7 25 8q17 0 41 -9q154 -49 332 -49q141 0 202.5 32.5t61.5 111.5q0 61 -37 98q-34 37 -139 100l-283 170q-205 123 -205 334q0 165 111 244.5t342 79.5q160 0 285 -41q55 -18 71.5 -36.5t16.5 -66.5v-35q0 -54 -16 -67q-8 -6 -24 -6t-42 6 q-128 43 -291 43q-124 0 -177.5 -29t-53.5 -98q0 -50 27.5 -83t101.5 -77l290 -178q87 -52 137.5 -99t78.5 -111t28 -148q0 -175 -119.5 -261t-369.5 -86q-184 0 -330 48q-53 18 -67.5 35t-14.5 67z" />
<glyph unicode="T" horiz-adv-x="1155" d="M57 1221v18q0 55 18.5 73.5t74.5 18.5h854q56 0 74 -18.5t18 -73.5v-18q0 -56 -18.5 -74.5t-73.5 -18.5h-318v-1034q0 -57 -18.5 -75.5t-75.5 -18.5h-29q-57 0 -75.5 18.5t-18.5 75.5v1034h-319q-56 0 -74.5 19t-18.5 74z" />
<glyph unicode="U" horiz-adv-x="1294" d="M129 444v793q0 57 18.5 75.5t75.5 18.5h27q57 0 75.5 -18.5t18.5 -75.5v-793q0 -139 75 -201.5t228 -62.5t228 62.5t75 201.5v793q0 57 18.5 75.5t75.5 18.5h29q57 0 75.5 -18.5t18.5 -75.5v-793q0 -236 -134.5 -351.5t-385.5 -115.5q-518 0 -518 467z" />
<glyph unicode="V" horiz-adv-x="1263" d="M84 1239q-7 28 -7 46q-1 19 7 28q14 18 72 18h34q57 0 80.5 -18.5t36.5 -73.5l221 -917q24 -90 46 -119t71 -29t71 29t46 119l221 917q13 55 36.5 73.5t80.5 18.5h35q57 0 71 -18q7 -9 7 -27.5t-7 -46.5l-227 -913q-49 -196 -115 -271q-64 -73 -219 -73q-157 0 -221 73 q-63 71 -113 271z" />
<glyph unicode="W" horiz-adv-x="1902" d="M86 1237q-3 19 -3 34q1 29 11 41q16 18 72 19h29q57 0 77.5 -18.5t28.5 -75.5l131 -938q10 -74 28.5 -99.5t57.5 -25.5q37 0 55.5 26t30.5 99l119 780q24 145 72.5 198.5t162.5 53.5q115 0 164 -52.5t72 -199.5l121 -780q12 -73 30.5 -99t55.5 -26q39 0 57.5 26t28.5 99 l131 938q8 57 28.5 75.5t77.5 18.5h29q57 -1 73 -19q10 -12 10 -41q0 -15 -3 -34l-133 -938q-24 -174 -90 -246q-65 -71 -209 -71q-140 0 -199 71q-57 68 -84 246l-110 764q-8 54 -16.5 69t-33.5 15q-23 0 -32 -16t-17 -68l-108 -764q-24 -173 -84 -246q-59 -71 -199 -71 q-146 0 -211 71q-64 70 -88 246z" />
<glyph unicode="X" horiz-adv-x="1275" d="M97 18q-3 5 -3 13q0 21 21 65l225 457q31 63 54.5 94t64.5 55q-51 20 -117 152l-186 381q-20 43 -20 64q0 9 4 14q12 18 75 18h27q65 0 93.5 -19t55.5 -77l139 -307q35 -78 58 -101.5t61 -23.5t60 23.5t57 101.5l139 307q27 58 56 77t94 19h28q65 0 77 -18q3 -5 4 -14 q0 -21 -21 -64l-189 -381q-18 -41 -34 -68q-12 -23 -36 -48.5t-48 -35.5q42 -25 67 -57t53 -92l228 -457q21 -43 21 -64q1 -8 -3 -14q-12 -18 -78 -18h-28q-64 0 -93.5 18.5t-58.5 77.5l-178 381q-44 90 -59 105q-19 22 -58 22t-61 -22q-15 -18 -58 -105l-178 -381 q-29 -59 -58 -77.5t-93 -18.5h-27q-66 0 -77 18z" />
<glyph unicode="Y" horiz-adv-x="1294" d="M71 1312q11 19 74 19h29q66 0 97 -18.5t57 -75.5l192 -379q46 -87 72 -121q24 -24 65 -24q43 0 64 24q26 34 72 121l192 379q29 57 59.5 75.5t96.5 18.5h28q63 0 75 -19q3 -5 3 -13q0 -21 -22 -62l-277 -510q-62 -111 -90 -139q-36 -36 -92 -56v-438q0 -57 -18.5 -75.5 t-75.5 -18.5h-29q-57 0 -75.5 18.5t-18.5 75.5v438q-61 21 -96 56q-31 31 -88 139l-275 510q-22 42 -22 63q0 8 3 12z" />
<glyph unicode="Z" horiz-adv-x="1136" d="M57 213q0 88 31 150t115 129l610 503q51 39 51 80q0 53 -84 53h-575q-55 0 -73.5 18.5t-18.5 74.5v18q0 55 18.5 73.5t73.5 18.5h588q150 0 216 -55t66 -172q0 -83 -31.5 -144.5t-113.5 -128.5l-604 -499q-62 -50 -62 -88q0 -41 76 -41h647q55 0 73.5 -18.5t18.5 -73.5 v-19q0 -56 -18.5 -74t-73.5 -18h-643q-158 0 -222.5 52t-64.5 161z" />
<glyph unicode="[" horiz-adv-x="690" d="M158 -279v1582q0 115 50 165t165 50h159q44 0 59 -15t15 -59v-23q0 -44 -15 -58.5t-59 -14.5h-114q-68 0 -68 -68v-1536q0 -68 68 -68h114q44 0 59 -14.5t15 -58.5v-23q0 -44 -15 -59t-59 -15h-159q-115 0 -165 50t-50 165z" />
<glyph unicode="\" horiz-adv-x="681" d="M21.5 1501.5q11.5 16.5 62.5 16.5h29q50 0 70 -15.5t38 -64.5l455 -1420q17 -47 5 -63t-63 -16h-24q-50 0 -72 15.5t-39 63.5l-456 1420q-17 47 -5.5 63.5z" />
<glyph unicode="]" horiz-adv-x="690" d="M84 -397q0 44 15 58.5t59 14.5h114q68 0 68 68v1536q0 68 -68 68h-114q-44 0 -59 14.5t-15 58.5v23q0 44 15 59t59 15h159q113 0 164 -50t51 -165v-1582q0 -115 -51 -165t-164 -50h-159q-44 0 -59 15t-15 59v23z" />
<glyph unicode="^" horiz-adv-x="1064" d="M162 759q-10 16 10 60l203 479q32 77 69 106.5t99 29.5t99 -29.5t69 -106.5l204 -479q20 -44 10 -60t-59 -16h-28q-49 0 -71.5 15.5t-39.5 60.5l-152 406q-12 28 -22.5 37t-20.5 0t-22 -37l-152 -406q-18 -45 -39.5 -60.5t-70.5 -15.5h-27q-49 0 -59 16z" />
<glyph unicode="_" horiz-adv-x="1028" d="M-4 -106q0 43 14.5 57t57.5 14h893q43 0 57 -14t14 -57v-19q0 -43 -14 -57.5t-57 -14.5h-893q-43 0 -57.5 14.5t-14.5 57.5v19z" />
<glyph unicode="`" horiz-adv-x="575" d="M142.5 1800.5q7.5 14.5 58.5 14.5h51q51 0 76 -16t45 -60l63 -133q20 -41 11 -55.5t-54 -14.5h-22q-46 0 -70 13.5t-49 52.5l-90 141q-27 43 -19.5 57.5z" />
<glyph unicode="a" horiz-adv-x="1003" d="M61 293q0 161 105 235t313 74h226v100q0 88 -57.5 122t-184.5 34q-124 0 -215 -18q-45 -8 -60.5 5t-15.5 60v29q0 44 15.5 62t58.5 26q101 16 205 16q230 0 346 -79t116 -257v-397q0 -170 -104.5 -249t-331.5 -79q-416 0 -416 316zM272 297q0 -78 51 -109.5t150 -31.5 q123 0 177.5 33.5t54.5 125.5v127h-226q-107 0 -157 -34t-50 -111z" />
<glyph unicode="b" horiz-adv-x="1142" d="M117 416v925q0 56 18.5 74.5t73.5 18.5h24q55 0 74 -19t19 -74v-436q83 133 301 133q426 0 426 -446v-176q0 -222 -116.5 -330.5t-352.5 -108.5q-223 0 -345 111t-122 328zM326 420q0 -132 56 -188t204 -56t202 55.5t54 188.5v176q0 133 -55.5 189.5t-200.5 56.5 q-146 0 -203 -57t-57 -189v-176z" />
<glyph unicode="c" horiz-adv-x="864" d="M90 408v200q0 204 121 317t352 113q81 0 160 -20q51 -12 66.5 -32t15.5 -71v-26q0 -54 -18 -68q-9 -7 -26 -7t-42 7q-62 21 -152 21q-147 0 -206.5 -54t-59.5 -182v-192q0 -132 63.5 -185t217.5 -53q52 0 157 19q21 4 36 4q21 0 31 -8q17 -14 17 -66v-25q0 -50 -17 -70 t-69 -32q-85 -21 -166 -21q-245 0 -363 107t-118 324z" />
<glyph unicode="d" horiz-adv-x="1130" d="M90 416v176q0 446 428 446q216 0 299 -133v436q0 56 18.5 74.5t73.5 18.5h25q55 0 73.5 -18.5t18.5 -74.5v-925q0 -217 -121.5 -328t-345.5 -111q-469 0 -469 439zM301 420q0 -133 54 -188.5t202 -55.5t204 56t56 188v176q0 132 -57 189t-203 57q-145 0 -200.5 -56.5 t-55.5 -189.5v-176z" />
<glyph unicode="e" horiz-adv-x="1069" d="M90 416v178q0 444 455 444q214 0 324 -107.5t110 -316.5q0 -28 -4 -90q-6 -57 -27 -75.5t-78 -18.5h-569v-45q0 -112 68.5 -160.5t224.5 -48.5q131 0 266 33q22 5 37 5q19 0 29 -8q18 -15 18 -69v-26q0 -51 -15 -69.5t-69 -31.5q-118 -33 -266 -33q-260 0 -382 104.5 t-122 334.5zM301 602h479v51q0 203 -241 203q-238 0 -238 -203v-51z" />
<glyph unicode="f" horiz-adv-x="802" d="M29 891v20q0 43 14 59.5t55 24.5l109 21v119q0 188 93.5 271t274.5 83q74 0 132 -10q54 -11 71 -29.5t17 -69.5v-24q0 -52 -19 -68q-8 -6 -27.5 -7t-41.5 1t-56.5 5t-60.5 3q-174 0 -174 -139v-135h272q54 0 70 -16t16 -70v-25q0 -54 -16 -70t-70 -16h-272v-727 q0 -56 -18 -74t-74 -18h-25q-55 0 -73.5 18t-18.5 74v727h-107q-43 0 -57 14.5t-14 57.5z" />
<glyph unicode="g" horiz-adv-x="1054" d="M63 -168q0 142 109 207q-78 47 -78 143q0 136 162 176q-166 79 -166 299v19q0 171 118 266.5t329 95.5q112 0 194 -32l117 100q34 31 58 31q1 0 1 -1q24 0 56 -32l18 -19q34 -34 34 -56t-32 -54l-84 -90q78 -78 78 -209v-19q0 -368 -440 -368q-144 0 -191 -13 q-43 -12 -43 -53q0 -35 45 -47q47 -12 189 -12q262 0 366 -66q101 -64 101 -227q0 -175 -103 -246t-364 -71q-272 0 -373 67t-101 211zM274 -139q0 -78 55 -103.5t208 -25.5q147 0 201.5 25.5t54.5 107.5q0 75 -51.5 97t-204.5 22q-127 0 -187 8q-76 -34 -76 -131zM301 657 q0 -97 53 -141.5t183 -44.5q127 0 178 44.5t51 141.5v19q0 90 -53 135t-176 45q-125 0 -180.5 -45.5t-55.5 -134.5v-19z" />
<glyph unicode="h" horiz-adv-x="1132" d="M131 92v1249q0 56 18.5 74.5t73.5 18.5h27q55 0 73.5 -18.5t18.5 -74.5v-430q95 127 317 127q172 0 267.5 -87.5t95.5 -266.5v-592q0 -56 -18 -74t-74 -18h-27q-55 0 -73.5 18t-18.5 74v559q0 100 -51 145.5t-166 45.5q-128 0 -190 -60.5t-62 -197.5v-492q0 -56 -18 -74 t-74 -18h-27q-55 0 -73.5 18t-18.5 74z" />
<glyph unicode="i" horiz-adv-x="477" d="M109 1328.5q0 53.5 38 90.5q38 38 92 38t91 -38q38 -37 38 -90.5t-38 -91.5q-37 -37 -91 -37t-92 37q-38 38 -38 91.5zM133 92v832q0 56 18.5 74t73.5 18h27q56 0 74 -18t18 -74v-832q0 -56 -18 -74t-74 -18h-27q-55 0 -73.5 18t-18.5 74z" />
<glyph unicode="j" horiz-adv-x="466" d="M-37 -242q170 150 170 486v680q0 56 18.5 74t73.5 18h25q56 0 74 -18t18 -74v-666q0 -269 -74 -420q-71 -151 -196 -252q-31 -24 -50 -17t-49 50l-16 25q-26 42 -26 63q0 22 32 51zM108 1328.5q0 53.5 37 90.5q38 38 92 38t91 -38q38 -37 38 -90.5t-38 -91.5 q-37 -37 -91 -37t-92 37q-37 38 -37 91.5z" />
<glyph unicode="k" horiz-adv-x="1067" d="M131 92v1249q0 56 18.5 74.5t73.5 18.5h25q55 0 73.5 -18.5t18.5 -74.5v-1249q0 -56 -18 -74t-74 -18h-25q-55 0 -73.5 18t-18.5 74zM410 543q0 50 16.5 85t65.5 89l188 213q44 51 82.5 68.5t107.5 17.5h35q69 0 76 -16q1 -2 1 -5q0 -18 -38 -65l-285 -320 q-41 -41 -41 -73q0 -30 39 -72l328 -379q38 -47 38 -65q0 -3 -1 -5q-7 -16 -76 -16h-35q-69 0 -107.5 17.5t-82.5 68.5l-229 268q-82 94 -82 189z" />
<glyph unicode="l" horiz-adv-x="520" d="M113 287v1054q0 56 18.5 74.5t73.5 18.5h26q55 0 74 -19t19 -74v-1013q0 -80 22.5 -113t73.5 -33t64.5 -14t13.5 -68v-20q0 -50 -16 -66.5t-68 -27.5q-8 -2 -29 -2q-127 0 -199.5 76t-72.5 227z" />
<glyph unicode="m" horiz-adv-x="1665" d="M111 92v549q0 397 415 397q226 0 308 -149q82 149 307 149q213 0 313 -99t100 -298v-549q0 -56 -18 -74t-74 -18h-26q-56 0 -74.5 18.5t-18.5 73.5v549q0 108 -43.5 154.5t-158.5 46.5q-116 0 -161.5 -47t-45.5 -154v-549q0 -56 -18 -74t-74 -18h-21q-55 0 -73.5 18 t-18.5 74v549q0 108 -44 154.5t-159 46.5t-159.5 -46.5t-44.5 -154.5v-549q0 -55 -18.5 -73.5t-74.5 -18.5h-26q-55 0 -73.5 18t-18.5 74z" />
<glyph unicode="n" horiz-adv-x="1112" d="M111 92v549q0 397 446 397q230 0 337 -98t107 -299v-549q0 -56 -18.5 -74t-73.5 -18h-26q-55 0 -73.5 18t-18.5 74v549q0 108 -50.5 154.5t-183.5 46.5t-184 -46.5t-51 -154.5v-549q0 -55 -18.5 -73.5t-74.5 -18.5h-26q-55 0 -73.5 18t-18.5 74z" />
<glyph unicode="o" horiz-adv-x="1118" d="M90 420v176q0 217 117.5 329.5t353.5 112.5q242 0 354.5 -109t112.5 -333v-176q0 -216 -117.5 -329.5t-349.5 -113.5q-243 0 -357 109.5t-114 333.5zM301 420q0 -132 56 -188t204 -56q146 0 201 55.5t55 188.5v176q0 133 -55.5 189.5t-200.5 56.5q-146 0 -203 -57 t-57 -189v-176z" />
<glyph unicode="p" horiz-adv-x="1142" d="M117 -317v919q0 217 121 326.5t346 109.5q238 0 353.5 -107t115.5 -329v-178q0 -447 -426 -447q-217 0 -301 134v-428q0 -55 -19 -74t-74 -19h-24q-55 0 -73.5 18.5t-18.5 74.5zM326 420q0 -132 56 -188t204 -56q146 0 201 55.5t55 188.5v176q0 134 -54 190t-202 56 q-146 0 -203 -57t-57 -189v-176z" />
<glyph unicode="q" horiz-adv-x="1142" d="M90 424v178q0 222 116.5 329t352.5 107q225 0 346 -109.5t121 -326.5v-919q0 -56 -18.5 -74.5t-73.5 -18.5h-25q-55 0 -73.5 18.5t-18.5 74.5v428q-84 -134 -299 -134q-428 0 -428 447zM301 420q0 -133 55 -188.5t201 -55.5q148 0 204 56t56 188v176q0 132 -57 189 t-203 57q-148 0 -202 -56t-54 -190v-176z" />
<glyph unicode="r" horiz-adv-x="663" d="M111 92v584q0 362 387 362q31 0 41 -2q52 -6 69 -24.5t17 -71.5v-29q0 -51 -16 -65q-11 -9 -38 -8q-14 0 -32 2q-10 2 -41 2q-100 0 -138 -41.5t-38 -138.5v-570q0 -55 -18.5 -73.5t-74.5 -18.5h-26q-55 0 -73.5 18t-18.5 74z" />
<glyph unicode="s" horiz-adv-x="948" d="M82 113v26q0 54 16 69q9 8 29 8q15 0 37 -5q144 -39 299 -39q105 0 147.5 19.5t42.5 68.5q0 38 -26.5 63t-104.5 60l-221 98q-108 46 -155.5 108t-47.5 171q0 143 94 210.5t297 67.5q127 0 238 -30q55 -18 70.5 -35.5t15.5 -67.5v-24q1 -55 -17 -69q-9 -8 -28 -7 q-16 0 -39 6q-112 33 -244 33q-98 0 -139 -19.5t-41 -64.5q0 -36 20.5 -58t75.5 -47l238 -102q117 -49 168 -113t51 -176q0 -148 -99 -217.5t-315 -69.5q-149 0 -280 35q-52 14 -67 32t-15 69z" />
<glyph unicode="t" horiz-adv-x="866" d="M29 891v20q0 43 14 59.5t55 24.5l109 21l24 192q6 44 23 59t61 15h27q44 0 59 -15t15 -59v-192h286q52 0 69 -16.5t17 -69.5v-25q0 -53 -17 -69.5t-69 -16.5h-286v-465q0 -178 159 -178q88 0 166 19q21 4 37 4q20 0 30 -8q16 -14 17 -68v-25q0 -51 -16.5 -71.5 t-67.5 -30.5q-88 -16 -166 -16q-368 0 -368 376v463h-107q-43 0 -57 14.5t-14 57.5z" />
<glyph unicode="u" horiz-adv-x="1099" d="M104 377v547q0 55 18.5 73.5t74.5 18.5h26q55 0 73.5 -18t18.5 -74v-547q0 -108 51.5 -154.5t184.5 -46.5t183 46.5t50 154.5v547q0 55 18.5 73.5t74.5 18.5h26q55 0 73.5 -18t18.5 -74v-547q0 -201 -107 -300.5t-337 -99.5q-447 0 -447 400z" />
<glyph unicode="v" horiz-adv-x="1093" d="M86 926q-7 27 -7 45t7 27q14 18 70 18h30q56 0 78.5 -18t34.5 -72l160 -666q13 -58 35.5 -78t66.5 -20q46 0 68 19.5t35 78.5l159 666q12 54 34.5 72t78.5 18h31q55 0 69 -18q7 -9 7 -27t-7 -45l-164 -676q-38 -153 -96 -211q-59 -59 -215 -59q-158 0 -215 57 q-58 58 -96 213z" />
<glyph unicode="w" horiz-adv-x="1693" d="M84 924q-3 19 -3 34q1 28 11 40q16 18 70 18h31q55 0 75.5 -18t28.5 -74l96 -664q7 -58 25.5 -79t56.5 -21q37 0 56 22t26 78l80 555q18 110 65.5 155.5t151.5 45.5t153 -43.5t66 -157.5l80 -555q7 -58 25.5 -79t56.5 -21q37 0 56 22t26 78l96 664q7 55 28 73.5t77 18.5 h30q54 0 70 -18q10 -12 11 -40q0 -15 -3 -34l-100 -674q-24 -147 -87 -210t-204 -63q-127 0 -184 63.5t-78 209.5l-68 500q-8 54 -17 70t-34 16q-23 0 -32.5 -16t-16.5 -70l-70 -500q-21 -147 -77.5 -210t-182.5 -63q-144 0 -207 63t-84 210z" />
<glyph unicode="x" horiz-adv-x="1138" d="M82 18q-3 5 -2 12q0 20 24 58l179 297q50 83 72 111.5t51 44.5q-30 17 -52.5 45.5t-70.5 109.5l-138 232q-24 38 -24 58q1 8 3 12q10 18 71 18h26q62 0 92.5 -18t59.5 -72l121 -215q30 -50 45 -64t41 -14t40.5 13.5t43.5 64.5l120 215q29 54 59.5 72t92.5 18h27 q61 0 71 -18q3 -5 3 -12q0 -20 -23 -58l-137 -232q-47 -79 -70.5 -108.5t-54.5 -46.5q29 -15 53 -45q20 -29 24 -35l48 -76l176 -297q24 -39 24 -59q0 -7 -2 -11q-10 -18 -71 -18h-29q-62 0 -92.5 18t-61.5 72l-157 279q-29 53 -43 66.5t-41 13.5q-26 0 -41.5 -14.5 t-44.5 -65.5l-158 -279q-31 -54 -61.5 -72t-92.5 -18h-28q-62 0 -72 18z" />
<glyph unicode="y" horiz-adv-x="1093" d="M86 924q-7 28 -7 46q0 19 7 28q15 18 72 18h26q57 0 80.5 -18.5t36.5 -73.5l162 -660q13 -60 36 -80t74 -20q39 0 61.5 21.5t35.5 78.5l153 660q12 55 35 73.5t80 18.5h27q57 0 71 -18q7 -9 7 -27.5t-7 -46.5l-221 -924q-51 -213 -156.5 -322.5t-281.5 -128.5 q-39 -5 -60.5 12.5t-31.5 63.5l-6 27q-10 42 2.5 59t54.5 23q103 13 165.5 77t98.5 187q-28 -14 -94 -14q-110 0 -160 58.5t-88 203.5z" />
<glyph unicode="z" horiz-adv-x="987" d="M70 209q0 152 155 246l451 276q49 34 49 60q0 34 -66 34h-450q-49 0 -65.5 16.5t-16.5 65.5v27q0 50 16.5 66t65.5 16h471q130 0 184 -47.5t54 -163.5q0 -83 -32 -135.5t-126 -110.5l-455 -276q-43 -27 -43 -56q0 -37 66 -37h508q50 0 66 -16t16 -65v-27q0 -50 -16 -66 t-66 -16h-531q-235 0 -235 209z" />
<glyph unicode="{" horiz-adv-x="804" d="M57 518v25q0 42 11 57.5t41 15.5h8q170 0 170 299v236q0 179 87.5 276t246.5 97h26q44 0 59 -15t15 -59v-23q0 -44 -15 -58.5t-59 -14.5h-8q-82 0 -121 -56t-39 -174v-241q0 -270 -164 -353q164 -77 164 -352v-278q0 -118 39 -174t121 -56h8q44 0 59 -14.5t15 -58.5v-23 q0 -44 -15 -59t-59 -15h-26q-156 0 -245 97.5t-89 275.5v272q0 299 -170 299h-8q-29 0 -40.5 16t-11.5 58z" />
<glyph unicode="|" horiz-adv-x="509" d="M158 -410v1844q0 51 16.5 67.5t67.5 16.5h24q51 0 67.5 -16.5t16.5 -67.5v-1844q0 -51 -16.5 -67.5t-67.5 -16.5h-24q-51 0 -67.5 16.5t-16.5 67.5z" />
<glyph unicode="}" horiz-adv-x="804" d="M82 -403q0 44 15 58.5t59 14.5h8q82 0 121 56t39 174v278q0 276 163 352q-163 82 -163 353v241q0 118 -39 174t-121 56h-8q-44 0 -59 14.5t-15 58.5v23q0 44 15 59t59 15h26q159 0 246.5 -97t87.5 -276v-236q0 -299 170 -299h8q29 0 40 -15t11 -58v-25q0 -43 -11 -58.5 t-40 -15.5h-8q-170 0 -170 -299v-272q0 -178 -89 -275.5t-245 -97.5h-26q-44 0 -59 15t-15 59v23z" />
<glyph unicode="~" horiz-adv-x="1142" d="M86 467q11 136 83.5 212.5t195.5 76.5q70 0 135 -30t104 -71q100 -100 178 -100q102 0 117 129q1 36 17 47.5t59 11.5h18q42 0 56.5 -11.5t13.5 -43.5q-12 -138 -81 -213.5t-189 -75.5q-53 -2 -106 18.5t-95 50.5t-80 60.5t-75 51t-68 18.5q-102 0 -117 -127 q-4 -37 -18.5 -48t-57.5 -11h-20q-45 0 -59.5 11.5t-10.5 43.5z" />
<glyph unicode="&#xa1;" horiz-adv-x="565" d="M150 889q0 57 38.5 96t94.5 39t94.5 -39t38.5 -96q0 -55 -39 -94t-94 -39t-94 39t-39 94zM178 121q0 263 27 444q5 33 18.5 45.5t48.5 12.5h17q33 0 47 -11.5t20 -46.5q27 -159 27 -444v-357q0 -56 -18.5 -74t-73.5 -18h-21q-56 0 -74 18t-18 74v357z" />
<glyph unicode="&#xa2;" horiz-adv-x="874" d="M90 559v195q0 181 92 291.5t273 134.5v98q0 43 14 57.5t57 14.5h25q43 0 57.5 -14.5t14.5 -57.5v-96l77 -13q54 -12 73.5 -35.5t19.5 -78.5v-15q0 -56 -17 -69t-71 0q-73 18 -144 18q-142 0 -201 -54.5t-59 -184.5v-185q0 -132 63 -186.5t207 -54.5q62 0 150 16 q56 11 73 -2t17 -68v-12q0 -56 -18 -78.5t-72 -34.5q-75 -14 -98 -16v-94q0 -43 -14.5 -57.5t-57.5 -14.5h-25q-43 0 -57 14.5t-14 57.5v98q-365 46 -365 426z" />
<glyph unicode="&#xa3;" horiz-adv-x="1054" d="M37 651v27q0 38 12.5 50.5t50.5 12.5h107v144q0 235 105.5 350t324.5 115q98 0 176 -19q56 -11 73 -31t17 -75v-15q0 -56 -18 -71.5t-72 -5.5q-75 16 -168 16q-128 0 -174.5 -63t-46.5 -224v-121h274q38 0 51 -12.5t13 -50.5v-27q0 -38 -13 -50.5t-51 -12.5h-274v-307 q0 -41 18.5 -59.5t61.5 -18.5h395q55 0 73.5 -18.5t18.5 -73.5v-19q0 -56 -18.5 -74t-73.5 -18h-459q-123 0 -178 55t-55 178v355h-107q-38 0 -50.5 12.5t-12.5 50.5z" />
<glyph unicode="&#xa4;" horiz-adv-x="1357" d="M144 243.5q0 25.5 38 63.5l211 207q-37 61 -37 141q0 79 37 140l-211 211q-38 38 -38 64t38 63l21 18q42 37 65 37.5t62 -37.5l223 -227q56 26 127 26q72 0 125 -26l221 225q38 38 63 38t66 -38l16 -16q39 -39 40 -63.5t-37 -63.5l-207 -207q37 -64 37 -144 q0 -81 -39 -143l209 -203q38 -39 37.5 -62t-37.5 -65l-21 -22q-37 -38 -63 -38t-64 38l-223 227q-121 -52 -248 0l-225 -227q-38 -38 -63.5 -38t-63.5 38l-21 20q-38 38 -38 63.5zM526 655.5q0 -65.5 43 -108.5q44 -43 110 -43t109 43q44 43 44 108.5t-44 108.5 q-43 44 -109 44t-110 -44q-43 -43 -43 -108.5z" />
<glyph unicode="&#xa5;" horiz-adv-x="1269" d="M92 1312.5q12 18.5 74 18.5h37q62 0 90 -18.5t53 -75.5l164 -379q41 -96 65 -123q24 -24 72 -24q50 0 74 24q24 27 65 123l162 379q25 57 53.5 75.5t90.5 18.5h36q62 0 74 -18.5t-14 -73.5l-211 -446q-44 -93 -78 -136q-24 -34 -82 -57h223q38 0 51 -12.5t13 -50.5v-21 q0 -38 -13 -50.5t-51 -12.5h-282v-140h282q38 0 51 -12.5t13 -50.5v-21q0 -38 -13 -50.5t-51 -12.5h-282v-72q0 -57 -18.5 -75.5t-75.5 -18.5h-29q-57 0 -75.5 18.5t-18.5 75.5v72h-287q-38 0 -51 12.5t-13 50.5v21q0 38 13 50.5t51 12.5h287v140h-287q-38 0 -51 12.5 t-13 50.5v21q0 38 13 50.5t51 12.5h223q-56 23 -84 57q-35 48 -76 136l-211 446q-26 55 -14 73.5z" />
<glyph unicode="&#xa6;" horiz-adv-x="505" d="M158 272q0 51 16.5 67.5t67.5 16.5h24q51 0 67.5 -16.5t16.5 -67.5v-682q0 -51 -16.5 -67.5t-67.5 -16.5h-24q-51 0 -67.5 16.5t-16.5 67.5v682zM158 795v639q0 51 16.5 67.5t67.5 16.5h24q51 0 67.5 -16.5t16.5 -67.5v-639q0 -51 -16.5 -67.5t-67.5 -16.5h-24 q-51 0 -67.5 16.5t-16.5 67.5z" />
<glyph unicode="&#xa7;" horiz-adv-x="1095" d="M111 582q0 198 159 266q-159 120 -159 293q0 160 106.5 238.5t327.5 78.5q145 0 270 -41q55 -19 69.5 -36.5t14.5 -67.5v-35q0 -55 -16.5 -68.5t-67.5 2.5q-121 41 -268 41q-118 0 -166.5 -26.5t-48.5 -93.5q0 -49 27 -81t104 -77l278 -166q133 -78 190.5 -157t57.5 -199 q0 -204 -170 -275q89 -69 129.5 -137.5t40.5 -161.5q0 -336 -483 -336q-176 0 -301 45q-51 18 -66.5 36.5t-15.5 66.5v33q0 53 18.5 68t63.5 1q136 -47 305 -47q136 0 196 32t60 105q0 53 -36 92t-142 103l-271 166q-206 126 -206 338zM326 600q0 -61 29.5 -104t103.5 -90 l205 -127q110 27 110 153q0 113 -182 221l-162 95q-55 -10 -79.5 -45t-24.5 -103z" />
<glyph unicode="&#xa8;" horiz-adv-x="788" d="M96 1651q0 47 34 81.5t81 34.5q49 0 83 -34t34 -82t-34 -81.5t-83 -33.5q-47 0 -81 34t-34 81zM461 1651q0 47 35 82t82 35t79 -35q35 -35 35 -82t-35 -82q-32 -32 -79 -32t-82 32q-35 35 -35 82z" />
<glyph unicode="&#xa9;" horiz-adv-x="1722" d="M127 721q0 304 213 520q215 215 520 215t520 -215t215 -520t-215 -520q-216 -213 -520 -213q-303 0 -518 215t-215 518zM254 721q0 -250 178 -428t428 -178q252 0 430 178t178 428q0 252 -178 430q-177 180 -430 180q-251 0 -428 -180q-178 -178 -178 -430zM530 629v190 q0 159 98.5 241.5t280.5 82.5q69 0 123 -13q41 -11 56.5 -30t15.5 -62v-18q0 -40 -16.5 -50t-57.5 1q-56 12 -115 12q-110 0 -158 -41.5t-48 -132.5v-180q0 -87 53 -127.5t164 -40.5q44 0 123 12q43 6 57 -5.5t14 -53.5v-17q0 -40 -17 -57.5t-61 -28.5q-68 -12 -120 -12 q-198 0 -295 80t-97 250z" />
<glyph unicode="&#xab;" horiz-adv-x="1062" d="M59 512q0 58 60 127l188 229q33 39 61 52.5t81 13.5h24q53 0 58.5 -12.5t-27.5 -53.5l-246 -301q-29 -32 -29 -55q0 -18 29 -55l246 -301q33 -41 27.5 -53.5t-58.5 -12.5h-24q-53 0 -81 13.5t-61 52.5l-188 229q-60 69 -60 127zM473 512q0 56 59 127l191 229 q33 39 60.5 52.5t80.5 13.5h23q51 0 58.5 -15t-27.5 -53l-244 -299q-29 -31 -29 -55t29 -55l244 -299q35 -38 27.5 -53t-58.5 -15h-23q-53 0 -80.5 13.5t-60.5 52.5l-191 229q-59 74 -59 127z" />
<glyph unicode="&#xac;" horiz-adv-x="1110" d="M51 852v20q0 45 16 61.5t62 16.5h670q115 0 166 -51t51 -164v-258q0 -51 -16.5 -67.5t-67.5 -16.5h-27q-51 0 -67.5 16.5t-16.5 67.5v230q0 67 -67 67h-625q-46 0 -62 16.5t-16 61.5z" />
<glyph unicode="&#xad;" horiz-adv-x="819" d="M53 645v23q0 44 17 60.5t61 16.5h557q44 0 61 -16.5t17 -60.5v-23q0 -46 -16.5 -62t-61.5 -16h-557q-45 0 -61.5 16t-16.5 62z" />
<glyph unicode="&#xae;" horiz-adv-x="1722" d="M127 721q0 304 213 520q215 215 520 215t520 -215t215 -520t-215 -520q-216 -213 -520 -213q-303 0 -518 215t-215 518zM254 721q0 -250 178 -428t428 -178q252 0 430 178t178 428q0 252 -178 430q-177 180 -430 180q-251 0 -428 -180q-178 -178 -178 -430zM575 395v504 q0 118 54 171.5t172 53.5h98q140 0 212.5 -64t72.5 -186q0 -182 -156 -237l125 -244q23 -44 13.5 -60t-60.5 -16h-25q-51 0 -75.5 15.5t-47.5 62.5l-102 226h-104v-226q0 -47 -15.5 -62.5t-62.5 -15.5h-21q-47 0 -62.5 15.5t-15.5 62.5zM752 770h135q63 0 90 22t27 76 q0 55 -25 78t-86 23h-68q-73 0 -73 -74v-125z" />
<glyph unicode="&#xb0;" horiz-adv-x="821" d="M96 1204q0 133 90 223q94 91 226 91q133 0 223 -93q90 -90 90 -221q0 -130 -90 -223q-90 -90 -223 -90q-138 0 -226 88q-90 90 -90 225zM252.5 1236.5q-7.5 -50.5 10 -95t58 -74t91.5 -25.5q64 0 111.5 47.5t47.5 114.5q0 72 -45 117q-44 47 -114 47t-117 -47 q-35 -34 -42.5 -84.5z" />
<glyph unicode="&#xb1;" horiz-adv-x="1146" d="M104 119v20q0 45 16 61.5t62 16.5h295v350h-295q-47 0 -62.5 15.5t-15.5 62.5v23q0 45 15.5 61t62.5 16h295v289q0 51 16.5 67.5t67.5 16.5h25q51 0 67.5 -16.5t16.5 -67.5v-289h295q46 0 61.5 -16t15.5 -61v-23q0 -47 -15 -62.5t-62 -15.5h-295v-350h295 q46 0 61.5 -16.5t15.5 -61.5v-20q0 -45 -15.5 -61.5t-61.5 -16.5h-783q-46 0 -62 16.5t-16 61.5z" />
<glyph unicode="&#xb4;" horiz-adv-x="575" d="M143 1550.5q-9 14.5 11 55.5l63 133q20 44 45 60t76 16h51q51 0 58.5 -14.5t-19.5 -57.5l-90 -141q-25 -39 -49 -52.5t-70 -13.5h-22q-45 0 -54 14.5z" />
<glyph unicode="&#xb5;" horiz-adv-x="1126" d="M131 -317v1241q0 56 18.5 74t73.5 18h25q56 0 74 -18t18 -74v-562q0 -100 55 -143t183 -43q132 0 182.5 45.5t50.5 155.5v547q0 56 18.5 74t73.5 18h27q56 0 74 -18t18 -74v-547q0 -191 -115 -297q-115 -103 -284 -103q-200 0 -283 123v-417q0 -56 -18.5 -74.5 t-73.5 -18.5h-25q-55 0 -73.5 18.5t-18.5 74.5z" />
<glyph unicode="&#xb6;" horiz-adv-x="1175" d="M49 936q0 181 117 288t328 107h303q123 0 178 -55t55 -178v-1215q0 -43 -14.5 -57t-57.5 -14h-24q-43 0 -57.5 14t-14.5 57v1164q0 108 -108 108h-136v-686q0 -224 -57.5 -373t-193.5 -270q-36 -28 -52 -24.5t-41 42.5l-14 23q-23 36 -20.5 53.5t32.5 44.5 q179 159 179 504v70q-177 0 -289 112q-113 113 -113 285z" />
<glyph unicode="&#xb7;" horiz-adv-x="438" d="M86 657q0 56 39 95t94 39t94 -39t39 -95q0 -57 -38.5 -96t-94.5 -39t-94.5 39t-38.5 96z" />
<glyph unicode="&#xb8;" horiz-adv-x="499" d="M88 -326q-3 17 1 27t16 13t22.5 3t29 -2t27.5 -2q48 0 67 14t19 50t-19 49.5t-65 13.5h-20q-35 0 -42 8.5t1 40.5l41 162h117l-31 -131q92 5 133 -27.5t41 -113.5q0 -96 -52 -139t-165 -43q-43 0 -74 8q-27 6 -37 17.5t-10 39.5v12z" />
<glyph unicode="&#xbb;" horiz-adv-x="1062" d="M122 102.5q-5 12.5 28 53.5l245 301q29 35 29 55t-29 55l-245 301q-33 41 -28 53.5t58 12.5h25q53 0 80.5 -13.5t60.5 -52.5l189 -229q59 -71 59 -127q0 -53 -59 -127l-189 -229q-33 -39 -60.5 -52.5t-80.5 -13.5h-25q-53 0 -58 12.5zM535.5 102.5q-5.5 12.5 27.5 53.5 l246 301q29 37 29 55q0 23 -29 55l-246 301q-33 41 -27.5 53.5t58.5 12.5h24q53 0 81 -13.5t61 -52.5l190 -229q58 -70 58 -127t-58 -127l-190 -229q-33 -39 -61 -52.5t-81 -13.5h-24q-53 0 -58.5 12.5z" />
<glyph unicode="&#xbf;" horiz-adv-x="870" d="M96 57q0 150 66 234q67 82 194 153q111 63 144 131q19 39 35.5 49.5t62.5 10.5h23q49 0 68.5 -15.5t17.5 -52.5q-9 -140 -226 -280q-50 -32 -92 -64q-32 -22 -55 -67t-23 -99q0 -107 50.5 -148.5t175.5 -41.5q73 0 155 18q51 12 68.5 -2t17.5 -65v-37q0 -51 -17 -69 t-71 -29q-83 -15 -151 -15q-229 0 -336 90.5t-107 298.5zM477 903q0 57 38.5 96t94.5 39t94.5 -39t38.5 -96q0 -55 -38.5 -94t-94.5 -39t-94.5 39t-38.5 94z" />
<glyph unicode="&#xc0;" horiz-adv-x="1296" d="M79.5 18q-13.5 18 0.5 72l252 916q56 200 117 270q65 74 213 74t210 -74q62 -70 117 -270l252 -916q14 -54 0.5 -72t-70.5 -18h-28q-56 0 -78.5 17.5t-40.5 72.5l-76 279h-575l-76 -279q-18 -55 -40.5 -72.5t-78.5 -17.5h-28q-57 0 -70.5 18zM424 563h473l-121 447 q-25 93 -45.5 120t-68.5 27q-49 0 -70.5 -27.5t-46.5 -119.5zM426.5 1702q7.5 14 58.5 14h52q51 0 75.5 -15.5t44.5 -60.5l64 -133q20 -41 11 -55t-54 -14h-23q-47 0 -70 13t-48 52l-91 142q-27 43 -19.5 57z" />
<glyph unicode="&#xc1;" horiz-adv-x="1296" d="M79.5 18q-13.5 18 0.5 72l252 916q56 200 117 270q65 74 213 74t210 -74q62 -70 117 -270l252 -916q14 -54 0.5 -72t-70.5 -18h-28q-56 0 -78.5 17.5t-40.5 72.5l-76 279h-575l-76 -279q-18 -55 -40.5 -72.5t-78.5 -17.5h-28q-57 0 -70.5 18zM424 563h473l-121 447 q-25 93 -45.5 120t-68.5 27q-49 0 -70.5 -27.5t-46.5 -119.5zM581 1452q-9 14 11 55l63 133q20 44 45 60t76 16h51q51 0 58.5 -14t-19.5 -57l-90 -142q-25 -39 -48.5 -52t-70.5 -13h-22q-45 0 -54 14z" />
<glyph unicode="&#xc2;" horiz-adv-x="1296" d="M79.5 18q-13.5 18 0.5 72l252 916q56 200 117 270q65 74 213 74t210 -74q62 -70 117 -270l252 -916q14 -54 0.5 -72t-70.5 -18h-28q-56 0 -78.5 17.5t-40.5 72.5l-76 279h-575l-76 -279q-18 -55 -40.5 -72.5t-78.5 -17.5h-28q-57 0 -70.5 18zM409.5 1454q-6.5 12 16.5 47 l78 123q35 53 67.5 71.5t90.5 18.5t90 -18t67 -72l80 -123q23 -35 16.5 -47t-49.5 -12h-22q-43 0 -66 12.5t-43 48.5l-30 49q-21 35 -43 35q-23 0 -44 -35l-30 -49q-20 -36 -43 -48.5t-66 -12.5h-20q-43 0 -49.5 12zM424 563h473l-121 447q-25 93 -45.5 120t-68.5 27 q-49 0 -70.5 -27.5t-46.5 -119.5z" />
<glyph unicode="&#xc3;" horiz-adv-x="1296" d="M79.5 18q-13.5 18 0.5 72l252 916q56 200 117 270q65 74 213 74t210 -74q62 -70 117 -270l252 -916q14 -54 0.5 -72t-70.5 -18h-28q-56 0 -78.5 17.5t-40.5 72.5l-76 279h-575l-76 -279q-18 -55 -40.5 -72.5t-78.5 -17.5h-28q-57 0 -70.5 18zM322 1501q18 207 204 207 q73 0 162 -59q91 -60 119 -60q60 0 63 58q3 51 62 51h16q31 0 44 -10.5t12 -34.5q-15 -207 -203 -207q-77 0 -166 59q-91 60 -117 60q-59 0 -65 -68q-5 -25 -16.5 -33t-43.5 -8h-16q-35 0 -46 9t-9 36zM424 563h473l-121 447q-25 93 -45.5 120t-68.5 27q-49 0 -70.5 -27.5 t-46.5 -119.5z" />
<glyph unicode="&#xc4;" horiz-adv-x="1296" d="M79.5 18q-13.5 18 0.5 72l252 916q56 200 117 270q65 74 213 74t210 -74q62 -70 117 -270l252 -916q14 -54 0.5 -72t-70.5 -18h-28q-56 0 -78.5 17.5t-40.5 72.5l-76 279h-575l-76 -279q-18 -55 -40.5 -72.5t-78.5 -17.5h-28q-57 0 -70.5 18zM365 1577q0 48 33.5 82.5 t80.5 34.5q49 0 83 -34.5t34 -82.5t-34 -81.5t-83 -33.5q-47 0 -80.5 34t-33.5 81zM424 563h473l-121 447q-25 93 -45.5 120t-68.5 27q-49 0 -70.5 -27.5t-46.5 -119.5zM729 1577q0 47 35 82t82.5 35t79.5 -35q35 -35 35 -82t-35 -82q-32 -32 -79.5 -32t-82.5 32 q-35 35 -35 82z" />
<glyph unicode="&#xc5;" horiz-adv-x="1296" d="M79.5 18q-13.5 18 0.5 72l252 916q56 200 117 270q65 74 213 74t210 -74q62 -70 117 -270l252 -916q14 -54 0.5 -72t-70.5 -18h-28q-56 0 -78.5 17.5t-40.5 72.5l-76 279h-575l-76 -279q-18 -55 -40.5 -72.5t-78.5 -17.5h-28q-57 0 -70.5 18zM424 563h473l-121 447 q-25 93 -45.5 120t-68.5 27q-49 0 -70.5 -27.5t-46.5 -119.5zM475 1577q0 85 52 135.5t132 50.5q82 0 135.5 -50t53.5 -136q0 -83 -54 -133.5t-135 -50.5q-80 0 -132 50.5t-52 133.5zM575 1577q0 -35 23.5 -58.5t60.5 -23.5q38 0 62 23t24 59q0 37 -24 61.5t-62 24.5 q-37 0 -60.5 -24.5t-23.5 -61.5z" />
<glyph unicode="&#xc6;" horiz-adv-x="1822" d="M78.5 18.5q-13.5 18.5 3.5 69.5l266 899q59 194 127 268q70 76 221 76h953q55 0 73.5 -18.5t18.5 -73.5v-18q0 -56 -18.5 -74.5t-73.5 -18.5h-521q-79 0 -79 -77v-263h518q55 0 73.5 -18t18.5 -74v-18q0 -56 -18.5 -74t-73.5 -18h-518v-305q0 -78 79 -78h521 q55 0 73.5 -18.5t18.5 -73.5v-19q0 -56 -18.5 -74t-73.5 -18h-582q-123 0 -178 55t-55 178v136h-457l-82 -281q-17 -54 -39.5 -71t-77.5 -17h-31q-55 0 -68.5 18.5zM432 563h402v492q0 50 10 73h-162q-54 0 -78.5 -29t-48.5 -114z" />
<glyph unicode="&#xc7;" horiz-adv-x="1083" d="M109 489v328q0 533 550 533q155 0 259 -43q57 -24 71.5 -41.5t14.5 -65.5v-31q0 -57 -16.5 -71t-67.5 4q-118 47 -265 47q-170 0 -247.5 -80t-77.5 -252v-328q0 -155 77 -232t257 -77q163 0 264 43q34 14 58 -3t24 -64v-31q0 -45 -18.5 -67t-65.5 -40q-90 -38 -234 -41 l-12 -57q92 5 133 -27.5t41 -113.5q0 -96 -52 -139t-165 -43q-43 0 -74 8q-27 6 -37 17.5t-10 39.5v12q-3 17 1 27t16 13t22.5 3t29 -2t27.5 -2q48 0 67 14t19 50t-19 49.5t-65 13.5h-20q-35 0 -42 8.5t1 40.5l22 93q-236 17 -351 140t-115 367z" />
<glyph unicode="&#xc8;" horiz-adv-x="1150" d="M150 233v865q0 123 55 178t178 55h580q55 0 73.5 -18.5t18.5 -73.5v-18q0 -56 -18.5 -74.5t-73.5 -18.5h-519q-79 0 -79 -77v-263h516q55 0 73.5 -18t18.5 -74v-18q0 -56 -18.5 -74t-73.5 -18h-516v-305q0 -78 79 -78h519q55 0 73.5 -18.5t18.5 -73.5v-19 q0 -56 -18.5 -74t-73.5 -18h-580q-123 0 -178 55t-55 178zM379.5 1702q7.5 14 58.5 14h51q51 0 76 -16t45 -60l64 -133q20 -41 11 -55t-54 -14h-23q-47 0 -70.5 13t-48.5 52l-90 142q-27 43 -19.5 57z" />
<glyph unicode="&#xc9;" horiz-adv-x="1150" d="M150 233v865q0 123 55 178t178 55h580q55 0 73.5 -18.5t18.5 -73.5v-18q0 -56 -18.5 -74.5t-73.5 -18.5h-519q-79 0 -79 -77v-263h516q55 0 73.5 -18t18.5 -74v-18q0 -56 -18.5 -74t-73.5 -18h-516v-305q0 -78 79 -78h519q55 0 73.5 -18.5t18.5 -73.5v-19 q0 -56 -18.5 -74t-73.5 -18h-580q-123 0 -178 55t-55 178zM540 1452q-9 14 11 55l63 133q20 44 45 60t76 16h51q51 0 58.5 -14t-19.5 -57l-90 -142q-25 -39 -48.5 -52t-70.5 -13h-22q-45 0 -54 14z" />
<glyph unicode="&#xca;" horiz-adv-x="1150" d="M150 233v865q0 123 55 178t178 55h580q55 0 73.5 -18.5t18.5 -73.5v-18q0 -56 -18.5 -74.5t-73.5 -18.5h-519q-79 0 -79 -77v-263h516q55 0 73.5 -18t18.5 -74v-18q0 -56 -18.5 -74t-73.5 -18h-516v-305q0 -78 79 -78h519q55 0 73.5 -18.5t18.5 -73.5v-19 q0 -56 -18.5 -74t-73.5 -18h-580q-123 0 -178 55t-55 178zM360.5 1454q-6.5 12 16.5 47l78 123q35 54 67 72t90 18t90.5 -18.5t67.5 -71.5l80 -123q23 -35 16.5 -47t-49.5 -12h-22q-43 0 -66 12.5t-43 48.5l-31 49q-21 35 -43 35t-43 -35l-30 -49q-20 -36 -43 -48.5 t-66 -12.5h-20q-43 0 -49.5 12z" />
<glyph unicode="&#xcb;" horiz-adv-x="1150" d="M150 233v865q0 123 55 178t178 55h580q55 0 73.5 -18.5t18.5 -73.5v-18q0 -56 -18.5 -74.5t-73.5 -18.5h-519q-79 0 -79 -77v-263h516q55 0 73.5 -18t18.5 -74v-18q0 -56 -18.5 -74t-73.5 -18h-516v-305q0 -78 79 -78h519q55 0 73.5 -18.5t18.5 -73.5v-19 q0 -56 -18.5 -74t-73.5 -18h-580q-123 0 -178 55t-55 178zM319 1577q0 47 34 82t81 35q49 0 83 -34.5t34 -82.5t-34 -81.5t-83 -33.5q-47 0 -81 34t-34 81zM684 1577q0 47 35 82t82.5 35t79.5 -35q35 -35 35 -82t-35 -82q-32 -32 -79.5 -32t-82.5 32q-35 35 -35 82z" />
<glyph unicode="&#xcc;" horiz-adv-x="542" d="M31.5 1702q7.5 14 58.5 14h51q51 0 76 -16t45 -60l64 -133q20 -41 11 -55t-54 -14h-23q-47 0 -70.5 13t-48.5 52l-90 142q-27 43 -19.5 57zM170 94v1143q0 57 18.5 75.5t75.5 18.5h27q57 0 75.5 -18.5t18.5 -75.5v-1143q0 -57 -18.5 -75.5t-75.5 -18.5h-27 q-57 0 -75.5 18.5t-18.5 75.5z" />
<glyph unicode="&#xcd;" horiz-adv-x="542" d="M164 94v1143q0 57 18.5 75.5t75.5 18.5h27q57 0 75.5 -18.5t18.5 -75.5v-1143q0 -57 -18.5 -75.5t-75.5 -18.5h-27q-57 0 -75.5 18.5t-18.5 75.5zM210 1452q-9 14 11 55l64 133q20 44 45 60t76 16h51q51 0 58.5 -14t-19.5 -57l-90 -142q-25 -39 -48.5 -52t-70.5 -13h-23 q-45 0 -54 14z" />
<glyph unicode="&#xce;" horiz-adv-x="542" d="M24.5 1454q-6.5 12 16.5 47l78 123q35 54 67 72t90 18t90.5 -18.5t67.5 -71.5l80 -123q23 -35 16.5 -47t-49.5 -12h-22q-43 0 -66 12.5t-43 48.5l-31 49q-21 35 -43 35t-43 -35l-30 -49q-20 -36 -43 -48.5t-66 -12.5h-20q-43 0 -49.5 12zM170 94v1143q0 57 18.5 75.5 t75.5 18.5h27q57 0 75.5 -18.5t18.5 -75.5v-1143q0 -57 -18.5 -75.5t-75.5 -18.5h-27q-57 0 -75.5 18.5t-18.5 75.5z" />
<glyph unicode="&#xcf;" horiz-adv-x="542" d="M-27 1577q0 47 34 82t81 35q49 0 83 -34.5t34 -82.5t-34 -81.5t-83 -33.5q-47 0 -81 34t-34 81zM164 94v1143q0 57 18.5 75.5t75.5 18.5h27q57 0 75.5 -18.5t18.5 -75.5v-1143q0 -57 -18.5 -75.5t-75.5 -18.5h-27q-57 0 -75.5 18.5t-18.5 75.5zM338 1577q0 47 35 82 t82.5 35t79.5 -35q35 -35 35 -82t-35 -82q-32 -32 -79.5 -32t-82.5 32q-35 35 -35 82z" />
<glyph unicode="&#xd0;" horiz-adv-x="1290" d="M33 655v21q0 40 14 53.5t53 13.5h88v355q0 123 55.5 178t178.5 55h170q325 0 463 -114q139 -115 139 -410v-283q0 -279 -142.5 -401.5t-459.5 -122.5h-170q-123 0 -178.5 55t-55.5 178v355h-88q-39 0 -53 13.5t-14 53.5zM403 281q0 -78 80 -78h109q223 0 301 69 q80 71 80 252v283q0 179 -80 250t-301 71h-109q-80 0 -80 -77v-308h121q41 0 54.5 -13t13.5 -54v-21q0 -41 -13.5 -54t-54.5 -13h-121v-307z" />
<glyph unicode="&#xd1;" horiz-adv-x="1351" d="M150 94v987q0 147 56 209t185 62q108 0 161.5 -46.5t88.5 -170.5l258 -916q10 -34 21 -45.5t32 -11.5q41 0 41 67v1008q0 57 18.5 75.5t75.5 18.5h21q57 0 75.5 -18.5t18.5 -75.5v-987q0 -148 -54 -209t-179 -61q-112 0 -167.5 49t-92.5 178l-254 895q-10 41 -21.5 54 t-34.5 13q-41 0 -41 -71v-1004q0 -57 -18.5 -75.5t-75.5 -18.5h-20q-57 0 -75.5 18.5t-18.5 75.5zM334 1501q18 207 205 207q72 0 161 -59q91 -60 119 -60q61 0 64 58q3 51 61 51h17q31 0 43.5 -10t11.5 -35q-15 -207 -203 -207q-77 0 -166 59q-91 60 -117 60q-59 0 -65 -68 q-5 -25 -16 -33t-43 -8h-17q-35 0 -46 9t-9 36z" />
<glyph unicode="&#xd2;" d="M109 516v293q0 265 118 401q122 140 424 140t424 -140q119 -137 119 -401v-293q0 -264 -121 -403q-120 -138 -422 -138q-304 0 -424 138q-118 136 -118 403zM326 516q0 -178 65 -258t260 -80t260 80q66 81 66 258v293q0 180 -66 258q-65 80 -260 80t-260 -80 q-65 -77 -65 -258v-293zM418.5 1702q7.5 14 58.5 14h51q51 0 76 -16t45 -60l64 -133q20 -41 11 -55t-54 -14h-23q-47 0 -70.5 13t-48.5 52l-90 142q-27 43 -19.5 57z" />
<glyph unicode="&#xd3;" d="M109 516v293q0 265 118 401q122 140 424 140t424 -140q119 -137 119 -401v-293q0 -264 -121 -403q-120 -138 -422 -138q-304 0 -424 138q-118 136 -118 403zM326 516q0 -178 65 -258t260 -80t260 80q66 81 66 258v293q0 180 -66 258q-65 80 -260 80t-260 -80 q-65 -77 -65 -258v-293zM548 1452q-9 14 11 55l64 133q20 45 44.5 60.5t75.5 15.5h52q51 0 58.5 -14t-19.5 -57l-91 -142q-25 -39 -48 -52t-70 -13h-23q-45 0 -54 14z" />
<glyph unicode="&#xd4;" d="M109 516v293q0 265 118 401q122 140 424 140t424 -140q119 -137 119 -401v-293q0 -264 -121 -403q-120 -138 -422 -138q-304 0 -424 138q-118 136 -118 403zM326 516q0 -178 65 -258t260 -80t260 80q66 81 66 258v293q0 180 -66 258q-65 80 -260 80t-260 -80 q-65 -77 -65 -258v-293zM399.5 1454q-6.5 12 16.5 47l78 123q35 54 67 72t90 18t90.5 -18.5t67.5 -71.5l80 -123q23 -35 16.5 -47t-49.5 -12h-22q-43 0 -66 12.5t-43 48.5l-31 49q-21 35 -43 35t-43 -35l-30 -49q-20 -36 -43 -48.5t-66 -12.5h-20q-43 0 -49.5 12z" />
<glyph unicode="&#xd5;" d="M109 516v293q0 265 118 401q122 140 424 140t424 -140q119 -137 119 -401v-293q0 -264 -121 -403q-120 -138 -422 -138q-304 0 -424 138q-118 136 -118 403zM311 1501q18 207 205 207q73 0 162 -59q91 -60 119 -60q60 0 63 58q3 51 62 51h16q31 0 43.5 -10t11.5 -35 q-15 -207 -202 -207q-77 0 -166 59q-91 60 -117 60q-60 0 -66 -68q-5 -25 -16 -33t-43 -8h-16q-35 0 -46.5 9.5t-9.5 35.5zM326 516q0 -178 65 -258t260 -80t260 80q66 81 66 258v293q0 180 -66 258q-65 80 -260 80t-260 -80q-65 -77 -65 -258v-293z" />
<glyph unicode="&#xd6;" d="M109 516v293q0 265 118 401q122 140 424 140t424 -140q119 -137 119 -401v-293q0 -264 -121 -403q-120 -138 -422 -138q-304 0 -424 138q-118 136 -118 403zM326 516q0 -178 65 -258t260 -80t260 80q66 81 66 258v293q0 180 -66 258q-65 80 -260 80t-260 -80 q-65 -77 -65 -258v-293zM354 1577q0 47 34 82t81 35q49 0 83 -34.5t34 -82.5t-34 -81.5t-83 -33.5q-47 0 -81 34t-34 81zM719 1577q0 47 35 82t82 35t79 -35q35 -35 35 -82t-35 -82q-32 -32 -79 -32t-82 32q-35 35 -35 82z" />
<glyph unicode="&#xd7;" horiz-adv-x="1126" d="M131 338q0 23 35 55l270 273l-270 272q-35 32 -35 55.5t35 55.5l14 14q32 35 55.5 35t55.5 -35l272 -270l273 270q32 35 55 35t55 -35l15 -14q35 -32 35 -55.5t-35 -55.5l-271 -272l271 -273q35 -32 35 -55t-35 -55l-15 -15q-32 -35 -55 -35t-55 35l-273 271l-272 -271 q-32 -35 -55.5 -35t-55.5 35l-14 15q-35 32 -35 55z" />
<glyph unicode="&#xd8;" d="M109 516v293q0 265 118 401q122 140 424 140q166 0 275 -47l35 61q23 37 42 42t56 -15l18 -11q37 -20 42.5 -39.5t-17.5 -56.5l-37 -63q129 -126 129 -412v-293q0 -264 -121 -403q-120 -138 -422 -138q-166 0 -276 45l-33 -57q-23 -37 -42 -41.5t-56 15.5l-19 10 q-37 23 -41.5 41t15.5 55l37 63q-127 121 -127 410zM326 516q0 -151 41 -219l471 819q-70 31 -187 31q-195 0 -260 -80q-65 -77 -65 -258v-293zM459 211q65 -33 192 -33q195 0 260 80q66 81 66 258v293q0 153 -43 223z" />
<glyph unicode="&#xd9;" horiz-adv-x="1294" d="M129 444v793q0 57 18.5 75.5t75.5 18.5h27q57 0 75.5 -18.5t18.5 -75.5v-793q0 -139 75 -201.5t228 -62.5t228 62.5t75 201.5v793q0 57 18.5 75.5t75.5 18.5h29q57 0 75.5 -18.5t18.5 -75.5v-793q0 -236 -134.5 -351.5t-385.5 -115.5q-518 0 -518 467zM400.5 1702 q7.5 14 58.5 14h51q51 0 76 -16t45 -60l63 -133q20 -41 11 -55t-54 -14h-22q-47 0 -70.5 13t-48.5 52l-90 142q-27 43 -19.5 57z" />
<glyph unicode="&#xda;" horiz-adv-x="1294" d="M129 444v793q0 57 18.5 75.5t75.5 18.5h27q57 0 75.5 -18.5t18.5 -75.5v-793q0 -139 75 -201.5t228 -62.5t228 62.5t75 201.5v793q0 57 18.5 75.5t75.5 18.5h29q57 0 75.5 -18.5t18.5 -75.5v-793q0 -236 -134.5 -351.5t-385.5 -115.5q-518 0 -518 467zM579 1452 q-9 14 11 55l63 133q20 44 45 60t76 16h51q51 0 58.5 -14t-19.5 -57l-90 -142q-25 -39 -48.5 -52t-70.5 -13h-22q-45 0 -54 14z" />
<glyph unicode="&#xdb;" horiz-adv-x="1294" d="M129 444v793q0 57 18.5 75.5t75.5 18.5h27q57 0 75.5 -18.5t18.5 -75.5v-793q0 -139 75 -201.5t228 -62.5t228 62.5t75 201.5v793q0 57 18.5 75.5t75.5 18.5h29q57 0 75.5 -18.5t18.5 -75.5v-793q0 -236 -134.5 -351.5t-385.5 -115.5q-518 0 -518 467zM395 1454 q-6 12 17 47l77 123q35 53 67.5 71.5t90.5 18.5t90.5 -18.5t67.5 -71.5l80 -123q23 -35 16.5 -47t-49.5 -12h-23q-43 0 -65.5 12.5t-42.5 48.5l-31 49q-21 35 -43 35t-43 -35l-31 -49q-20 -36 -42.5 -48.5t-65.5 -12.5h-21q-43 0 -49 12z" />
<glyph unicode="&#xdc;" horiz-adv-x="1294" d="M129 444v793q0 57 18.5 75.5t75.5 18.5h27q57 0 75.5 -18.5t18.5 -75.5v-793q0 -139 75 -201.5t228 -62.5t228 62.5t75 201.5v793q0 57 18.5 75.5t75.5 18.5h29q57 0 75.5 -18.5t18.5 -75.5v-793q0 -236 -134.5 -351.5t-385.5 -115.5q-518 0 -518 467zM350 1577 q0 47 34 82t81 35q49 0 83 -34.5t34 -82.5t-34 -81.5t-83 -33.5q-47 0 -81 34t-34 81zM715 1577q0 47 35 82t82 35t79 -35q35 -35 35 -82t-35 -82q-32 -32 -79 -32t-82 32q-35 35 -35 82z" />
<glyph unicode="&#xdd;" horiz-adv-x="1294" d="M71 1312.5q11 18.5 74 18.5h29q66 0 97 -18.5t57 -75.5l192 -379q46 -87 72 -121q24 -24 65 -24q43 0 64 24q26 34 72 121l192 379q29 57 59.5 75.5t96.5 18.5h28q63 0 74.5 -18.5t-18.5 -75.5l-277 -510q-62 -111 -90 -139q-36 -36 -92 -56v-438q0 -57 -18.5 -75.5 t-75.5 -18.5h-29q-57 0 -75.5 18.5t-18.5 75.5v438q-61 21 -96 56q-31 31 -88 139l-275 510q-30 57 -19 75.5zM597 1452q-9 14 11 55l64 133q20 44 45 60t76 16h51q51 0 58.5 -14t-19.5 -57l-90 -142q-25 -39 -48.5 -52t-70.5 -13h-23q-45 0 -54 14z" />
<glyph unicode="&#xde;" horiz-adv-x="1210" d="M150 94v1125q0 57 18.5 75.5t75.5 18.5h26q57 0 76 -18.5t19 -75.5v-119h315q235 0 346 -106t111 -322t-111 -322t-346 -106h-315v-150q0 -57 -19 -75.5t-76 -18.5h-26q-57 0 -75.5 18.5t-18.5 75.5zM365 446h315q133 0 187.5 50.5t54.5 175.5q0 123 -55.5 174t-186.5 51 h-315v-451z" />
<glyph unicode="&#xdf;" horiz-adv-x="1134" d="M123 94v809q0 238 106.5 342.5t331.5 104.5q383 0 383 -326q0 -64 -26 -114.5t-63.5 -80.5t-75 -53.5t-63.5 -47t-26 -48.5q0 -47 172 -119q72 -29 123 -96t51 -154q0 -176 -104.5 -255t-331.5 -79q-14 0 -72 5q-52 6 -69 24.5t-17 71.5v43q0 51 16.5 63.5t67.5 1.5 q30 -6 78 -6q122 0 168.5 27t46.5 94q0 35 -19 61t-49 43.5t-66.5 34t-73 36.5t-66.5 45t-49 66t-19 95q0 40 14 74t36 58t48.5 46t53 41t48.5 37.5t36 42t14 49.5q0 121 -172 121q-121 0 -169 -54t-48 -186v-817q0 -57 -18.5 -75.5t-75.5 -18.5h-27q-57 0 -75.5 18.5 t-18.5 75.5z" />
<glyph unicode="&#xe0;" horiz-adv-x="1003" d="M61 293q0 161 105 235t313 74h226v100q0 88 -57.5 122t-184.5 34q-124 0 -215 -18q-45 -8 -60.5 5t-15.5 60v29q0 44 15.5 62t58.5 26q101 16 205 16q230 0 346 -79t116 -257v-397q0 -170 -104.5 -249t-331.5 -79q-416 0 -416 316zM272 297q0 -78 51 -109.5t150 -31.5 q123 0 177.5 33.5t54.5 125.5v127h-226q-107 0 -157 -34t-50 -111zM316.5 1409q7.5 14 58.5 14h51q51 0 76 -15.5t45 -59.5l63 -134q20 -41 11 -55t-54 -14h-22q-47 0 -70.5 13t-48.5 52l-90 142q-27 43 -19.5 57z" />
<glyph unicode="&#xe1;" horiz-adv-x="1003" d="M61 293q0 161 105 235t313 74h226v100q0 88 -57.5 122t-184.5 34q-124 0 -215 -18q-45 -8 -60.5 5t-15.5 60v29q0 44 15.5 62t58.5 26q101 16 205 16q230 0 346 -79t116 -257v-397q0 -170 -104.5 -249t-331.5 -79q-416 0 -416 316zM272 297q0 -78 51 -109.5t150 -31.5 q123 0 177.5 33.5t54.5 125.5v127h-226q-107 0 -157 -34t-50 -111zM423 1159q-9 14 11 55l64 134q20 44 44.5 59.5t75.5 15.5h52q51 0 58.5 -14t-19.5 -57l-91 -142q-25 -39 -48 -52t-70 -13h-23q-45 0 -54 14z" />
<glyph unicode="&#xe2;" horiz-adv-x="1003" d="M61 293q0 161 105 235t313 74h226v100q0 88 -57.5 122t-184.5 34q-124 0 -215 -18q-45 -8 -60.5 5t-15.5 60v29q0 44 15.5 62t58.5 26q101 16 205 16q230 0 346 -79t116 -257v-397q0 -170 -104.5 -249t-331.5 -79q-416 0 -416 316zM245.5 1161q-6.5 12 16.5 47l78 123 q35 53 67.5 71.5t90.5 18.5t90 -18t67 -72l80 -123q23 -35 16.5 -47t-49.5 -12h-22q-43 0 -66 12.5t-43 48.5l-30 50q-21 34 -43 34t-43 -34l-31 -50q-20 -36 -43 -48.5t-66 -12.5h-20q-43 0 -49.5 12zM272 297q0 -78 51 -109.5t150 -31.5q123 0 177.5 33.5t54.5 125.5v127 h-226q-107 0 -157 -34t-50 -111z" />
<glyph unicode="&#xe3;" horiz-adv-x="1003" d="M61 293q0 161 105 235t313 74h226v100q0 88 -57.5 122t-184.5 34q-124 0 -215 -18q-45 -8 -60.5 5t-15.5 60v29q0 44 15.5 62t58.5 26q101 16 205 16q230 0 346 -79t116 -257v-397q0 -170 -104.5 -249t-331.5 -79q-416 0 -416 316zM158 1208q18 207 204 207q73 0 162 -59 q91 -60 119 -60q61 0 64 58q3 51 61 51h16q31 0 44 -10.5t12 -34.5q-15 -207 -203 -207q-77 0 -166 59q-91 60 -117 60q-59 0 -65 -68q-5 -25 -16.5 -33t-43.5 -8h-16q-35 0 -46 9t-9 36zM272 297q0 -78 51 -109.5t150 -31.5q123 0 177.5 33.5t54.5 125.5v127h-226 q-107 0 -157 -34t-50 -111z" />
<glyph unicode="&#xe4;" horiz-adv-x="1003" d="M61 293q0 161 105 235t313 74h226v100q0 88 -57.5 122t-184.5 34q-124 0 -215 -18q-45 -8 -60.5 5t-15.5 60v29q0 44 15.5 62t58.5 26q101 16 205 16q230 0 346 -79t116 -257v-397q0 -170 -104.5 -249t-331.5 -79q-416 0 -416 316zM213 1284q0 47 34 82t81 35 q49 0 82.5 -34.5t33.5 -82.5t-33.5 -81.5t-82.5 -33.5q-47 0 -81 34t-34 81zM272 297q0 -78 51 -109.5t150 -31.5q123 0 177.5 33.5t54.5 125.5v127h-226q-107 0 -157 -34t-50 -111zM577 1284q0 47 35 82t82.5 35t79.5 -35q35 -35 35 -82t-35 -82q-32 -32 -79.5 -32 t-82.5 32q-35 35 -35 82z" />
<glyph unicode="&#xe5;" horiz-adv-x="1003" d="M61 293q0 161 105 235t313 74h226v100q0 88 -57.5 122t-184.5 34q-124 0 -215 -18q-45 -8 -60.5 5t-15.5 60v29q0 44 15.5 62t58.5 26q101 16 205 16q230 0 346 -79t116 -257v-397q0 -170 -104.5 -249t-331.5 -79q-416 0 -416 316zM272 297q0 -78 51 -109.5t150 -31.5 q123 0 177.5 33.5t54.5 125.5v127h-226q-107 0 -157 -34t-50 -111zM309 1284q0 84 52.5 135t132.5 51q82 0 135 -50t53 -136q0 -83 -53.5 -133.5t-134.5 -50.5q-80 0 -132.5 50.5t-52.5 133.5zM410 1284q0 -35 23.5 -58.5t60.5 -23.5q38 0 62 23t24 59q0 37 -24 61.5 t-62 24.5q-37 0 -60.5 -24.5t-23.5 -61.5z" />
<glyph unicode="&#xe6;" horiz-adv-x="1656" d="M61 293q0 161 105 235t313 74h226v100q0 88 -57.5 122t-184.5 34q-113 0 -207 -16q-47 -8 -65.5 6.5t-18.5 58.5v29q0 44 17 62t65 26q80 14 197 14q147 0 243.5 -41t118.5 -123h8q20 73 111 118.5t219 45.5q214 0 324 -107.5t110 -316.5q0 -8 -4 -90q-4 -55 -25 -74.5 t-77 -19.5h-572v-45q0 -112 68.5 -160.5t224.5 -48.5q125 0 268 33q51 10 67.5 -4t16.5 -68v-26q0 -51 -15 -69.5t-69 -31.5q-115 -33 -268 -33q-147 0 -249 42t-126 120h-8q-12 -80 -102.5 -121t-237.5 -41q-416 0 -416 316zM272 297q0 -78 51 -109.5t150 -31.5 q123 0 177.5 33.5t54.5 125.5v127h-226q-107 0 -157 -34t-50 -111zM907 602h479v51q0 203 -241 203q-238 0 -238 -203v-51z" />
<glyph unicode="&#xe7;" horiz-adv-x="878" d="M90 408v200q0 204 121 317t352 113q81 0 160 -20q51 -12 66.5 -32t15.5 -71v-26q0 -54 -18 -68t-68 0q-62 21 -152 21q-147 0 -206.5 -54t-59.5 -182v-192q0 -132 63.5 -185t217.5 -53q52 0 157 19q50 10 67 -4t17 -66v-25q0 -50 -17 -70t-69 -32q-70 -18 -155 -21 l-13 -57q92 5 133 -27.5t41 -113.5q0 -96 -52 -139t-165 -43q-42 0 -73 8q-27 6 -37 17.5t-10 39.5v12q-3 17 1 27t16 13t22.5 3t29 -2t27.5 -2q48 0 67 14t19 50t-19 49.5t-65 13.5h-21q-35 0 -42 8.5t1 40.5l25 95q-377 40 -377 424z" />
<glyph unicode="&#xe8;" horiz-adv-x="1050" d="M90 416v178q0 444 455 444q214 0 324 -107.5t110 -316.5q0 -28 -4 -90q-6 -57 -27 -75.5t-78 -18.5h-569v-45q0 -112 68.5 -160.5t224.5 -48.5q131 0 266 33q49 12 66.5 -3t17.5 -69v-26q0 -51 -15 -69.5t-69 -31.5q-118 -33 -266 -33q-260 0 -382 104.5t-122 334.5z M301 602h479v51q0 203 -241 203q-238 0 -238 -203v-51zM314.5 1409q7.5 14 58.5 14h51q51 0 76 -15.5t45 -59.5l63 -134q20 -41 11 -55t-54 -14h-22q-47 0 -70.5 13t-48.5 52l-90 142q-27 43 -19.5 57z" />
<glyph unicode="&#xe9;" horiz-adv-x="1050" d="M90 416v178q0 444 455 444q214 0 324 -107.5t110 -316.5q0 -28 -4 -90q-6 -57 -27 -75.5t-78 -18.5h-569v-45q0 -112 68.5 -160.5t224.5 -48.5q131 0 266 33q49 12 66.5 -3t17.5 -69v-26q0 -51 -15 -69.5t-69 -31.5q-118 -33 -266 -33q-260 0 -382 104.5t-122 334.5z M301 602h479v51q0 203 -241 203q-238 0 -238 -203v-51zM425 1159q-9 14 11 55l64 134q20 44 45 59.5t76 15.5h51q51 0 58.5 -14t-19.5 -57l-90 -142q-25 -39 -48.5 -52t-70.5 -13h-23q-45 0 -54 14z" />
<glyph unicode="&#xea;" horiz-adv-x="1050" d="M90 416v178q0 444 455 444q214 0 324 -107.5t110 -316.5q0 -28 -4 -90q-6 -57 -27 -75.5t-78 -18.5h-569v-45q0 -112 68.5 -160.5t224.5 -48.5q131 0 266 33q49 12 66.5 -3t17.5 -69v-26q0 -51 -15 -69.5t-69 -31.5q-118 -33 -266 -33q-260 0 -382 104.5t-122 334.5z M257.5 1161q-6.5 12 16.5 47l78 123q35 53 67.5 71.5t90.5 18.5t90.5 -18.5t67.5 -71.5l80 -123q23 -35 16.5 -47t-49.5 -12h-23q-43 0 -65.5 12.5t-42.5 48.5l-31 50q-21 34 -43 34t-43 -34l-31 -50q-20 -36 -42.5 -48.5t-65.5 -12.5h-21q-43 0 -49.5 12zM301 602h479v51 q0 203 -241 203q-238 0 -238 -203v-51z" />
<glyph unicode="&#xeb;" horiz-adv-x="1050" d="M90 416v178q0 444 455 444q214 0 324 -107.5t110 -316.5q0 -28 -4 -90q-6 -57 -27 -75.5t-78 -18.5h-569v-45q0 -112 68.5 -160.5t224.5 -48.5q131 0 266 33q49 12 66.5 -3t17.5 -69v-26q0 -51 -15 -69.5t-69 -31.5q-118 -33 -266 -33q-260 0 -382 104.5t-122 334.5z M215 1284q0 47 34 82t81 35q49 0 82.5 -34.5t33.5 -82.5t-33.5 -81.5t-82.5 -33.5q-47 0 -81 34t-34 81zM301 602h479v51q0 203 -241 203q-238 0 -238 -203v-51zM579 1284q0 47 35 82t82.5 35t79.5 -35q35 -35 35 -82t-35 -82q-32 -32 -79.5 -32t-82.5 32q-35 35 -35 82z " />
<glyph unicode="&#xec;" horiz-adv-x="477" d="M21.5 1409q7.5 14 58.5 14h51q51 0 76 -15.5t45 -59.5l63 -134q20 -41 11 -55t-54 -14h-22q-47 0 -70.5 13t-48.5 52l-90 142q-27 43 -19.5 57zM139 92v832q0 56 18.5 74t73.5 18h27q56 0 74 -18t18 -74v-832q0 -56 -18 -74t-74 -18h-27q-55 0 -73.5 18t-18.5 74z" />
<glyph unicode="&#xed;" horiz-adv-x="477" d="M133 92v832q0 56 18.5 74t73.5 18h27q56 0 74 -18t18 -74v-832q0 -56 -18 -74t-74 -18h-27q-55 0 -73.5 18t-18.5 74zM151 1159q-9 14 11 55l63 134q20 44 45 59.5t76 15.5h51q51 0 58.5 -14t-19.5 -57l-90 -142q-25 -39 -48.5 -52t-70.5 -13h-22q-45 0 -54 14z" />
<glyph unicode="&#xee;" horiz-adv-x="477" d="M-8.5 1161q-6.5 12 16.5 47l78 123q35 53 67.5 71.5t90.5 18.5t90 -18t67 -72l80 -123q23 -35 17 -47t-49 -12h-23q-43 0 -66 12.5t-43 48.5l-30 50q-21 34 -43 34t-43 -34l-31 -50q-20 -36 -43 -48.5t-66 -12.5h-20q-43 0 -49.5 12zM139 92v832q0 56 18.5 74t73.5 18h27 q56 0 74 -18t18 -74v-832q0 -56 -18 -74t-74 -18h-27q-55 0 -73.5 18t-18.5 74z" />
<glyph unicode="&#xef;" horiz-adv-x="477" d="M-59 1284q0 48 33.5 82.5t80.5 34.5q49 0 83 -34.5t34 -82.5t-34 -81.5t-83 -33.5q-47 0 -80.5 34t-33.5 81zM133 92v832q0 56 18.5 74t73.5 18h27q56 0 74 -18t18 -74v-832q0 -56 -18 -74t-74 -18h-27q-55 0 -73.5 18t-18.5 74zM305 1284q0 47 35 82t82.5 35t79.5 -35 q35 -35 35 -82t-35 -82q-32 -32 -79.5 -32t-82.5 32q-35 35 -35 82z" />
<glyph unicode="&#xf0;" horiz-adv-x="1124" d="M86 410q0 215 108.5 315t337.5 100q141 0 263 -43q-11 135 -50 223t-120 150l-156 -156q-26 -26 -43 -26t-43 26l-12 13q-26 26 -26 42.5t26 41.5l135 135q-61 28 -195 55q-51 11 -63.5 30.5t0.5 69.5l8 27q13 46 32 57t68 3q165 -24 295 -95l94 95q26 25 43 24t43 -27 l13 -12q26 -25 26 -41t-26 -41l-76 -76q130 -107 190 -259.5t60 -387.5q0 -366 -105 -522q-106 -154 -401 -154q-426 0 -426 433zM303 408q0 -121 51 -174.5t162 -53.5q173 0 225 82q54 85 54 326q-110 49 -258 49q-123 0 -178.5 -50t-55.5 -179z" />
<glyph unicode="&#xf1;" horiz-adv-x="1112" d="M111 92v549q0 397 446 397q230 0 337 -98t107 -299v-549q0 -56 -18.5 -74t-73.5 -18h-26q-55 0 -73.5 18t-18.5 74v549q0 108 -50.5 154.5t-183.5 46.5t-184 -46.5t-51 -154.5v-549q0 -55 -18.5 -73.5t-74.5 -18.5h-26q-55 0 -73.5 18t-18.5 74zM217 1208q18 207 205 207 q73 0 162 -59q91 -60 118 -60q61 0 64 58q3 51 61 51h17q31 0 43.5 -10t11.5 -35q-15 -207 -203 -207q-77 0 -166 59q-91 60 -116 60q-60 0 -66 -68q-5 -25 -16 -33t-43 -8h-17q-35 0 -46 9t-9 36z" />
<glyph unicode="&#xf2;" horiz-adv-x="1118" d="M90 420v176q0 217 117.5 329.5t353.5 112.5q242 0 354.5 -109t112.5 -333v-176q0 -216 -117.5 -329.5t-349.5 -113.5q-243 0 -357 109.5t-114 333.5zM301 420q0 -132 56 -188t204 -56q146 0 201 55.5t55 188.5v176q0 133 -55.5 189.5t-200.5 56.5q-146 0 -203 -57 t-57 -189v-176zM330.5 1409q7.5 14 58.5 14h51q51 0 76 -15.5t45 -59.5l64 -134q20 -41 11 -55t-54 -14h-23q-47 0 -70.5 13t-48.5 52l-90 142q-27 43 -19.5 57z" />
<glyph unicode="&#xf3;" horiz-adv-x="1118" d="M90 420v176q0 217 117.5 329.5t353.5 112.5q242 0 354.5 -109t112.5 -333v-176q0 -216 -117.5 -329.5t-349.5 -113.5q-243 0 -357 109.5t-114 333.5zM301 420q0 -132 56 -188t204 -56q146 0 201 55.5t55 188.5v176q0 133 -55.5 189.5t-200.5 56.5q-146 0 -203 -57 t-57 -189v-176zM489 1159q-9 14 11 55l63 134q20 44 45 59.5t76 15.5h51q51 0 58.5 -14t-19.5 -57l-90 -142q-25 -39 -48.5 -52t-70.5 -13h-22q-45 0 -54 14z" />
<glyph unicode="&#xf4;" horiz-adv-x="1118" d="M90 420v176q0 217 117.5 329.5t353.5 112.5q242 0 354.5 -109t112.5 -333v-176q0 -216 -117.5 -329.5t-349.5 -113.5q-243 0 -357 109.5t-114 333.5zM301 420q0 -132 56 -188t204 -56q146 0 201 55.5t55 188.5v176q0 133 -55.5 189.5t-200.5 56.5q-146 0 -203 -57 t-57 -189v-176zM307 1161q-6 12 17 47l77 123q35 53 67.5 71.5t90.5 18.5t90.5 -18.5t67.5 -71.5l80 -123q23 -35 16.5 -47t-49.5 -12h-23q-43 0 -65.5 12.5t-42.5 48.5l-31 50q-21 34 -43 34t-43 -34l-31 -50q-20 -36 -42.5 -48.5t-65.5 -12.5h-21q-43 0 -49 12z" />
<glyph unicode="&#xf5;" horiz-adv-x="1118" d="M90 420v176q0 217 117.5 329.5t353.5 112.5q242 0 354.5 -109t112.5 -333v-176q0 -216 -117.5 -329.5t-349.5 -113.5q-243 0 -357 109.5t-114 333.5zM221 1208q18 207 205 207q73 0 162 -59q91 -60 119 -60q60 0 63 58q3 51 61 51h17q31 0 43.5 -10t11.5 -35 q-15 -207 -203 -207q-76 0 -165 59q-91 60 -117 60q-60 0 -66 -68q-5 -25 -16 -33t-43 -8h-17q-35 0 -46 9t-9 36zM301 420q0 -132 56 -188t204 -56q146 0 201 55.5t55 188.5v176q0 133 -55.5 189.5t-200.5 56.5q-146 0 -203 -57t-57 -189v-176z" />
<glyph unicode="&#xf6;" horiz-adv-x="1118" d="M90 420v176q0 217 117.5 329.5t353.5 112.5q242 0 354.5 -109t112.5 -333v-176q0 -216 -117.5 -329.5t-349.5 -113.5q-243 0 -357 109.5t-114 333.5zM264 1284q0 47 34 82t81 35q49 0 83 -34.5t34 -82.5t-34 -81.5t-83 -33.5q-47 0 -81 34t-34 81zM301 420 q0 -132 56 -188t204 -56q146 0 201 55.5t55 188.5v176q0 133 -55.5 189.5t-200.5 56.5q-146 0 -203 -57t-57 -189v-176zM629 1284q0 47 35 82t82 35t79 -35q35 -35 35 -82t-35 -82q-32 -32 -79 -32t-82 32q-35 35 -35 82z" />
<glyph unicode="&#xf7;" horiz-adv-x="1146" d="M104 655v21q0 45 16 61.5t62 16.5h783q46 0 61.5 -16.5t15.5 -61.5v-21q0 -45 -15.5 -61t-61.5 -16h-783q-47 0 -62.5 16t-15.5 61zM440 287q0 56 39 95.5t94 39.5t94.5 -39.5t39.5 -95.5q0 -54 -39.5 -93.5t-94.5 -39.5t-94 39t-39 94zM440 1044q0 56 39 95t94 39 t94.5 -40t39.5 -94q0 -56 -39.5 -95.5t-94.5 -39.5t-94 39.5t-39 95.5z" />
<glyph unicode="&#xf8;" horiz-adv-x="1118" d="M90 420v176q0 217 117.5 329.5t353.5 112.5q113 0 205 -28l25 41q19 32 35 36.5t48 -14.5l19 -10q32 -19 36.5 -35.5t-14.5 -48.5l-20 -33q133 -109 133 -350v-176q0 -216 -117.5 -329.5t-349.5 -113.5q-115 0 -207 29l-22 -39q-19 -32 -35.5 -36.5t-48.5 14.5l-23 12 q-31 17 -35 33.5t15 48.5l18 33q-133 109 -133 348zM301 420q0 -118 43 -170l334 577q-52 15 -117 15q-146 0 -203 -57t-57 -189v-176zM440 190q41 -14 121 -14q146 0 201 55.5t55 188.5v176q0 122 -43 174z" />
<glyph unicode="&#xf9;" horiz-adv-x="1099" d="M104 377v547q0 55 18.5 73.5t74.5 18.5h26q55 0 73.5 -18t18.5 -74v-547q0 -108 51.5 -154.5t184.5 -46.5t183 46.5t50 154.5v547q0 55 18.5 73.5t74.5 18.5h26q55 0 73.5 -18t18.5 -74v-547q0 -201 -107 -300.5t-337 -99.5q-447 0 -447 400zM312.5 1409q7.5 14 58.5 14 h51q51 0 76 -15.5t45 -59.5l63 -134q20 -41 11 -55t-54 -14h-22q-47 0 -70.5 13t-48.5 52l-90 142q-27 43 -19.5 57z" />
<glyph unicode="&#xfa;" horiz-adv-x="1099" d="M104 377v547q0 55 18.5 73.5t74.5 18.5h26q55 0 73.5 -18t18.5 -74v-547q0 -108 51.5 -154.5t184.5 -46.5t183 46.5t50 154.5v547q0 55 18.5 73.5t74.5 18.5h26q55 0 73.5 -18t18.5 -74v-547q0 -201 -107 -300.5t-337 -99.5q-447 0 -447 400zM478 1159q-9 14 11 55 l64 134q20 44 45 59.5t76 15.5h51q51 0 58.5 -14t-19.5 -57l-90 -142q-25 -39 -48.5 -52t-70.5 -13h-23q-45 0 -54 14z" />
<glyph unicode="&#xfb;" horiz-adv-x="1099" d="M104 377v547q0 55 18.5 73.5t74.5 18.5h26q55 0 73.5 -18t18.5 -74v-547q0 -108 51.5 -154.5t184.5 -46.5t183 46.5t50 154.5v547q0 55 18.5 73.5t74.5 18.5h26q55 0 73.5 -18t18.5 -74v-547q0 -201 -107 -300.5t-337 -99.5q-447 0 -447 400zM298.5 1161q-6.5 12 16.5 47 l78 123q35 53 67.5 71.5t90.5 18.5t90.5 -18.5t67.5 -71.5l79 -123q23 -35 17 -47t-49 -12h-23q-43 0 -65.5 12.5t-42.5 48.5l-31 50q-21 34 -43 34t-43 -34l-31 -50q-20 -36 -42.5 -48.5t-65.5 -12.5h-21q-43 0 -49.5 12z" />
<glyph unicode="&#xfc;" horiz-adv-x="1099" d="M104 377v547q0 55 18.5 73.5t74.5 18.5h26q55 0 73.5 -18t18.5 -74v-547q0 -108 51.5 -154.5t184.5 -46.5t183 46.5t50 154.5v547q0 55 18.5 73.5t74.5 18.5h26q55 0 73.5 -18t18.5 -74v-547q0 -201 -107 -300.5t-337 -99.5q-447 0 -447 400zM254 1284q0 47 34 82t81 35 q49 0 82.5 -34.5t33.5 -82.5t-33.5 -81.5t-82.5 -33.5q-47 0 -81 34t-34 81zM618 1284q0 47 35 82t82.5 35t79.5 -35q35 -35 35 -82t-35 -82q-32 -32 -79.5 -32t-82.5 32q-35 35 -35 82z" />
<glyph unicode="&#xfd;" horiz-adv-x="1093" d="M86 924q-14 56 0.5 74t71.5 18h26q57 0 80.5 -18.5t36.5 -73.5l162 -660q13 -60 36 -80t74 -20q39 0 61.5 21.5t35.5 78.5l153 660q12 55 35 73.5t80 18.5h27q57 0 71 -18t0 -74l-221 -924q-51 -213 -156.5 -322.5t-281.5 -128.5q-39 -5 -60.5 12.5t-31.5 63.5l-6 27 q-10 42 2.5 59t54.5 23q103 13 165.5 77t98.5 187q-28 -14 -94 -14q-110 0 -160 58.5t-88 203.5zM489 1159q-9 14 11 55l63 134q20 44 45 59.5t76 15.5h51q51 0 58.5 -14t-19.5 -57l-90 -142q-25 -39 -48.5 -52t-70.5 -13h-22q-45 0 -54 14z" />
<glyph unicode="&#xfe;" horiz-adv-x="1142" d="M117 -317v1640q0 55 18.5 73.5t73.5 18.5h24q56 0 74.5 -18.5t18.5 -73.5v-418q86 133 301 133q426 0 426 -446v-168q0 -447 -426 -447q-217 0 -301 134v-428q0 -55 -19 -74t-74 -19h-24q-55 0 -73.5 18.5t-18.5 74.5zM326 420q0 -132 56 -188t204 -56q146 0 201 55.5 t55 188.5v176q0 133 -55.5 189.5t-200.5 56.5t-202.5 -56.5t-57.5 -183.5v-182z" />
<glyph unicode="&#xff;" horiz-adv-x="1093" d="M86 924q-14 56 0.5 74t71.5 18h26q57 0 80.5 -18.5t36.5 -73.5l162 -660q13 -60 36 -80t74 -20q39 0 61.5 21.5t35.5 78.5l153 660q12 55 35 73.5t80 18.5h27q57 0 71 -18t0 -74l-221 -924q-51 -213 -156.5 -322.5t-281.5 -128.5q-39 -5 -60.5 12.5t-31.5 63.5l-6 27 q-10 42 2.5 59t54.5 23q103 13 165.5 77t98.5 187q-28 -14 -94 -14q-110 0 -160 58.5t-88 203.5zM264 1284q0 47 34 82t81 35q49 0 83 -34.5t34 -82.5t-34 -81.5t-83 -33.5q-47 0 -81 34t-34 81zM629 1284q0 47 35 82t82 35t79 -35q35 -35 35 -82t-35 -82q-32 -32 -79 -32 t-82 32q-35 35 -35 82z" />
<glyph unicode="&#x152;" horiz-adv-x="1974" d="M109 516v293q0 265 118 401q122 140 424 140q270 0 379 -142q40 123 211 123h547q56 0 74 -18.5t18 -73.5v-18q0 -56 -18.5 -74.5t-73.5 -18.5h-520q-41 0 -59.5 -18t-18.5 -59v-263h516q56 0 74 -18t18 -74v-18q0 -56 -18 -74t-74 -18h-516v-305q0 -41 18.5 -59.5 t59.5 -18.5h520q56 0 74 -18.5t18 -73.5v-19q0 -56 -18 -74t-74 -18h-547q-167 0 -207 119q-105 -144 -383 -144q-304 0 -424 138q-118 136 -118 403zM326 516q0 -178 65 -258t260 -80t260 80q66 81 66 258v293q0 180 -66 258q-65 80 -260 80t-260 -80q-65 -77 -65 -258 v-293z" />
<glyph unicode="&#x153;" horiz-adv-x="1771" d="M90 420v176q0 217 117.5 329.5t353.5 112.5q270 0 361 -172q85 172 344 172q214 0 323 -107.5t109 -316.5q0 -22 -4 -92q-4 -55 -24.5 -73.5t-76.5 -18.5h-573v-45q0 -110 70 -159.5t225 -49.5q125 0 266 33q49 12 66.5 -3t17.5 -69v-26q0 -50 -16 -68.5t-68 -32.5 q-109 -33 -266 -33q-306 0 -397 175q-94 -175 -357 -175q-243 0 -357 109.5t-114 333.5zM301 420q0 -132 56 -188t204 -56q146 0 201 55.5t55 188.5v176q0 133 -55.5 189.5t-200.5 56.5q-146 0 -203 -57t-57 -189v-176zM1020 602h479v51q0 203 -239 203q-240 0 -240 -203 v-51z" />
<glyph unicode="&#x178;" horiz-adv-x="1294" d="M71 1312.5q11 18.5 74 18.5h29q66 0 97 -18.5t57 -75.5l192 -379q46 -87 72 -121q24 -24 65 -24q43 0 64 24q26 34 72 121l192 379q29 57 59.5 75.5t96.5 18.5h28q63 0 74.5 -18.5t-18.5 -75.5l-277 -510q-62 -111 -90 -139q-36 -36 -92 -56v-438q0 -57 -18.5 -75.5 t-75.5 -18.5h-29q-57 0 -75.5 18.5t-18.5 75.5v438q-61 21 -96 56q-31 31 -88 139l-275 510q-30 57 -19 75.5zM360 1577q0 47 34 82t81 35q49 0 83 -34.5t34 -82.5t-34 -81.5t-83 -33.5q-47 0 -81 34t-34 81zM725 1577q0 47 35 82t82.5 35t79.5 -35q35 -35 35 -82t-35 -82 q-32 -32 -79.5 -32t-82.5 32q-35 35 -35 82z" />
<glyph unicode="&#x2c6;" horiz-adv-x="829" d="M167.5 1548q-6.5 12 16.5 47l78 123q35 53 67.5 71.5t90.5 18.5t90.5 -18.5t67.5 -71.5l79 -123q23 -35 17 -47t-49 -12h-23q-43 0 -65.5 12.5t-42.5 48.5l-31 50q-21 34 -43 34t-43 -34l-31 -50q-20 -36 -42.5 -48.5t-65.5 -12.5h-21q-43 0 -49.5 12z" />
<glyph unicode="&#x2dc;" horiz-adv-x="1001" d="M162 1604q18 206 205 206q72 0 161 -59t119 -59q61 0 64 57q3 51 61 51h16q31 0 44 -10.5t12 -34.5q-15 -207 -203 -207q-75 0 -166 60q-89 59 -117 59q-59 0 -65 -68q-4 -25 -16 -32.5t-44 -7.5h-16q-35 0 -46 9t-9 36z" />
<glyph unicode="&#x2000;" horiz-adv-x="907" />
<glyph unicode="&#x2001;" horiz-adv-x="1815" />
<glyph unicode="&#x2002;" horiz-adv-x="907" />
<glyph unicode="&#x2003;" horiz-adv-x="1815" />
<glyph unicode="&#x2004;" horiz-adv-x="605" />
<glyph unicode="&#x2005;" horiz-adv-x="453" />
<glyph unicode="&#x2006;" horiz-adv-x="302" />
<glyph unicode="&#x2007;" horiz-adv-x="302" />
<glyph unicode="&#x2008;" horiz-adv-x="226" />
<glyph unicode="&#x2009;" horiz-adv-x="363" />
<glyph unicode="&#x200a;" horiz-adv-x="100" />
<glyph unicode="&#x2010;" horiz-adv-x="819" d="M53 645v23q0 44 17 60.5t61 16.5h557q44 0 61 -16.5t17 -60.5v-23q0 -46 -16.5 -62t-61.5 -16h-557q-45 0 -61.5 16t-16.5 62z" />
<glyph unicode="&#x2011;" horiz-adv-x="819" d="M53 645v23q0 44 17 60.5t61 16.5h557q44 0 61 -16.5t17 -60.5v-23q0 -46 -16.5 -62t-61.5 -16h-557q-45 0 -61.5 16t-16.5 62z" />
<glyph unicode="&#x2012;" horiz-adv-x="819" d="M53 645v23q0 44 17 60.5t61 16.5h557q44 0 61 -16.5t17 -60.5v-23q0 -46 -16.5 -62t-61.5 -16h-557q-45 0 -61.5 16t-16.5 62z" />
<glyph unicode="&#x2013;" horiz-adv-x="944" d="M-10 645v23q0 45 15.5 61t62.5 16h809q44 0 60.5 -16.5t16.5 -60.5v-23q0 -47 -16 -62.5t-61 -15.5h-809q-47 0 -62.5 15.5t-15.5 62.5z" />
<glyph unicode="&#x2014;" horiz-adv-x="1908" d="M-10 645v23q0 45 15.5 61t62.5 16h1771q44 0 61 -16.5t17 -60.5v-23q0 -46 -16.5 -62t-61.5 -16h-1771q-47 0 -62.5 15.5t-15.5 62.5z" />
<glyph unicode="&#x2018;" horiz-adv-x="438" d="M113 1098q0 62 55 184q66 139 106 203q19 36 48 26l6 -2q26 -9 26 -43q0 -80 -6 -163q-21 -314 -143 -314q-43 0 -67.5 29.5t-24.5 79.5z" />
<glyph unicode="&#x2019;" horiz-adv-x="438" d="M84 1040q0 82 6 164q21 314 143 314q43 0 68 -29.5t25 -79.5q0 -62 -58 -184q-59 -131 -104 -203q-19 -36 -47 -27l-6 2q-27 9 -27 43z" />
<glyph unicode="&#x201a;" horiz-adv-x="438" d="M84 -242q0 82 6 164q21 314 143 314q43 0 68 -29.5t25 -79.5q0 -62 -58 -184q-59 -131 -104 -203q-19 -36 -47 -27l-6 2q-27 9 -27 43z" />
<glyph unicode="&#x201c;" horiz-adv-x="813" d="M113 1098q0 62 55 184q66 139 106 203q19 36 48 26l6 -2q26 -9 26 -43q0 -80 -6 -163q-21 -314 -143 -314q-43 0 -67.5 29.5t-24.5 79.5zM487 1098q0 60 56 184q66 139 106 203q19 35 47 26l6 -2q27 -9 27 -43q0 -80 -6 -163q-21 -314 -143 -314q-43 0 -68 29.5t-25 79.5 z" />
<glyph unicode="&#x201d;" horiz-adv-x="813" d="M84 1040q0 82 6 164q21 314 143 314q43 0 68 -29.5t25 -79.5q0 -62 -58 -184q-59 -131 -104 -203q-19 -36 -47 -27l-6 2q-27 9 -27 43zM459 1040q0 82 6 164q21 314 143 314q43 0 67.5 -29.5t24.5 -79.5q0 -64 -57 -184q-59 -131 -104 -203q-19 -36 -47 -27l-7 2 q-26 9 -26 43z" />
<glyph unicode="&#x201e;" horiz-adv-x="806" d="M84 -242q0 82 6 164q21 314 143 314q43 0 68 -29.5t25 -79.5q0 -62 -58 -184q-59 -131 -104 -203q-19 -36 -47 -27l-6 2q-27 9 -27 43zM453 -242q0 82 6 164q21 314 143 314q43 0 67.5 -29.5t24.5 -79.5q0 -64 -57 -184q-56 -125 -105 -203q-19 -36 -47 -27l-6 2 q-26 9 -26 43z" />
<glyph unicode="&#x2022;" horiz-adv-x="618" d="M78 641q0 93 63 162t168 69q101 0 164 -69q66 -72 66 -162q0 -94 -66 -161.5t-164 -67.5q-101 0 -166 67t-65 162z" />
<glyph unicode="&#x2026;" horiz-adv-x="1472" d="M95 112.5q0 56.5 38 94.5t94.5 38t94.5 -38t38 -94.5t-38 -94.5t-94.5 -38t-94.5 38t-38 94.5zM602 113q0 56 39 94.5t96 38.5q55 0 94 -39t39 -94t-39 -94t-94 -39q-57 0 -96 38.5t-39 94.5zM1112 113q0 55 39 94t94 39q57 0 96 -38.5t39 -94.5t-39 -94.5t-96 -38.5 q-55 0 -94 39t-39 94z" />
<glyph unicode="&#x202f;" horiz-adv-x="363" />
<glyph unicode="&#x2039;" horiz-adv-x="649" d="M59 512q0 58 60 127l188 229q33 39 61 52.5t81 13.5h24q53 0 58.5 -12.5t-27.5 -53.5l-246 -301q-29 -32 -29 -55q0 -18 29 -55l246 -301q33 -41 27.5 -53.5t-58.5 -12.5h-24q-53 0 -81 13.5t-61 52.5l-188 229q-60 69 -60 127z" />
<glyph unicode="&#x203a;" horiz-adv-x="649" d="M122 102.5q-5 12.5 28 53.5l245 301q29 35 29 55t-29 55l-245 301q-33 41 -28 53.5t58 12.5h25q53 0 80.5 -13.5t60.5 -52.5l189 -229q59 -71 59 -127q0 -53 -59 -127l-189 -229q-33 -39 -60.5 -52.5t-80.5 -13.5h-25q-53 0 -58 12.5z" />
<glyph unicode="&#x205f;" horiz-adv-x="453" />
<glyph unicode="&#x20ac;" horiz-adv-x="1169" d="M37 508v20q0 38 12.5 51t50.5 13h103v145h-103q-38 0 -50.5 13t-12.5 51v20q0 38 12.5 51t50.5 13h107q38 465 530 465q139 0 242 -33q51 -17 65.5 -39.5t6.5 -73.5l-4 -18q-10 -51 -30.5 -63.5t-70.5 -0.5q-95 27 -209 27q-145 0 -219.5 -62.5t-87.5 -201.5h485 q38 0 48.5 -12.5t3.5 -49.5l-6 -24q-11 -37 -25.5 -49.5t-52.5 -12.5h-457v-145h422q38 0 48.5 -12.5t2.5 -49.5l-6 -24q-8 -37 -23 -49.5t-53 -12.5h-389q11 -137 84.5 -200.5t232.5 -63.5q140 0 238 33q49 16 68.5 1t19.5 -67v-30q0 -50 -16 -69.5t-68 -37.5 q-103 -33 -244 -33q-260 0 -393 109.5t-145 357.5h-105q-38 0 -50.5 13t-12.5 51z" />
<glyph unicode="&#x2122;" horiz-adv-x="1826" d="M59 1227v22q0 38 13 51t51 13h539q38 0 50.5 -13t12.5 -51v-22q0 -38 -12.5 -51t-50.5 -13h-187v-583q0 -43 -14.5 -57.5t-57.5 -14.5h-22q-43 0 -57.5 14.5t-14.5 57.5v583h-186q-38 0 -51 13t-13 51zM864 580v624q0 57 25 83t82 26h65q107 0 142 -133l120 -459l129 485 q12 61 47 84t111 23h31q106 0 106 -109v-624q0 -43 -14 -57.5t-57 -14.5h-23q-43 0 -57.5 14.5t-14.5 57.5v591l-159 -573q-11 -42 -34 -60t-67 -18q-79 0 -100 78l-166 573v-591q0 -43 -14.5 -57.5t-57.5 -14.5h-22q-43 0 -57.5 14.5t-14.5 57.5z" />
<glyph unicode="&#x25fc;" horiz-adv-x="1013" d="M0 0v1014h1014v-1014h-1014z" />
<glyph unicode="&#xfb01;" horiz-adv-x="1280" d="M29 891v20q0 43 14 59.5t55 24.5l109 21v119q0 188 93.5 271t274.5 83q57 0 101 -8q55 -11 71.5 -29.5t16.5 -71.5v-24q0 -51 -17 -65t-71 -7q-61 6 -86 6q-174 0 -174 -139v-135h272q54 0 70 -16t16 -70v-25q0 -54 -16 -70t-70 -16h-272v-727q0 -56 -18 -74t-74 -18h-25 q-55 0 -73.5 18t-18.5 74v727h-107q-43 0 -57 14.5t-14 57.5zM912 1328.5q0 53.5 38 90.5q38 38 92 38t91 -38q38 -37 38 -90.5t-38 -91.5q-37 -37 -91 -37t-92 37q-38 38 -38 91.5zM936 92v832q0 56 18 74t74 18h27q55 0 73.5 -18t18.5 -74v-832q0 -56 -18.5 -74t-73.5 -18 h-27q-56 0 -74 18t-18 74z" />
<glyph unicode="&#xfb02;" horiz-adv-x="1323" d="M29 891v20q0 43 14 59.5t55 24.5l109 21v119q0 188 93.5 271t274.5 83q57 0 101 -8q55 -11 71.5 -29.5t16.5 -71.5v-24q0 -51 -17 -65t-71 -7q-61 6 -86 6q-174 0 -174 -139v-135h272q54 0 70 -16t16 -70v-25q0 -54 -16 -70t-70 -16h-272v-727q0 -56 -18 -74t-74 -18h-25 q-55 0 -73.5 18t-18.5 74v727h-107q-43 0 -57 14.5t-14 57.5zM915 287v1054q0 55 18.5 74t74.5 19h26q55 0 73.5 -18.5t18.5 -74.5v-1013q0 -80 23 -113t74 -33t64 -14t13 -68v-20q0 -50 -15.5 -66.5t-67.5 -27.5q-8 -2 -29 -2q-127 0 -200 76t-73 227z" />
</font>
</defs>
</svg>
