<?xml version="1.0" standalone="no"?>
<!DOCTYPE svg PUBLIC "-//W3C//DTD SVG 1.1//EN" "http://www.w3.org/Graphics/SVG/1.1/DTD/svg11.dtd" >
<svg xmlns="http://www.w3.org/2000/svg" xmlns:xlink="http://www.w3.org/1999/xlink" version="1.1">
<metadata></metadata>
<defs>
<font id="amplesoftextralight" horiz-adv-x="1232" >
<font-face units-per-em="2048" ascent="1569" descent="-479" />
<missing-glyph horiz-adv-x="614" />
<glyph horiz-adv-x="0" />
<glyph horiz-adv-x="682" />
<glyph unicode=" "  horiz-adv-x="614" />
<glyph unicode="&#x09;" horiz-adv-x="614" />
<glyph unicode="&#xa0;" horiz-adv-x="614" />
<glyph unicode="!" horiz-adv-x="475" d="M166 63.5q0 31.5 20 51.5t51.5 20t51.5 -20t20 -51.5t-20 -51.5t-51.5 -20t-51.5 20t-20 51.5zM201 819v477q0 23 6 29t29 6h8q23 0 29 -6t6 -29v-477q0 -335 -13 -504q-3 -26 -22 -26h-8q-20 0 -23 26q-12 156 -12 504z" />
<glyph unicode="&#x22;" horiz-adv-x="456" d="M92 1077v379q0 25 25 25h8q25 0 25 -25v-379q0 -16 -5 -20t-20 -4h-8q-15 0 -20 4t-5 20zM307 1077v379q0 15 4.5 20t20.5 5h8q16 0 20.5 -5t4.5 -20v-379q0 -17 -4 -20.5t-21 -3.5h-8q-17 0 -21 3.5t-4 20.5z" />
<glyph unicode="#" horiz-adv-x="1275" d="M74 373v10q0 19 5.5 25t24.5 6h209l125 504h-241q-19 0 -25 5.5t-6 24.5v10q0 19 6 25t25 6h260l78 309q5 20 12.5 26.5t27.5 6.5h11q20 0 24.5 -6.5t-0.5 -26.5l-78 -309h375l78 309q4 20 12.5 26.5t28.5 6.5h10q20 0 25 -6.5t0 -26.5l-78 -309h188q19 0 25 -6t6 -25 v-10q0 -19 -6 -24.5t-25 -5.5h-206l-125 -504h239q19 0 25 -6t6 -25v-10q0 -19 -6 -25t-25 -6h-258l-76 -309q-5 -20 -12.5 -26.5t-27.5 -6.5h-11q-20 0 -24.5 6.5t0.5 26.5l75 309h-374l-76 -309q-4 -20 -12.5 -26.5t-28.5 -6.5h-10q-20 0 -25 6.5t0 26.5l76 309h-191 q-19 0 -24.5 6t-5.5 25zM389 414h375l125 504h-375z" />
<glyph unicode="$" horiz-adv-x="989" d="M104 94v10q0 23 7.5 26.5t27.5 -7.5q123 -57 328 -57q175 0 258.5 50.5t83.5 164.5q0 63 -24.5 111.5t-65 84.5t-115.5 86l-293 193q-99 66 -148.5 136.5t-49.5 174.5q0 257 329 272v131q0 19 6 25t25 6h8q19 0 25 -6t6 -25v-129q142 -3 281 -55q23 -7 28.5 -16t5.5 -33 v-10q0 -21 -6 -25t-26 6q-125 58 -308 58q-158 0 -228.5 -48.5t-70.5 -152.5q0 -83 38.5 -137t127.5 -113l295 -197q125 -81 180.5 -153.5t55.5 -181.5q0 -138 -98 -211.5t-275 -79.5v-131q0 -19 -6 -25t-25 -6h-8q-19 0 -25 6t-6 25v129q-178 3 -303 55q-35 15 -35 49z" />
<glyph unicode="%" horiz-adv-x="1443" d="M113 1022q0 321 284 321q285 0 285 -321q0 -322 -285 -322q-284 0 -284 322zM184 1022q0 -137 49 -195q53 -59 164 -59q112 0 162 59q51 57 51 195t-51 195q-50 59 -162 59q-111 0 -164 -59q-49 -58 -49 -195zM348 6q-4 6 6 25l658 1269q16 31 51 31h10q21 0 25 -6 t-6 -25l-660 -1269q-16 -31 -51 -31h-8q-21 0 -25 6zM762 309q0 322 285 322q284 0 284 -322q0 -321 -284 -321q-285 0 -285 321zM834 309q0 -136 49 -194q54 -60 164 -60t161 60q52 58 52 194q0 137 -52 195q-50 59 -161 59t-164 -59q-49 -58 -49 -195z" />
<glyph unicode="&#x26;" horiz-adv-x="1206" d="M135 348q0 150 74.5 241t208.5 116q-119 20 -178.5 97.5t-59.5 201.5q0 178 98.5 261t303.5 83q95 0 182 -19q19 -5 25 -11.5t6 -25.5v-14q0 -19 -6 -23.5t-25 0.5q-92 21 -180 21q-328 0 -328 -268q0 -136 72.5 -203.5t244.5 -67.5h359v154q0 20 6.5 26.5t26.5 6.5h10 q20 0 26.5 -6.5t6.5 -26.5v-154h131q17 0 22.5 -5.5t5.5 -22.5v-11q0 -17 -5.5 -22.5t-22.5 -5.5h-131v-230q0 -456 -428 -456q-180 0 -301 63q-68 37 -106 114.5t-38 186.5zM213 350q0 -147 78 -221q107 -77 291 -74q74 0 125.5 13t105.5 47q119 77 119 325v230h-359 q-180 0 -270 -73.5t-90 -246.5z" />
<glyph unicode="'" horiz-adv-x="241" d="M92 1077v379q0 25 25 25h8q25 0 25 -25v-379q0 -16 -5 -20t-20 -4h-8q-15 0 -20 4t-5 20z" />
<glyph unicode="(" horiz-adv-x="612" d="M125 512q0 587 385 948q14 14 33 -2l8 -8q18 -15 2 -31q-167 -156 -265 -389t-98 -518q0 -299 101 -528q102 -231 260 -377q20 -17 0 -33l-8 -8q-22 -15 -37 0q-381 366 -381 946z" />
<glyph unicode=")" horiz-adv-x="612" d="M76 1419q-16 16 2 31l8 8q19 16 33 2q385 -361 385 -948q0 -580 -381 -946q-15 -15 -37 0l-8 8q-20 16 0 33q155 143 258 377q102 231 102 528q0 286 -97.5 518.5t-264.5 388.5z" />
<glyph unicode="*" horiz-adv-x="909" d="M106 1212l3 9q3 25 28 16l293 -94v307q0 16 5 20.5t20 4.5h8q14 0 19 -4.5t5 -20.5v-305l295 94q21 9 31 -14l4 -13q4 -14 1 -18.5t-17 -9.5l-295 -94l182 -250q14 -20 -4 -35l-8 -6q-19 -16 -35 6l-182 250l-180 -248q-16 -22 -35 -6l-6 4q-23 16 -7 35l181 247l-291 95 q-21 6 -15 30z" />
<glyph unicode="+" horiz-adv-x="1126" d="M125 631v8q0 27 27 27h378v376q0 17 6 23t23 6h8q17 0 23 -6t6 -23v-376h379q26 0 26 -27v-8q0 -27 -26 -27h-379v-377q0 -17 -6 -22.5t-23 -5.5h-8q-17 0 -23 5.5t-6 22.5v377h-378q-27 0 -27 27z" />
<glyph unicode="," horiz-adv-x="348" d="M66 -248q15 89 34 168q28 120 41 154q21 61 62 61q20 0 32.5 -15t12.5 -38q0 -33 -58 -158q-59 -136 -88 -186q-9 -16 -24 -10t-12 24z" />
<glyph unicode="-" horiz-adv-x="700" d="M47 631v8q0 27 27 27h553q26 0 26 -27v-8q0 -27 -26 -27h-553q-27 0 -27 27z" />
<glyph unicode="." horiz-adv-x="364" d="M111 63.5q0 31.5 20 51.5t51 20t51 -20t20 -51.5t-20 -51.5t-51 -20t-51 20t-20 51.5z" />
<glyph unicode="/" horiz-adv-x="524" d="M-6.5 -55.5q-3.5 5.5 2.5 22.5l471 1479q10 29 41 29h8q19 0 23 -6t-2 -23l-471 -1479q-9 -28 -41 -28h-9q-19 0 -22.5 5.5z" />
<glyph unicode="0" horiz-adv-x="1089" d="M104 461v405q0 255 105.5 368.5t335.5 113.5q233 0 336.5 -112.5t103.5 -369.5v-405q0 -253 -104 -365t-336 -112q-230 0 -335.5 112.5t-105.5 364.5zM184 461q0 -219 86.5 -312.5t274.5 -93.5q191 0 275.5 93t84.5 313v405q0 219 -86 314.5t-274 95.5q-187 0 -274 -96 t-87 -314v-405z" />
<glyph unicode="1" horiz-adv-x="610" d="M41 1077l143 183q70 88 160 88q75 0 108 -45t33 -154v-1116q0 -20 -6 -26.5t-26 -6.5h-11q-20 0 -26 6.5t-6 26.5v1081q0 104 -11 133t-59 29q-52 0 -104 -70l-142 -180q-20 -26 -45 -4l-6 6q-23 23 -2 49z" />
<glyph unicode="2" horiz-adv-x="962" d="M74 162q0 117 123 219l407 336q98 80 138 149t40 150q0 133 -78.5 196.5t-254.5 63.5q-187 0 -318 -64q-17 -8 -24 -5.5t-7 20.5v20q0 27 31 43q137 58 324 58q403 0 403 -324q0 -187 -201 -358l-411 -344q-96 -81 -96 -158q0 -92 145 -92h532q19 0 25 -6t6 -25v-10 q0 -19 -6 -25t-25 -6h-532q-108 0 -164.5 43.5t-56.5 118.5z" />
<glyph unicode="3" horiz-adv-x="946" d="M57 63v17q0 19 6 22.5t25 -2.5q145 -45 334 -45q192 0 273 74t81 233q0 136 -83 216.5t-249 80.5h-67q-19 0 -25 6t-6 25v10q0 19 6 25t25 6h67q171 0 241.5 66t70.5 200q0 143 -75 211t-259 68q-154 0 -311 -49q-19 -6 -25 -2.5t-6 22.5v21q0 30 31 39q158 41 311 41 q219 0 314 -86.5t95 -264.5q0 -123 -49 -194.5t-153 -110.5q104 -24 163.5 -109.5t59.5 -220.5q0 -378 -430 -378q-182 0 -334 41q-31 9 -31 38z" />
<glyph unicode="4" horiz-adv-x="940" d="M160 612l229 686q6 20 15 26.5t30 6.5h8q21 0 26 -6.5t-1 -26.5l-242 -733q-31 -94 0 -135t133 -41h451v582q0 20 6.5 26.5t26.5 6.5h10q20 0 26.5 -6.5t6.5 -26.5v-938q0 -20 -6.5 -26.5t-26.5 -6.5h-10q-20 0 -26.5 6.5t-6.5 26.5v284h-428q-162 0 -217 72t-4 223z" />
<glyph unicode="5" horiz-adv-x="940" d="M74 68v18q0 19 5.5 22.5t24.5 -2.5q143 -47 334 -47q192 0 272.5 75t80.5 235q0 168 -86.5 232.5t-292.5 64.5h-111q-109 0 -157 47.5t-48 156.5v256q0 107 48.5 156t156.5 49h473q19 0 25 -6t6 -25v-10q0 -19 -6 -24.5t-25 -5.5h-479q-65 0 -94 -29.5t-29 -93.5v-277 q0 -66 28.5 -94.5t94.5 -28.5h119q233 0 342.5 -88t109.5 -278q0 -194 -104 -288.5t-332 -94.5q-177 0 -326 41q-30 9 -30 39z" />
<glyph unicode="6" horiz-adv-x="1013" d="M104 483v414q0 235 106.5 343t348.5 108q169 0 299 -54q31 -16 31 -43v-18q0 -18 -6 -21t-23 5q-130 59 -311 59q-204 0 -286.5 -89.5t-82.5 -289.5v-160q171 47 346 47q215 0 314.5 -96t99.5 -295q0 -405 -405 -405q-232 0 -331.5 121.5t-99.5 373.5zM180 483 q0 -210 76 -317t285 -107q171 0 247 78.5t76 251.5q0 171 -79.5 247.5t-262.5 76.5q-194 0 -342 -45v-185z" />
<glyph unicode="7" horiz-adv-x="960" d="M53 1290v10q0 19 6 25t25 6h516q240 0 240 -172q0 -76 -62 -209l-434 -919q-16 -31 -49 -31h-12q-20 0 -24.5 6t3.5 25l447 948q57 117 57 180q0 54 -38.5 77.5t-125.5 23.5h-518q-19 0 -25 5.5t-6 24.5z" />
<glyph unicode="8" horiz-adv-x="1073" d="M94 360q0 136 58 218t184 120q-109 41 -155 111t-46 192q0 176 93.5 261.5t308.5 85.5q214 0 307.5 -86t93.5 -261q0 -123 -43 -192.5t-147 -110.5q121 -38 176 -119.5t55 -216.5q0 -378 -447 -378q-229 0 -333.5 95t-104.5 281zM170 362q0 -161 84.5 -234t282.5 -73 t282 73t84 234q0 153 -88.5 226.5t-277.5 73.5t-278 -73.5t-89 -226.5zM211 999q0 -142 76 -206q78 -66 250 -66q171 0 247 64q78 66 78 206q0 142 -67 209q-67 70 -260 70q-188 0 -256 -68q-68 -65 -68 -209z" />
<glyph unicode="9" horiz-adv-x="1013" d="M74 942q0 406 405 406q231 0 330.5 -122t99.5 -374v-418q0 -235 -106 -342.5t-348 -107.5q-163 0 -299 53q-31 9 -31 39v18q0 19 6 23.5t23 -2.5q135 -60 311 -60q204 0 286.5 89.5t82.5 289.5v164q-133 -47 -334 -47q-225 0 -325.5 94t-100.5 297zM150 946 q0 -179 81 -251t283 -72q201 0 320 45v184q0 210 -76 317t-285 107q-171 0 -247 -78.5t-76 -251.5z" />
<glyph unicode=":" horiz-adv-x="364" d="M111 63.5q0 31.5 20 51.5t51 20t51 -20t20 -51.5t-20 -51.5t-51 -20t-51 20t-20 51.5zM111 936q0 31 20 51t51 20t51 -20t20 -51t-20 -51t-51 -20t-51 20t-20 51z" />
<glyph unicode=";" horiz-adv-x="348" d="M66 -248q15 89 34 168q28 120 41 154q21 61 62 61q20 0 32.5 -15t12.5 -38q0 -33 -58 -158q-59 -136 -88 -186q-9 -16 -24 -10t-12 24zM105 936q0 31 20 51t51 20t51 -20t20 -51t-20 -51t-51 -20t-51 20t-20 51z" />
<glyph unicode="&#x3c;" horiz-adv-x="858" d="M43 666q0 53 25 89.5t94 71.5l563 293q17 8 23 5t6 -23v-8q0 -31 -29 -47l-567 -293q-54 -28 -54 -88t54 -88l567 -289q29 -16 29 -47v-9q0 -20 -6 -23t-23 5l-563 289q-119 61 -119 162z" />
<glyph unicode="=" horiz-adv-x="1085" d="M125 424v8q0 27 27 27h782q27 0 27 -27v-8q0 -27 -27 -27h-782q-27 0 -27 27zM125 901v8q0 27 27 27h782q27 0 27 -27v-8q0 -27 -27 -27h-782q-27 0 -27 27z" />
<glyph unicode="&#x3e;" horiz-adv-x="858" d="M104 233v9q0 31 29 47l567 289q54 28 54 88t-54 88l-567 293q-29 16 -29 47v8q0 20 6 23t23 -5l563 -293q69 -35 94 -71.5t25 -89.5q0 -101 -119 -162l-563 -289q-17 -8 -23 -5t-6 23z" />
<glyph unicode="?" horiz-adv-x="780" d="M76 1266v18q0 32 35 41q84 23 184 23q198 0 294.5 -87.5t96.5 -275.5q0 -115 -51 -203q-13 -26 -62 -71q-44 -41 -65 -56l-76 -51q-94 -62 -136.5 -119.5t-49.5 -142.5q-3 -25 -27 -25h-10q-26 0 -29 25q-15 180 226 332q36 21 73 47q24 18 60 53q71 71 71 211 q0 158 -74 224.5t-233 66.5q-102 0 -197 -31q-19 -6 -24.5 -2t-5.5 23zM140 63.5q0 31.5 20 51.5t51 20t51 -20t20 -51.5t-20 -51.5t-51 -20t-51 20t-20 51.5z" />
<glyph unicode="@" horiz-adv-x="1839" d="M125 416v143q0 164 42.5 296t116 219.5t176 146.5t217.5 84.5t245 25.5q328 0 557 -174q117 -89 181 -243.5t64 -354.5v-115q0 -358 -264 -358q-86 0 -147 51.5t-84 149.5q-71 -201 -320 -201q-344 0 -344 358v115q0 169 87.5 264t269.5 95t269 -95t87 -264v-139 q0 -277 174 -277q117 0 163 75t46 226v115q0 189 -59.5 332.5t-167.5 224.5q-204 158 -512 158q-305 0 -510 -154q-106 -81 -165 -225t-59 -336v-141q0 -358 197 -522q196 -166 520 -166q263 0 445 141q15 15 30 -6l6 -8q16 -22 -2 -37q-61 -55 -186 -101q-127 -47 -293 -47 q-171 0 -307 43q-221 65 -347 239t-126 462zM629 444q0 -157 65 -229t215 -72q157 0 232 90q73 88 73 211v115q0 301 -292 301q-293 0 -293 -301v-115z" />
<glyph unicode="A" horiz-adv-x="1175" d="M55 6q-5 6 0 25l310 1081q40 142 86 188q48 48 141 48q91 0 139 -48q49 -49 88 -188l309 -1081q5 -19 0.5 -25t-24.5 -6h-12q-32 0 -41 31l-127 446h-664l-127 -446q-9 -31 -41 -31h-12q-20 0 -25 6zM281 549h622l-172 604q-20 72 -51 99.5t-88 27.5t-88 -27.5t-51 -99.5 z" />
<glyph unicode="B" horiz-adv-x="1181" d="M166 205v921q0 107 48.5 156t156.5 49h217q236 0 337 -83t101 -259q0 -146 -59.5 -217.5t-204.5 -83.5v-8q168 -7 236.5 -83.5t68.5 -234.5q0 -189 -99.5 -275.5t-338.5 -86.5h-258q-108 0 -156.5 49t-48.5 156zM242 195q0 -64 29 -93.5t94 -29.5h264q209 0 286 65 q76 67 76 221q0 156 -76 220q-76 67 -286 67h-387v-450zM242 717h346q209 0 284 63q78 66 78 209q0 97 -32 154.5t-111.5 87t-218.5 29.5h-223q-65 0 -94 -29.5t-29 -93.5v-420z" />
<glyph unicode="C" horiz-adv-x="1056" d="M125 489v328q0 277 114.5 404t364.5 127q160 0 311 -62q31 -12 31 -39v-18q0 -37 -31 -21q-160 68 -321 68q-205 0 -299 -111t-94 -348v-328q0 -223 94.5 -328.5t302.5 -105.5q202 0 338 68q31 15 31 -23v-16q0 -22 -31 -37q-135 -63 -324 -63q-252 0 -369.5 123 t-117.5 382z" />
<glyph unicode="D" horiz-adv-x="1212" d="M166 205v921q0 107 48.5 156t156.5 49h174q302 0 422 -114t120 -414v-275q0 -294 -120 -411t-422 -117h-174q-108 0 -156.5 49t-48.5 156zM242 195q0 -64 29 -93.5t94 -29.5h180q274 0 370 96q97 102 97 360v275q0 257 -99 356q-94 101 -368 101h-180q-65 0 -94 -29.5 t-29 -93.5v-942z" />
<glyph unicode="E" horiz-adv-x="1048" d="M166 205v921q0 107 48.5 156t156.5 49h563q19 0 25 -6t6 -25v-10q0 -19 -6 -24.5t-25 -5.5h-569q-65 0 -94 -29.5t-29 -93.5v-400h610q19 0 25 -5.5t6 -24.5v-11q0 -19 -6 -24.5t-25 -5.5h-610v-471q0 -64 29 -93.5t94 -29.5h569q19 0 25 -6t6 -25v-10q0 -19 -6 -25 t-25 -6h-563q-108 0 -156.5 49t-48.5 156z" />
<glyph unicode="F" horiz-adv-x="1028" d="M166 33v1093q0 107 48.5 156t156.5 49h563q19 0 25 -6t6 -25v-10q0 -19 -6 -24.5t-25 -5.5h-569q-65 0 -94 -29.5t-29 -93.5v-400h610q19 0 25 -5.5t6 -24.5v-11q0 -19 -6 -24.5t-25 -5.5h-610v-633q0 -20 -6.5 -26.5t-26.5 -6.5h-10q-20 0 -26.5 6.5t-6.5 26.5z" />
<glyph unicode="G" horiz-adv-x="1144" d="M125 489v328q0 276 124 403.5t392 127.5q181 0 332 -62q31 -12 31 -43v-18q0 -35 -31 -19q-149 70 -342 70q-225 0 -327.5 -111t-102.5 -348v-328q0 -223 104 -328.5t334 -105.5q114 0 197 17q118 24 118 153v453q0 23 6 29t29 6h6q21 0 28 -6.5t7 -28.5v-414 q0 -126 -43.5 -186t-152.5 -80q-74 -14 -181 -14q-274 0 -401 123t-127 382z" />
<glyph unicode="H" horiz-adv-x="1212" d="M166 33v1265q0 20 6.5 26.5t26.5 6.5h10q20 0 26.5 -6.5t6.5 -26.5v-561h729v561q0 20 6.5 26.5t26.5 6.5h10q20 0 26.5 -6.5t6.5 -26.5v-1265q0 -20 -6.5 -26.5t-26.5 -6.5h-10q-20 0 -26.5 6.5t-6.5 26.5v633h-729v-633q0 -20 -6.5 -26.5t-26.5 -6.5h-10 q-20 0 -26.5 6.5t-6.5 26.5z" />
<glyph unicode="I" horiz-adv-x="428" d="M176 33v1265q0 20 6.5 26.5t26.5 6.5h10q20 0 26.5 -6.5t6.5 -26.5v-1265q0 -20 -6.5 -26.5t-26.5 -6.5h-10q-20 0 -26.5 6.5t-6.5 26.5z" />
<glyph unicode="J" horiz-adv-x="428" d="M-23 -348q-15 24 7 39q109 74 157.5 197t48.5 325v1085q0 20 6.5 26.5t26.5 6.5h10q20 0 26.5 -6.5t6.5 -26.5v-1085q0 -238 -61 -369q-63 -134 -180 -215q-25 -16 -41 13z" />
<glyph unicode="K" horiz-adv-x="1034" d="M166 33v1265q0 20 6.5 26.5t26.5 6.5h10q20 0 26.5 -6.5t6.5 -26.5v-1265q0 -20 -6.5 -26.5t-26.5 -6.5h-10q-20 0 -26.5 6.5t-6.5 26.5zM356 696q0 40 22 78t83 107l364 417q26 33 72 33h10q26 0 29 -6.5t-14 -26.5l-426 -491q-66 -78 -66 -111q0 -34 66 -112l467 -551 q17 -20 14 -26.5t-29 -6.5h-10q-46 0 -72 33l-405 475q-62 71 -83.5 108.5t-21.5 79.5z" />
<glyph unicode="L" horiz-adv-x="925" d="M166 205v1093q0 20 6.5 26.5t26.5 6.5h10q20 0 26.5 -6.5t6.5 -26.5v-1103q0 -64 29 -93.5t94 -29.5h487q19 0 25 -6t6 -25v-10q0 -19 -6 -25t-25 -6h-481q-108 0 -156.5 49t-48.5 156z" />
<glyph unicode="M" horiz-adv-x="1552" d="M78 33l80 1075q10 133 60 184t147 51q89 0 136 -50.5t66 -184.5l144 -956q7 -50 22 -69.5t45 -19.5q54 0 66 89l145 956q19 134 66.5 184.5t136.5 50.5q96 0 146.5 -52t60.5 -183l80 -1075q1 -20 -5 -26.5t-26 -6.5h-10q-20 0 -26.5 6.5t-8.5 26.5l-82 1116 q-6 70 -37.5 98.5t-91.5 28.5q-52 0 -79.5 -28t-39.5 -99l-151 -997q-12 -78 -45.5 -115t-98.5 -37t-98 37t-45 115l-152 997q-12 71 -39.5 99t-78.5 28q-58 0 -88.5 -29t-36.5 -98l-86 -1116q-2 -20 -8.5 -26.5t-26.5 -6.5h-10q-20 0 -26 6.5t-5 26.5z" />
<glyph unicode="N" d="M166 33v1147q0 163 133 163q118 0 170 -143l365 -1048q19 -54 42.5 -74.5t57.5 -20.5q57 0 57 93v1148q0 20 6.5 26.5t26.5 6.5h10q20 0 26.5 -6.5t6.5 -26.5v-1146q0 -164 -133 -164q-67 0 -104.5 35t-67.5 118l-363 1039q-34 94 -98 94q-59 0 -59 -94v-1147 q0 -20 -6.5 -26.5t-26.5 -6.5h-10q-20 0 -26.5 6.5t-6.5 26.5z" />
<glyph unicode="O" d="M125 512v307q0 276 106 400q108 129 385 129t385 -129q107 -125 107 -400v-307q0 -271 -109 -401q-109 -127 -383 -127q-276 0 -385 127q-106 127 -106 401zM201 512q0 -238 84 -348q86 -109 331 -109q247 0 330 109q86 109 86 348v307q0 239 -86 348q-83 109 -330 109 q-245 0 -331 -109q-84 -110 -84 -348v-307z" />
<glyph unicode="P" horiz-adv-x="1150" d="M166 33v1093q0 107 48.5 156t156.5 49h278q248 0 342 -98q96 -101 96 -307q0 -208 -101 -307t-337 -99h-407v-487q0 -20 -6.5 -26.5t-26.5 -6.5h-10q-20 0 -26.5 6.5t-6.5 26.5zM242 592h407q214 0 287 76q76 76 76 258q0 180 -76 256q-78 78 -287 78h-284 q-65 0 -94 -29.5t-29 -93.5v-545z" />
<glyph unicode="Q" d="M125 512v307q0 276 106 400q108 129 385 129t385 -129q107 -125 107 -400v-307q0 -239 -79 -362.5t-265 -153.5l215 -217q19 -19 16.5 -26t-28.5 -7h-9q-46 0 -75 33l-197 207q-7 0 -34.5 -1t-35.5 -1q-276 0 -385 127q-106 127 -106 401zM201 512q0 -238 84 -348 q86 -109 331 -109q247 0 330 109q86 109 86 348v307q0 239 -86 348q-83 109 -330 109q-245 0 -331 -109q-84 -110 -84 -348v-307z" />
<glyph unicode="R" horiz-adv-x="1191" d="M166 33v1093q0 107 48.5 156t156.5 49h299q240 0 329 -92q88 -88 88 -283q0 -174 -70.5 -262t-244.5 -108l336 -553q12 -20 8.5 -26.5t-26.5 -6.5h-9q-39 0 -59 33l-332 549h-448v-549q0 -20 -6.5 -26.5t-26.5 -6.5h-10q-20 0 -26.5 6.5t-6.5 26.5zM242 653h428 q207 0 274 70q68 71 68 233t-70 232q-69 72 -272 72h-305q-65 0 -94 -29.5t-29 -93.5v-484z" />
<glyph unicode="S" horiz-adv-x="1042" d="M117 82v14q0 21 5.5 25.5t24.5 -2.5q142 -60 353 -60q189 0 275.5 50.5t86.5 169.5q0 103 -65 165q-33 33 -56 50t-84 57l-333 213q-57 36 -95 67q-41 36 -72.5 102t-31.5 140q0 275 393 275q177 0 328 -56q35 -12 35 -47v-14q0 -18 -8 -21.5t-27 4.5q-131 58 -328 58 q-169 0 -243 -47.5t-74 -153.5q0 -61 24 -110q24 -44 51 -68t91 -66l335 -217q15 -10 34 -23t31.5 -21.5t20.5 -14.5q24 -16 70 -62q80 -80 80 -208q0 -297 -444 -297q-207 0 -347 57q-20 7 -25 14.5t-5 26.5z" />
<glyph unicode="T" horiz-adv-x="1107" d="M63 1290v10q0 19 6 25t25 6h920q19 0 24.5 -6t5.5 -25v-10q0 -19 -5.5 -24.5t-24.5 -5.5h-422v-1227q0 -20 -6.5 -26.5t-26.5 -6.5h-10q-20 0 -26.5 6.5t-6.5 26.5v1227h-422q-19 0 -25 5.5t-6 24.5z" />
<glyph unicode="U" horiz-adv-x="1241" d="M145 393v905q0 20 6.5 26.5t26.5 6.5h10q20 0 26.5 -6.5t6.5 -26.5v-905q0 -182 95 -260t305 -78t304.5 78t94.5 260v905q0 20 6.5 26.5t26.5 6.5h10q20 0 26.5 -6.5t6.5 -26.5v-905q0 -213 -118 -311t-357 -98t-357.5 98t-118.5 311z" />
<glyph unicode="V" horiz-adv-x="1134" d="M55 1300q-5 19 0 25t25 6h12q32 0 41 -31l299 -1122q18 -72 49.5 -99.5t89.5 -27.5t90 27.5t50 99.5l299 1122q9 31 41 31h12q20 0 24.5 -6t-0.5 -25l-288 -1081q-41 -145 -86 -190t-142 -45q-96 0 -141 45t-86 190z" />
<glyph unicode="W" horiz-adv-x="1800" d="M61 1298q-4 20 1.5 26.5t25.5 6.5h8q36 0 39 -33l199 -1120q12 -71 41.5 -99t81.5 -28q51 0 78.5 28t39.5 99l181 979q19 96 50.5 135t96.5 39t97 -39t51 -135l180 -979q12 -71 39.5 -99t79.5 -28t81.5 28t41.5 99l198 1120q3 33 39 33h8q20 0 25.5 -6.5t1.5 -26.5 l-197 -1116q-20 -109 -66.5 -153.5t-131.5 -44.5q-84 0 -129.5 44t-65.5 154l-178 977q-12 66 -27.5 88.5t-46.5 22.5t-46.5 -22.5t-27.5 -88.5l-178 -977q-20 -110 -65 -154t-129 -44q-85 0 -132 44.5t-67 153.5z" />
<glyph unicode="X" horiz-adv-x="1165" d="M87.5 6.5q-3.5 6.5 4.5 26.5l248 469q47 92 84 147q30 41 65 56q-36 13 -64.5 52.5t-84.5 147.5l-207 393q-10 20 -6 26.5t27 6.5h8q39 0 53 -33l225 -434q39 -76 67.5 -101.5t76.5 -25.5q49 0 77 26t66 101l225 434q14 33 54 33h8q23 0 27 -6.5t-7 -26.5l-207 -393 q-56 -108 -84.5 -147.5t-64.5 -52.5q36 -16 63 -56q34 -46 86 -147l248 -469q8 -20 5 -26.5t-25 -6.5h-11q-39 0 -53 33l-264 510q-42 80 -65 100q-24 27 -78 27q-52 0 -76.5 -22.5t-67.5 -104.5l-264 -510q-14 -33 -53 -33h-10q-22 0 -25.5 6.5z" />
<glyph unicode="Y" horiz-adv-x="1163" d="M45.5 1324.5q3.5 6.5 26.5 6.5h10q38 0 55 -33l289 -530q40 -75 70 -102q31 -25 88 -25q54 0 84 25.5t73 101.5l289 530q17 33 55 33h11q23 0 26 -6.5t-8 -26.5l-266 -489q-74 -136 -117 -182q-39 -45 -108 -54v-540q0 -20 -6.5 -26.5t-26.5 -6.5h-10q-20 0 -26.5 6.5 t-6.5 26.5v540q-71 9 -113 54q-42 49 -115 182l-266 489q-11 20 -7.5 26.5z" />
<glyph unicode="Z" horiz-adv-x="1085" d="M76 143q0 36 4 64q5 28 37.5 77.5t89.5 104.5l631 602q82 79 82 150q0 119 -146 119h-633q-19 0 -24.5 5.5t-5.5 24.5v10q0 19 5.5 25t24.5 6h631q103 0 162 -50t59 -136q0 -108 -121 -223l-630 -603q-92 -89 -92 -161q0 -86 106 -86h725q19 0 25 -6t6 -25v-10 q0 -19 -6 -25t-25 -6h-723q-87 0 -134.5 41t-47.5 102z" />
<glyph unicode="[" horiz-adv-x="567" d="M166 -307v1638q0 75 34 109.5t109 34.5h170q17 0 21 -4t4 -21v-8q0 -17 -4 -21t-21 -4h-168q-82 0 -82 -82v-1646q0 -82 82 -82h168q17 0 21 -4t4 -21v-8q0 -17 -4 -21t-21 -4h-170q-75 0 -109 34.5t-34 109.5z" />
<glyph unicode="\" horiz-adv-x="524" d="M-6.5 1469q3.5 6 22.5 6h9q31 0 41 -29l471 -1479q6 -17 2 -22.5t-23 -5.5h-8q-32 0 -41 28l-471 1479q-6 17 -2.5 23z" />
<glyph unicode="]" horiz-adv-x="567" d="M63 -418q0 16 5 20.5t20 4.5h168q82 0 82 82v1646q0 82 -82 82h-168q-15 0 -20 4.5t-5 20.5v8q0 16 5 20.5t20 4.5h170q75 0 109 -34.5t34 -109.5v-1638q0 -75 -34 -109.5t-109 -34.5h-170q-15 0 -20 4.5t-5 20.5v8z" />
<glyph unicode="^" horiz-adv-x="819" d="M75.5 749q-3.5 6 4.5 23l231 522q25 55 45 73.5t56 18.5q35 0 55 -18.5t45 -73.5l236 -522q7 -17 3.5 -23t-22.5 -6h-10q-30 0 -43 29l-217 488q-35 62 -47 65q-12 0 -19.5 -10t-27.5 -55l-213 -488q-13 -29 -43 -29h-11q-19 0 -22.5 6z" />
<glyph unicode="_" horiz-adv-x="921" d="M0 -76q0 27 27 27h868q27 0 27 -27v-8q0 -27 -27 -27h-868q-27 0 -27 27v8z" />
<glyph unicode="`" horiz-adv-x="442" d="M123 1788q-21 27 14 27h10q33 0 48 -27l131 -225q15 -27 -17 -27h-8q-32 0 -47 27z" />
<glyph unicode="a" horiz-adv-x="966" d="M94 276q0 153 99.5 220t320.5 67h266v156q0 122 -75.5 175.5t-231.5 53.5q-159 0 -262 -33q-17 -4 -22 0t-5 21v16q0 31 31 37q108 27 256 27q381 0 381 -297v-416q0 -171 -99 -245t-317 -74q-138 0 -239 67q-103 71 -103 225zM166 274q0 -113 73 -168t197 -55 q188 0 266 54.5t78 197.5v197h-260q-189 0 -271.5 -50.5t-82.5 -175.5z" />
<glyph unicode="b" horiz-adv-x="1110" d="M156 395v1008q0 19 5.5 25t24.5 6h11q19 0 24.5 -6t5.5 -25v-561q76 174 348 174q222 0 321 -103.5t99 -308.5v-209q0 -205 -99 -308t-321 -103t-320.5 103t-98.5 308zM227 395q0 -183 78 -263.5t270 -80.5q193 0 271 80.5t78 263.5v209q0 183 -78 263.5t-271 80.5 q-192 0 -270 -80.5t-78 -263.5v-209z" />
<glyph unicode="c" horiz-adv-x="851" d="M115 395v209q0 204 104 308t330 104q130 0 209 -39q30 -15 30 -43v-12q0 -27 -30 -15q-96 41 -207 41q-200 0 -282.5 -84.5t-82.5 -259.5v-209q0 -189 85.5 -266.5t287.5 -77.5q135 0 223 39q29 13 29 -16v-13q0 -29 -31 -41q-91 -36 -229 -36q-225 0 -330.5 98 t-105.5 313z" />
<glyph unicode="d" horiz-adv-x="1069" d="M115 395v209q0 205 99 308.5t321 103.5q272 0 348 -174v561q0 19 5.5 25t24.5 6h11q19 0 24.5 -6t5.5 -25v-1008q0 -205 -98.5 -308t-320.5 -103t-321 103t-99 308zM186 395q0 -183 78 -263.5t271 -80.5q192 0 270 80.5t78 263.5v209q0 183 -78 263.5t-270 80.5 q-193 0 -271 -80.5t-78 -263.5v-209z" />
<glyph unicode="e" horiz-adv-x="1028" d="M115 397v209q0 410 401 410q191 0 294 -97.5t103 -287.5q0 -95 -12 -162h-715v-82q0 -183 82 -259.5t273 -76.5q189 0 311 51q17 6 22 2.5t5 -20.5v-10q0 -30 -27 -39q-137 -51 -307 -51q-223 0 -326.5 97t-103.5 316zM186 537h660v94q0 317 -330 317t-330 -317v-94z" />
<glyph unicode="f" horiz-adv-x="724" d="M29 954v9q0 21 22 24l142 12v201q0 262 305 262q115 0 194 -26q27 -9 27 -37v-10q0 -17 -6 -21.5t-23 0.5q-108 27 -194 27q-115 0 -173.5 -46.5t-58.5 -148.5v-201h400q17 0 22.5 -5.5t5.5 -22.5v-10q0 -17 -5.5 -23t-22.5 -6h-400v-901q0 -19 -6 -25t-25 -6h-10 q-19 0 -24.5 6t-5.5 25v901h-142q-13 0 -17.5 4t-4.5 18z" />
<glyph unicode="g" horiz-adv-x="1003" d="M82 -154q0 161 127 238q-96 35 -96 125q0 61 45.5 98.5t126.5 38.5q-87 26 -135 105t-48 192v33q0 163 105.5 251.5t296.5 88.5q133 0 231 -49l123 110q19 16 35 0l8 -8q20 -17 0 -33l-110 -104q110 -82 110 -256v-33q0 -340 -397 -340q-196 0 -258 -18t-62 -76 q0 -54 62 -72q69 -16 258 -16q231 0 324.5 -58t93.5 -200q0 -167 -95.5 -238t-322.5 -71q-230 0 -326 69.5t-96 222.5zM154 -154q0 -129 77.5 -177t272.5 -48q191 0 268.5 50t77.5 186q0 121 -78 159q-75 37 -268 37q-132 0 -225 13q-125 -61 -125 -220zM174 643 q0 -142 73.5 -207t256.5 -65t254 65t71 207v33q0 272 -325 272q-330 0 -330 -272v-33z" />
<glyph unicode="h" horiz-adv-x="1089" d="M156 31v1372q0 19 5.5 25t24.5 6h11q19 0 24.5 -6t5.5 -25v-541q80 154 328 154q210 0 304.5 -91.5t94.5 -269.5v-624q0 -19 -5.5 -25t-24.5 -6h-11q-19 0 -24.5 6t-5.5 25v624q0 152 -74.5 222.5t-253.5 70.5q-177 0 -252.5 -67t-75.5 -211v-639q0 -19 -5.5 -25 t-24.5 -6h-11q-19 0 -24.5 6t-5.5 25z" />
<glyph unicode="i" horiz-adv-x="403" d="M145 1321q0 26 17.5 41t39 15t39 -15t17.5 -41q0 -34 -28 -48t-56.5 0t-28.5 48zM166 31v938q0 19 6 24.5t25 5.5h10q19 0 25 -5.5t6 -24.5v-938q0 -19 -6 -25t-25 -6h-10q-19 0 -25 6t-6 25z" />
<glyph unicode="j" horiz-adv-x="362" d="M-25 -377q-14 23 5 39q48 35 88 82q39 45 65.5 148.5t26.5 246.5v830q0 19 5.5 24.5t24.5 5.5h11q19 0 24.5 -5.5t5.5 -24.5v-830q0 -270 -73 -383q-33 -57 -62.5 -87.5t-77.5 -63.5q-14 -10 -21 -8t-15 16zM139 1321q0 26 17.5 41t39 15t39 -15t17.5 -41q0 -34 -28 -48 t-56.5 0t-28.5 48z" />
<glyph unicode="k" horiz-adv-x="874" d="M156 31v1310q0 19 5.5 25t24.5 6h11q19 0 24.5 -6t5.5 -25v-1310q0 -19 -5.5 -25t-24.5 -6h-11q-19 0 -24.5 6t-5.5 25zM295 530q0 41 17.5 74t68.5 80l303 287q31 28 74 28h10q26 0 28.5 -5.5t-16.5 -22.5l-374 -355q-46 -43 -46 -88q0 -42 46 -88l415 -409 q19 -19 16.5 -25t-28.5 -6h-10q-43 0 -74 31l-344 340q-86 86 -86 159z" />
<glyph unicode="l" horiz-adv-x="430" d="M145 229v1174q0 19 6 25t25 6h10q19 0 25 -6t6 -25v-1174q0 -168 115 -168q29 0 37 2q32 6 32 -24v-10q0 -27 -32 -33q-8 -2 -35 -2q-89 0 -139 57.5t-50 177.5z" />
<glyph unicode="m" horiz-adv-x="1632" d="M135 31v624q0 178 85 269.5t274 91.5q266 0 321 -199q58 199 324 199q189 0 273.5 -91.5t84.5 -269.5v-624q0 -19 -6 -25t-25 -6h-10q-19 0 -25 6t-6 25v624q0 152 -65 222.5t-221 70.5t-221.5 -70.5t-65.5 -222.5v-624q0 -19 -6 -25t-25 -6h-10q-19 0 -25 6t-6 25v624 q0 152 -65 222.5t-221 70.5t-221.5 -70.5t-65.5 -222.5v-624q0 -19 -6 -25t-25 -6h-10q-19 0 -25 6t-6 25z" />
<glyph unicode="n" horiz-adv-x="1069" d="M135 31v624q0 178 95 269.5t305 91.5t304.5 -91.5t94.5 -269.5v-624q0 -19 -6 -25t-25 -6h-10q-19 0 -25 6t-6 25v624q0 152 -74.5 222.5t-252.5 70.5q-179 0 -253.5 -70.5t-74.5 -222.5v-624q0 -19 -6 -25t-25 -6h-10q-19 0 -25 6t-6 25z" />
<glyph unicode="o" horiz-adv-x="1069" d="M115 395v209q0 205 99 308.5t321 103.5t320.5 -103.5t98.5 -308.5v-209q0 -205 -98.5 -308t-320.5 -103t-321 103t-99 308zM186 395q0 -183 78 -263.5t271 -80.5q192 0 270 80.5t78 263.5v209q0 183 -78 263.5t-270 80.5q-193 0 -271 -80.5t-78 -263.5v-209z" />
<glyph unicode="p" horiz-adv-x="1110" d="M156 -379v983q0 205 98.5 308.5t320.5 103.5t321 -103.5t99 -308.5v-209q0 -205 -99 -308t-321 -103q-272 0 -348 174v-537q0 -19 -5.5 -25t-24.5 -6h-11q-19 0 -24.5 6t-5.5 25zM227 395q0 -183 78 -263.5t270 -80.5q193 0 271 80.5t78 263.5v209q0 183 -78 263.5 t-271 80.5q-192 0 -270 -80.5t-78 -263.5v-209z" />
<glyph unicode="q" horiz-adv-x="1110" d="M115 395v209q0 205 99 308.5t321 103.5t320.5 -103.5t98.5 -308.5v-983q0 -19 -5.5 -25t-24.5 -6h-11q-19 0 -24.5 6t-5.5 25v537q-76 -174 -348 -174q-222 0 -321 103t-99 308zM186 395q0 -183 78 -263.5t271 -80.5q192 0 270 80.5t78 263.5v209q0 183 -78 263.5 t-270 80.5q-193 0 -271 -80.5t-78 -263.5v-209z" />
<glyph unicode="r" horiz-adv-x="587" d="M135 31v645q0 340 297 340q54 0 98 -8q19 -5 24 -10t5 -21v-14q0 -31 -29 -25q-45 10 -98 10q-122 0 -173.5 -66t-51.5 -206v-645q0 -19 -6 -25t-25 -6h-10q-19 0 -25 6t-6 25z" />
<glyph unicode="s" horiz-adv-x="921" d="M115 68v10q0 17 5.5 21t22.5 -1q165 -47 322 -47q139 0 204.5 36.5t65.5 121.5q0 119 -137 186l-293 146q-94 46 -134 100.5t-40 149.5q0 225 324 225q148 0 276 -49q31 -12 31 -41v-13q0 -17 -6 -19.5t-23 3.5q-128 51 -282 51q-131 0 -189.5 -35.5t-58.5 -119.5 q0 -120 127 -185l293 -145q100 -50 142 -103t42 -147q0 -119 -87 -174t-263 -55q-143 0 -314 47q-28 9 -28 37z" />
<glyph unicode="t" horiz-adv-x="772" d="M29 954v9q0 21 22 24l142 12l18 246q3 21 22 21h11q20 0 20 -21v-246h400q17 0 22.5 -5.5t5.5 -22.5v-10q0 -17 -5.5 -23t-22.5 -6h-400v-604q0 -149 57.5 -213t174.5 -64q124 0 206 31q29 13 29 -25v-10q0 -23 -31 -35q-86 -28 -202 -28q-305 0 -305 344v604h-142 q-13 0 -17.5 4t-4.5 18z" />
<glyph unicode="u" horiz-adv-x="1028" d="M115 344v625q0 19 5.5 24.5t24.5 5.5h11q19 0 24.5 -5.5t5.5 -24.5v-625q0 -152 74.5 -222.5t253.5 -70.5t253.5 70.5t74.5 222.5v625q0 19 5.5 24.5t24.5 5.5h11q19 0 24.5 -5.5t5.5 -24.5v-625q0 -178 -94.5 -269t-304.5 -91t-304.5 91t-94.5 269z" />
<glyph unicode="v" horiz-adv-x="1011" d="M75 993.5q4 5.5 23 5.5h11q29 0 38 -28l220 -789q23 -77 52.5 -104t90.5 -27t90.5 27t52.5 104l219 789q9 28 39 28h11q19 0 23 -5.5t-1 -22.5l-207 -748q-40 -142 -88 -190q-45 -45 -139 -45q-96 0 -141 45t-86 190l-207 748q-5 17 -1 22.5z" />
<glyph unicode="w" horiz-adv-x="1599" d="M80 969q-2 19 3 24.5t23 5.5h11q34 0 37 -30l137 -791q21 -131 123 -131q99 0 123 131l110 625q19 110 52.5 153t101.5 43t101 -43t52 -153l111 -625q24 -131 123 -131q102 0 123 131l139 791q1 18 9 24t28 6h10q19 0 24 -6t1 -24l-127 -750q-23 -132 -69 -183.5 t-138 -51.5q-87 0 -134.5 53t-70.5 182l-96 580q-12 82 -31 111.5t-55 29.5t-55 -29.5t-31 -111.5l-97 -580q-23 -129 -70 -182t-134 -53q-89 0 -136.5 53t-70.5 182z" />
<glyph unicode="x" horiz-adv-x="1007" d="M66.5 6q-2.5 6 9.5 25l248 381q62 96 104 116q-42 19 -106 117l-205 324q-12 19 -9.5 24.5t25.5 5.5h10q37 0 58 -30l217 -344q40 -64 88 -64t88 64l217 344q21 30 57 30h11q23 0 25.5 -5.5t-9.5 -24.5l-205 -324q-64 -98 -106 -117q43 -20 106 -116l246 -381 q12 -19 9.5 -25t-25.5 -6h-11q-35 0 -57 31l-254 395q-46 70 -92 70t-92 -70l-254 -395q-22 -31 -58 -31h-10q-23 0 -25.5 6z" />
<glyph unicode="y" horiz-adv-x="1011" d="M75 993.5q4 5.5 23 5.5h11q29 0 38 -28l240 -776q25 -78 54 -105t89 -27q61 0 93 29t51 103l198 774q9 30 39 30h11q19 0 23 -5.5t-1 -24.5l-256 -969q-53 -202 -142.5 -306t-240.5 -104q-29 0 -35 29l-2 10q-4 19 0 24t21 5q131 0 202.5 79t124.5 263l11 35 q-47 -35 -117 -35q-75 0 -119.5 50.5t-87.5 185.5l-227 735q-5 17 -1 22.5z" />
<glyph unicode="z" horiz-adv-x="946" d="M92 147q0 90 88 160l529 426q75 63 75 121q0 40 -26 59t-90 19h-504q-17 0 -23 6t-6 23v10q0 17 6 22.5t23 5.5h495q102 0 148 -34q45 -33 45 -119q0 -84 -96 -162l-537 -434q-59 -47 -59 -100q0 -82 116 -82h547q17 0 23 -6t6 -23v-10q0 -17 -6 -23t-23 -6h-544 q-187 0 -187 147z" />
<glyph unicode="{" horiz-adv-x="645" d="M63 526v9q0 24 25 24h12q92 0 140.5 84.5t48.5 243.5v307q0 154 59 227.5t187 73.5h22q17 0 21 -4t4 -21v-8q0 -17 -4 -20.5t-21 -3.5h-31q-176 0 -176 -228v-342q0 -277 -149 -338q149 -55 149 -337v-379q0 -228 176 -228h31q17 0 21 -3.5t4 -20.5v-8q0 -17 -4 -21 t-21 -4h-22q-246 0 -246 301v344q0 328 -189 328h-12q-25 0 -25 24z" />
<glyph unicode="|" horiz-adv-x="403" d="M170 -424v1872q0 27 27 27h10q26 0 26 -27v-1872q0 -27 -26 -27h-10q-27 0 -27 27z" />
<glyph unicode="}" horiz-adv-x="645" d="M63 -438q0 16 5 20t20 4h31q176 0 176 228v379q0 282 149 337q-149 61 -149 338v342q0 228 -176 228h-31q-15 0 -20 4t-5 20v8q0 16 5 20.5t20 4.5h23q128 0 186.5 -73.5t58.5 -227.5v-307q0 -159 48.5 -243.5t140.5 -84.5h12q16 0 20.5 -5t4.5 -19v-9q0 -14 -4.5 -19 t-20.5 -5h-12q-189 0 -189 -328v-344q0 -301 -245 -301h-23q-15 0 -20 4.5t-5 20.5v8z" />
<glyph unicode="~" horiz-adv-x="1060" d="M92 442q5 120 60.5 187t152.5 67q63 0 127.5 -34t110.5 -82q117 -117 213 -117q146 0 155 192q0 21 25 21h8q25 0 25 -21q-5 -120 -60.5 -187t-152.5 -67q-63 0 -127.5 34.5t-112.5 82.5q-47 49 -103.5 83t-107.5 34q-70 0 -109.5 -54.5t-45.5 -138.5q-3 -20 -25 -20h-8 q-25 0 -25 20z" />
<glyph unicode="&#xa1;" horiz-adv-x="475" d="M166 940q0 31 20 51t51.5 20t51.5 -20t20 -51t-20 -51t-51.5 -20t-51.5 20t-20 51zM197 184q0 348 12 504q3 27 22 27h9q19 0 22 -27q12 -156 12 -504v-477q0 -23 -5.5 -29t-28.5 -6h-9q-23 0 -28.5 6t-5.5 29v477z" />
<glyph unicode="&#xa2;" horiz-adv-x="837" d="M115 543v184q0 413 379 422v137q0 27 26 27h8q27 0 27 -27v-137q78 -3 164 -33q29 -10 29 -35v-12q0 -33 -29 -20q-71 32 -191 32q-189 0 -265.5 -86t-76.5 -270v-184q0 -191 79 -272t259 -81q131 0 221 33q13 4 19 -1.5t6 -22.5v-13q0 -17 -5 -22t-24 -10 q-77 -25 -186 -31v-137q0 -27 -27 -27h-8q-26 0 -26 27v137q-196 8 -287.5 108.5t-91.5 313.5z" />
<glyph unicode="&#xa3;" horiz-adv-x="958" d="M43 662v8q0 26 27 26h129v230q0 422 346 422q115 0 231 -35q31 -9 31 -37v-8q0 -34 -31 -25q-100 33 -231 33q-146 0 -208.5 -89t-62.5 -284v-207h316q26 0 26 -26v-8q0 -27 -26 -27h-316v-440q0 -64 29 -93.5t94 -29.5h447q19 0 24.5 -6t5.5 -25v-10q0 -19 -5.5 -25 t-24.5 -6h-441q-108 0 -156 49t-48 156v430h-129q-27 0 -27 27z" />
<glyph unicode="&#xa4;" d="M162 170q-18 18 0 37l276 274q-54 69 -54 153.5t54 153.5l-274 275q-18 19 0 37l6 6q18 18 37 0l274 -275q66 51 153.5 51t153.5 -51l275 277q19 18 37 0l8 -8q18 -18 0 -37l-277 -275q51 -66 51 -153.5t-51 -153.5l275 -274q18 -19 0 -37l-6 -6q-18 -18 -37 0l-275 274 q-69 -54 -153.5 -54t-153.5 54l-274 -276q-19 -18 -37 0zM444 635q0 -79 56 -135t135 -56t134.5 55.5t55.5 135.5q0 79 -55.5 134.5t-134.5 55.5q-80 0 -135.5 -55.5t-55.5 -134.5z" />
<glyph unicode="&#xa5;" horiz-adv-x="1163" d="M67 1324.5q3 6.5 25 6.5h8q40 0 54 -33l264 -534q39 -76 71.5 -101.5t94.5 -25.5t95.5 26t70.5 101l264 534q14 33 53 33h8q22 0 25.5 -6.5t-4.5 -26.5l-248 -497q-65 -127 -107 -172q-44 -47 -114 -56h319q27 0 27 -26v-8q0 -27 -27 -27h-323v-225h323q27 0 27 -27v-8 q0 -27 -27 -27h-323v-192q0 -20 -6.5 -26.5t-26.5 -6.5h-10q-20 0 -26.5 6.5t-6.5 26.5v192h-324q-26 0 -26 27v8q0 27 26 27h324v225h-324q-26 0 -26 27v8q0 26 26 26h320q-73 9 -117 56q-42 45 -107 172l-247 497q-8 20 -5 26.5z" />
<glyph unicode="&#xa6;" horiz-adv-x="395" d="M166 330q0 26 27 26h10q26 0 26 -26v-754q0 -27 -26 -27h-10q-27 0 -27 27v754zM166 737v711q0 27 27 27h10q26 0 26 -27v-711q0 -26 -26 -26h-10q-27 0 -27 26z" />
<glyph unicode="&#xa7;" horiz-adv-x="1087" d="M145 -291q0 39 33 25q132 -60 338 -60q180 0 265 46t85 149q0 85 -61 141q-33 33 -59 53t-93 66l-293 201l-98 71q-41 36 -74.5 104.5t-33.5 141.5q0 209 192 236q-55 38 -92 67q-38 35 -69 95t-31 126q0 254 381 254q177 0 317 -55q33 -14 33 -41v-14q0 -20 -8 -25.5 t-25 2.5q-119 58 -315 58q-163 0 -235.5 -44.5t-72.5 -138.5q0 -76 38 -123t136 -106l295 -184q133 -84 188.5 -151.5t55.5 -166.5q0 -114 -64 -178t-178 -72q94 -63 125 -92q48 -40 82.5 -99.5t34.5 -123.5q0 -272 -434 -272q-190 0 -330 55q-33 14 -33 41v14zM229 643 q0 -61 27 -111q17 -31 38.5 -53.5t39 -36t69.5 -49.5l230 -160q119 5 176 52t57 149q0 76 -48.5 132.5t-164.5 127.5l-241 148q-96 -7 -139.5 -56t-43.5 -143z" />
<glyph unicode="&#xa8;" horiz-adv-x="663" d="M104 1591q0 26 17.5 41t39 15t39 -15t17.5 -41q0 -34 -28.5 -48t-56.5 0t-28 48zM446 1591q0 26 17.5 41t39 15t39 -15t17.5 -41q0 -34 -28.5 -48t-56.5 0t-28 48z" />
<glyph unicode="&#xa9;" horiz-adv-x="1665" d="M125 721q0 295 207 502t499 207q295 0 502 -207t207 -502q0 -293 -207 -500t-502 -207q-292 0 -499 207t-207 500zM182 721q0 -270 191 -461q193 -190 458 -190q269 0 459 190q193 190 193 461t-193 461q-189 192 -459 192q-266 0 -458 -192q-191 -191 -191 -461z M528 612v205q0 303 326 303q113 0 190 -26q23 -10 23 -31v-8q0 -30 -27 -21q-103 25 -186 25q-140 0 -200 -61.5t-60 -180.5v-205q0 -128 65.5 -178.5t225.5 -50.5q101 0 174 25q26 9 26 -23v-10q0 -22 -26 -31q-68 -22 -174 -22q-190 0 -273.5 67.5t-83.5 222.5z" />
<glyph unicode="&#xab;" horiz-adv-x="858" d="M68 512q0 39 67 121l211 252q23 26 57 26h9q21 0 23 -4.5t-11 -21.5l-248 -301q-43 -52 -43 -72t43 -72l248 -301q13 -17 11 -21.5t-23 -4.5h-9q-34 0 -57 26l-211 252q-67 82 -67 121zM395 512q0 38 68 121l211 252q23 26 57 26h8q21 0 23.5 -4.5t-10.5 -21.5l-248 -301 q-43 -52 -43 -72t43 -72l248 -301q13 -17 10.5 -21.5t-23.5 -4.5h-8q-34 0 -57 26l-211 252q-68 83 -68 121z" />
<glyph unicode="&#xac;" horiz-adv-x="1003" d="M43 829v9q0 26 27 26h696q75 0 109 -34t34 -109v-285q0 -17 -5.5 -22.5t-22.5 -5.5h-9q-17 0 -22.5 5.5t-5.5 22.5v285q0 82 -82 82h-692q-27 0 -27 26z" />
<glyph unicode="&#xad;" horiz-adv-x="700" d="M47 631v8q0 27 27 27h553q26 0 26 -27v-8q0 -27 -26 -27h-553q-27 0 -27 27z" />
<glyph unicode="&#xae;" horiz-adv-x="1665" d="M125 721q0 295 207 502t499 207q295 0 502 -207t207 -502q0 -293 -207 -500t-502 -207q-292 0 -499 207t-207 500zM182 721q0 -270 191 -461q193 -190 458 -190q269 0 459 190q193 190 193 461t-193 461q-189 192 -459 192q-266 0 -458 -192q-191 -191 -191 -461z M584 360v574q0 92 41.5 133t132.5 41h102q130 0 188 -50t58 -159q0 -190 -197 -211l209 -328q10 -17 7.5 -21.5t-21.5 -4.5h-8q-33 0 -47 26l-207 324h-195v-324q0 -26 -26 -26h-11q-26 0 -26 26zM647 743h193q112 0 157 35.5t45 120.5q0 80 -41.5 116t-140.5 36h-110 q-54 0 -78.5 -24.5t-24.5 -78.5v-205z" />
<glyph unicode="&#xb0;" horiz-adv-x="743" d="M104 1208q0 113 76 189q78 78 193 78q110 0 188 -78t78 -189q0 -112 -78 -190q-76 -76 -188 -76q-116 0 -192.5 75.5t-76.5 190.5zM160 1208q0 -91 61.5 -152t153.5 -61q80 0 145 62q64 64 64 151q0 91 -59.5 152t-149.5 61q-93 0 -154 -61t-61 -152z" />
<glyph unicode="&#xb1;" horiz-adv-x="1126" d="M125 164v8q0 27 27 27h378v405h-378q-27 0 -27 27v8q0 27 27 27h378v376q0 17 6 23t23 6h8q17 0 23 -6t6 -23v-376h379q26 0 26 -27v-8q0 -27 -26 -27h-379v-405h379q26 0 26 -27v-8q0 -27 -26 -27h-823q-27 0 -27 27z" />
<glyph unicode="&#xb4;" horiz-adv-x="442" d="M135 1563l131 225q15 27 47 27h11q35 0 14 -27l-131 -225q-15 -27 -47 -27h-8q-32 0 -17 27z" />
<glyph unicode="&#xb5;" horiz-adv-x="1069" d="M156 -379v1348q0 19 5.5 24.5t24.5 5.5h11q19 0 24.5 -5.5t5.5 -24.5v-631q0 -158 81 -222.5t247 -64.5q174 0 251 67.5t77 227.5v623q0 19 5.5 24.5t24.5 5.5h11q19 0 24.5 -5.5t5.5 -24.5v-623q0 -222 -129 -299q-105 -63 -268 -63q-241 0 -330 133v-496 q0 -19 -5.5 -25t-24.5 -6h-11q-19 0 -24.5 6t-5.5 25z" />
<glyph unicode="&#xb6;" horiz-adv-x="1015" d="M63 995q0 160 92 248t263 88h237q106 0 155.5 -49.5t49.5 -155.5v-1259q0 -27 -26 -27h-11q-26 0 -26 27v1276q0 65 -29.5 94t-93.5 29h-193v-754q0 -110 -2 -145q-4 -68 -14 -140q-12 -83 -37 -145q-58 -150 -182 -252q-17 -14 -33 8l-6 8q-15 21 4 37q143 122 180 303 q21 105 23 156q4 86 4 170v135q-166 0 -260 101q-95 103 -95 247z" />
<glyph unicode="&#xb7;" horiz-adv-x="311" d="M84 635q0 31 20 51t51.5 20t51.5 -20t20 -51t-20 -51t-51.5 -20t-51.5 20t-20 51z" />
<glyph unicode="&#xb8;" horiz-adv-x="411" d="M70 -328q0 30 24 21q37 -12 88 -12q70 0 97.5 20.5t27.5 75.5q0 47 -21.5 63.5t-84.5 16.5q-35 0 -70 -7q-20 -4 -26.5 3.5t-0.5 27.5l46 170h57l-39 -145q201 30 201 -129q0 -81 -45 -117.5t-140 -36.5q-52 0 -90 12q-24 9 -24 29v8z" />
<glyph unicode="&#xbb;" horiz-adv-x="858" d="M98 117.5q-2 4.5 11 21.5l247 301q43 52 43 72t-43 72l-247 301q-13 17 -11 21.5t23 4.5h8q34 0 57 -26l211 -252q68 -83 68 -121t-68 -121l-211 -252q-23 -26 -57 -26h-8q-21 0 -23 4.5zM425.5 117.5q-2.5 4.5 10.5 21.5l248 301q43 52 43 72t-43 72l-248 301 q-13 17 -10.5 21.5t23.5 4.5h8q34 0 57 -26l211 -252q68 -83 68 -121t-68 -121l-211 -252q-23 -26 -57 -26h-8q-21 0 -23.5 4.5z" />
<glyph unicode="&#xbf;" horiz-adv-x="780" d="M94 18q0 115 51 203q14 28 62 72q37 34 63 53l78 53q94 62 137 120t50 143q3 24 26 24h10q26 0 29 -24q15 -181 -225 -332q-41 -23 -74 -47q-17 -12 -61 -56q-70 -70 -70 -209q0 -158 74 -224t233 -66q105 0 197 30q19 6 25 2.5t6 -22.5v-19q0 -32 -35 -41 q-80 -22 -185 -22q-198 0 -294.5 87t-96.5 275zM498 940q0 31 20 51t51.5 20t51.5 -20t20 -51t-20 -51t-51.5 -20t-51.5 20t-20 51z" />
<glyph unicode="&#xc0;" horiz-adv-x="1175" d="M55 6q-5 6 0 25l310 1081q40 142 86 188q48 48 141 48q91 0 139 -48q49 -49 88 -188l309 -1081q5 -19 0.5 -25t-24.5 -6h-12q-32 0 -41 31l-127 446h-664l-127 -446q-9 -31 -41 -31h-12q-20 0 -25 6zM281 549h622l-172 604q-20 72 -51 99.5t-88 27.5t-88 -27.5t-51 -99.5 zM416 1669q-21 27 14 27h10q32 0 47 -27l131 -225q15 -27 -16 -27h-8q-32 0 -47 27z" />
<glyph unicode="&#xc1;" horiz-adv-x="1175" d="M55 6q-5 6 0 25l310 1081q40 142 86 188q48 48 141 48q91 0 139 -48q49 -49 88 -188l309 -1081q5 -19 0.5 -25t-24.5 -6h-12q-32 0 -41 31l-127 446h-664l-127 -446q-9 -31 -41 -31h-12q-20 0 -25 6zM281 549h622l-172 604q-20 72 -51 99.5t-88 27.5t-88 -27.5t-51 -99.5 zM545 1444l131 225q15 27 47 27h10q36 0 15 -27l-132 -225q-15 -27 -47 -27h-8q-31 0 -16 27z" />
<glyph unicode="&#xc2;" horiz-adv-x="1175" d="M55 6q-5 6 0 25l310 1081q40 142 86 188q48 48 141 48q91 0 139 -48q49 -49 88 -188l309 -1081q5 -19 0.5 -25t-24.5 -6h-12q-32 0 -41 31l-127 446h-664l-127 -446q-9 -31 -41 -31h-12q-20 0 -25 6zM281 549h622l-172 604q-20 72 -51 99.5t-88 27.5t-88 -27.5t-51 -99.5 zM384.5 1431q-3.5 6 6.5 23l74 121q39 68 63 89.5t64 21.5q38 0 63 -22.5t64 -88.5l76 -121q10 -17 6.5 -23t-23.5 -6h-8q-33 0 -49 29l-70 121q-34 57 -59 57q-23 0 -57 -57l-70 -121q-16 -29 -49 -29h-8q-20 0 -23.5 6z" />
<glyph unicode="&#xc3;" horiz-adv-x="1175" d="M55 6q-5 6 0 25l310 1081q40 142 86 188q48 48 141 48q91 0 139 -48q49 -49 88 -188l309 -1081q5 -19 0.5 -25t-24.5 -6h-12q-32 0 -41 31l-127 446h-664l-127 -446q-9 -31 -41 -31h-12q-20 0 -25 6zM281 549h622l-172 604q-20 72 -51 99.5t-88 27.5t-88 -27.5t-51 -99.5 zM313 1497q12 162 142 162q63 0 149 -74q89 -74 129 -74q45 6 59.5 30.5t16.5 74.5q3 22 27 22h8q17 0 22.5 -5t3.5 -17q-6 -83 -37.5 -122.5t-103.5 -39.5q-62 0 -151 74q-86 74 -127 74q-45 -5 -59.5 -30.5t-16.5 -74.5q-3 -22 -27 -22h-8q-17 0 -23 5t-4 17z" />
<glyph unicode="&#xc4;" horiz-adv-x="1175" d="M55 6q-5 6 0 25l310 1081q40 142 86 188q48 48 141 48q91 0 139 -48q49 -49 88 -188l309 -1081q5 -19 0.5 -25t-24.5 -6h-12q-32 0 -41 31l-127 446h-664l-127 -446q-9 -31 -41 -31h-12q-20 0 -25 6zM281 549h622l-172 604q-20 72 -51 99.5t-88 27.5t-88 -27.5t-51 -99.5 zM365 1556q0 35 28 49.5t56 0t28 -49.5q0 -34 -28 -48t-56 0t-28 48zM707 1556q0 35 28 49.5t56 0t28 -49.5q0 -34 -28 -48t-56 0t-28 48z" />
<glyph unicode="&#xc5;" horiz-adv-x="1175" d="M55 6q-5 6 0 25l310 1081q40 142 86 188q48 48 141 48q91 0 139 -48q49 -49 88 -188l309 -1081q5 -19 0.5 -25t-24.5 -6h-12q-32 0 -41 31l-127 446h-664l-127 -446q-9 -31 -41 -31h-12q-20 0 -25 6zM281 549h622l-172 604q-20 72 -51 99.5t-88 27.5t-88 -27.5t-51 -99.5 zM426 1556q0 74 44.5 119t119.5 45q78 0 123 -45t45 -119q0 -73 -45 -118t-123 -45q-74 0 -119 45t-45 118zM483 1556q0 -45 29 -76.5t78 -31.5q52 0 81 31.5t29 76.5q0 51 -28 81t-82 30q-50 0 -78.5 -30.5t-28.5 -80.5z" />
<glyph unicode="&#xc6;" horiz-adv-x="1687" d="M55.5 6q-4.5 6 1.5 25l324 1065q48 151 84 190q39 45 123 45h989q19 0 25 -6t6 -25v-10q0 -19 -6 -24.5t-25 -5.5h-569q-65 0 -94 -29.5t-29 -93.5v-400h610q19 0 25 -5.5t6 -24.5v-11q0 -19 -6 -24.5t-25 -5.5h-610v-471q0 -64 29 -93.5t94 -29.5h569q19 0 25 -6t6 -25 v-10q0 -19 -6 -25t-25 -6h-563q-108 0 -156.5 49t-48.5 156v272h-541l-135 -446q-9 -31 -43 -31h-10q-20 0 -24.5 6zM289 549h520v577q0 105 39 134h-260q-47 0 -71.5 -25.5t-47.5 -97.5z" />
<glyph unicode="&#xc7;" horiz-adv-x="1056" d="M125 489v328q0 277 114.5 404t364.5 127q160 0 311 -62q31 -12 31 -39v-18q0 -37 -31 -21q-160 68 -321 68q-205 0 -299 -111t-94 -348v-328q0 -223 94.5 -328.5t302.5 -105.5q202 0 338 68q31 15 31 -23v-16q0 -22 -31 -37q-126 -60 -297 -63l-21 -78q201 30 201 -129 q0 -81 -44.5 -117.5t-139.5 -36.5q-53 0 -90 12q-25 9 -25 29v8q0 30 25 21q37 -12 88 -12q70 0 97.5 20.5t27.5 75.5q0 47 -22 63.5t-85 16.5q-34 0 -69 -7q-20 -4 -26.5 3.5t-0.5 27.5l27 103q-237 7 -347 130t-110 375z" />
<glyph unicode="&#xc8;" horiz-adv-x="1048" d="M166 205v921q0 107 48.5 156t156.5 49h563q19 0 25 -6t6 -25v-10q0 -19 -6 -24.5t-25 -5.5h-569q-65 0 -94 -29.5t-29 -93.5v-400h610q19 0 25 -5.5t6 -24.5v-11q0 -19 -6 -24.5t-25 -5.5h-610v-471q0 -64 29 -93.5t94 -29.5h569q19 0 25 -6t6 -25v-10q0 -19 -6 -25 t-25 -6h-563q-108 0 -156.5 49t-48.5 156zM418 1669q-21 27 14 27h10q32 0 47 -27l132 -225q15 -27 -17 -27h-8q-32 0 -47 27z" />
<glyph unicode="&#xc9;" horiz-adv-x="1048" d="M166 205v921q0 107 48.5 156t156.5 49h563q19 0 25 -6t6 -25v-10q0 -19 -6 -24.5t-25 -5.5h-569q-65 0 -94 -29.5t-29 -93.5v-400h610q19 0 25 -5.5t6 -24.5v-11q0 -19 -6 -24.5t-25 -5.5h-610v-471q0 -64 29 -93.5t94 -29.5h569q19 0 25 -6t6 -25v-10q0 -19 -6 -25 t-25 -6h-563q-108 0 -156.5 49t-48.5 156zM485 1444l131 225q15 27 48 27h10q35 0 14 -27l-131 -225q-15 -27 -47 -27h-8q-32 0 -17 27z" />
<glyph unicode="&#xca;" horiz-adv-x="1048" d="M166 205v921q0 107 48.5 156t156.5 49h563q19 0 25 -6t6 -25v-10q0 -19 -6 -24.5t-25 -5.5h-569q-65 0 -94 -29.5t-29 -93.5v-400h610q19 0 25 -5.5t6 -24.5v-11q0 -19 -6 -24.5t-25 -5.5h-610v-471q0 -64 29 -93.5t94 -29.5h569q19 0 25 -6t6 -25v-10q0 -19 -6 -25 t-25 -6h-563q-108 0 -156.5 49t-48.5 156zM357.5 1433q-3.5 6 7.5 23l73 121q39 68 63 89.5t64 21.5q38 0 63 -22.5t64 -88.5l76 -121q11 -17 7.5 -23t-23.5 -6h-9q-33 0 -49 29l-69 121q-34 57 -60 57q-23 0 -57 -57l-70 -121q-16 -29 -49 -29h-8q-20 0 -23.5 6z" />
<glyph unicode="&#xcb;" horiz-adv-x="1048" d="M166 205v921q0 107 48.5 156t156.5 49h563q19 0 25 -6t6 -25v-10q0 -19 -6 -24.5t-25 -5.5h-569q-65 0 -94 -29.5t-29 -93.5v-400h610q19 0 25 -5.5t6 -24.5v-11q0 -19 -6 -24.5t-25 -5.5h-610v-471q0 -64 29 -93.5t94 -29.5h569q19 0 25 -6t6 -25v-10q0 -19 -6 -25 t-25 -6h-563q-108 0 -156.5 49t-48.5 156zM338 1556q0 26 17.5 41t39 15t39 -15t17.5 -41q0 -34 -28.5 -48t-56.5 0t-28 48zM680 1556q0 26 17.5 41t39 15t39 -15t17.5 -41q0 -34 -28.5 -48t-56.5 0t-28 48z" />
<glyph unicode="&#xcc;" horiz-adv-x="428" d="M37 1669q-21 27 14 27h10q33 0 48 -27l131 -225q15 -27 -17 -27h-8q-32 0 -47 27zM178 33v1265q0 20 6.5 26.5t26.5 6.5h10q20 0 26.5 -6.5t6.5 -26.5v-1265q0 -20 -6.5 -26.5t-26.5 -6.5h-10q-20 0 -26.5 6.5t-6.5 26.5z" />
<glyph unicode="&#xcd;" horiz-adv-x="428" d="M182 33v1265q0 20 6.5 26.5t26.5 6.5h10q20 0 26.5 -6.5t6.5 -26.5v-1265q0 -20 -6.5 -26.5t-26.5 -6.5h-10q-20 0 -26.5 6.5t-6.5 26.5zM193 1444l131 225q15 27 47 27h10q35 0 14 -27l-131 -225q-15 -27 -47 -27h-8q-31 0 -16 27z" />
<glyph unicode="&#xce;" horiz-adv-x="428" d="M9.5 1433q-3.5 6 6.5 23l74 121q39 68 63 89.5t64 21.5q38 0 63 -22.5t64 -88.5l76 -121q10 -17 6.5 -23t-23.5 -6h-8q-33 0 -49 29l-70 121q-34 57 -59 57q-23 0 -57 -57l-70 -121q-16 -29 -49 -29h-8q-20 0 -23.5 6zM178 33v1265q0 20 6.5 26.5t26.5 6.5h10 q20 0 26.5 -6.5t6.5 -26.5v-1265q0 -20 -6.5 -26.5t-26.5 -6.5h-10q-20 0 -26.5 6.5t-6.5 26.5z" />
<glyph unicode="&#xcf;" horiz-adv-x="428" d="M-10 1556q0 35 28 49.5t56 0t28 -49.5q0 -34 -28 -48t-56 0t-28 48zM176 33v1265q0 20 6.5 26.5t26.5 6.5h10q20 0 26.5 -6.5t6.5 -26.5v-1265q0 -20 -6.5 -26.5t-26.5 -6.5h-10q-20 0 -26.5 6.5t-6.5 26.5zM332 1556q0 35 28 49.5t56 0t28 -49.5q0 -34 -28 -48t-56 0 t-28 48z" />
<glyph unicode="&#xd0;" horiz-adv-x="1171" d="M31 662v8q0 26 26 26h109v430q0 107 48.5 156t156.5 49h174q302 0 422 -114t120 -414v-275q0 -294 -120 -411t-422 -117h-174q-108 0 -156.5 49t-48.5 156v430h-109q-26 0 -26 27zM242 195q0 -64 29 -93.5t94 -29.5h180q274 0 370 96q97 102 97 360v275q0 257 -99 356 q-94 101 -368 101h-180q-65 0 -94 -29.5t-29 -93.5v-441h204q27 0 27 -26v-8q0 -27 -27 -27h-204v-440z" />
<glyph unicode="&#xd1;" d="M166 33v1147q0 163 133 163q118 0 170 -143l365 -1048q19 -54 42.5 -74.5t57.5 -20.5q57 0 57 93v1148q0 20 6.5 26.5t26.5 6.5h10q20 0 26.5 -6.5t6.5 -26.5v-1146q0 -164 -133 -164q-67 0 -104.5 35t-67.5 118l-363 1039q-34 94 -98 94q-59 0 -59 -94v-1147 q0 -20 -6.5 -26.5t-26.5 -6.5h-10q-20 0 -26.5 6.5t-6.5 26.5zM326 1497q12 162 141 162q63 0 149 -74q89 -74 129 -74q45 6 59.5 30.5t16.5 74.5q3 22 27 22h8q17 0 23 -5t4 -17q-6 -82 -38 -122t-104 -40q-62 0 -151 74q-86 74 -127 74q-45 -5 -59.5 -30.5t-16.5 -74.5 q-3 -22 -27 -22h-8q-17 0 -22.5 5t-3.5 17z" />
<glyph unicode="&#xd2;" d="M125 512v307q0 276 106 400q108 129 385 129t385 -129q107 -125 107 -400v-307q0 -271 -109 -401q-109 -127 -383 -127q-276 0 -385 127q-106 127 -106 401zM201 512q0 -238 84 -348q86 -109 331 -109q247 0 330 109q86 109 86 348v307q0 239 -86 348q-83 109 -330 109 q-245 0 -331 -109q-84 -110 -84 -348v-307zM481 1669q-21 27 15 27h10q32 0 47 -27l131 -225q15 -27 -16 -27h-9q-32 0 -47 27z" />
<glyph unicode="&#xd3;" d="M125 512v307q0 276 106 400q108 129 385 129t385 -129q107 -125 107 -400v-307q0 -271 -109 -401q-109 -127 -383 -127q-276 0 -385 127q-106 127 -106 401zM201 512q0 -238 84 -348q86 -109 331 -109q247 0 330 109q86 109 86 348v307q0 239 -86 348q-83 109 -330 109 q-245 0 -331 -109q-84 -110 -84 -348v-307zM588 1444l131 225q15 27 47 27h10q36 0 15 -27l-132 -225q-15 -27 -47 -27h-8q-31 0 -16 27z" />
<glyph unicode="&#xd4;" d="M125 512v307q0 276 106 400q108 129 385 129t385 -129q107 -125 107 -400v-307q0 -271 -109 -401q-109 -127 -383 -127q-276 0 -385 127q-106 127 -106 401zM201 512q0 -238 84 -348q86 -109 331 -109q247 0 330 109q86 109 86 348v307q0 239 -86 348q-83 109 -330 109 q-245 0 -331 -109q-84 -110 -84 -348v-307zM398.5 1433q-3.5 6 7.5 23l73 121q39 68 63 89.5t64 21.5q38 0 63 -22.5t64 -88.5l76 -121q11 -17 7.5 -23t-23.5 -6h-9q-33 0 -49 29l-69 121q-34 57 -60 57q-23 0 -57 -57l-70 -121q-16 -29 -49 -29h-8q-20 0 -23.5 6z" />
<glyph unicode="&#xd5;" d="M125 512v307q0 276 106 400q108 129 385 129t385 -129q107 -125 107 -400v-307q0 -271 -109 -401q-109 -127 -383 -127q-276 0 -385 127q-106 127 -106 401zM201 512q0 -238 84 -348q86 -109 331 -109q247 0 330 109q86 109 86 348v307q0 239 -86 348q-83 109 -330 109 q-245 0 -331 -109q-84 -110 -84 -348v-307zM328 1497q12 162 141 162q63 0 149 -74q89 -74 130 -74q45 5 59 30t16 75q3 22 27 22h8q17 0 23 -5t4 -17q-6 -82 -38 -122t-104 -40q-62 0 -151 74q-86 74 -127 74q-45 -5 -59.5 -30.5t-16.5 -74.5q-3 -22 -27 -22h-8 q-17 0 -22.5 5t-3.5 17z" />
<glyph unicode="&#xd6;" d="M125 512v307q0 276 106 400q108 129 385 129t385 -129q107 -125 107 -400v-307q0 -271 -109 -401q-109 -127 -383 -127q-276 0 -385 127q-106 127 -106 401zM201 512q0 -238 84 -348q86 -109 331 -109q247 0 330 109q86 109 86 348v307q0 239 -86 348q-83 109 -330 109 q-245 0 -331 -109q-84 -110 -84 -348v-307zM379 1554q0 26 17.5 41t39 15t39 -15t17.5 -41q0 -34 -28 -48t-56.5 0t-28.5 48zM721 1554q0 26 17.5 41t39 15t39 -15t17.5 -41q0 -34 -28 -48t-56.5 0t-28.5 48z" />
<glyph unicode="&#xd7;" horiz-adv-x="1036" d="M166 299q-20 21 0 41l326 326l-326 325q-20 21 0 41l6 6q20 20 41 0l326 -325l325 325q20 20 41 0l6 -6q21 -20 0 -41l-325 -325l325 -326q21 -20 0 -41l-6 -6q-21 -21 -41 0l-325 325l-326 -325q-21 -21 -41 0z" />
<glyph unicode="&#xd8;" d="M125 512v307q0 276 106 400q108 129 385 129q200 0 316 -72l37 65q16 23 37 11l10 -6q23 -16 8 -37l-41 -72q125 -119 125 -418v-307q0 -271 -109 -401q-109 -127 -383 -127q-205 0 -317 69l-37 -63q-13 -23 -35 -10l-10 6q-22 16 -10 37l41 71q-123 117 -123 418z M201 512q0 -252 86 -352l608 1052q-94 64 -279 64q-245 0 -331 -109q-84 -110 -84 -348v-307zM336 119q94 -64 280 -64q247 0 330 109q86 109 86 348v307q0 256 -88 350z" />
<glyph unicode="&#xd9;" horiz-adv-x="1241" d="M145 393v905q0 20 6.5 26.5t26.5 6.5h10q20 0 26.5 -6.5t6.5 -26.5v-905q0 -182 95 -260t305 -78t304.5 78t94.5 260v905q0 20 6.5 26.5t26.5 6.5h10q20 0 26.5 -6.5t6.5 -26.5v-905q0 -213 -118 -311t-357 -98t-357.5 98t-118.5 311zM442 1669q-21 27 15 27h10 q32 0 47 -27l131 -225q15 -27 -16 -27h-8q-33 0 -48 27z" />
<glyph unicode="&#xda;" horiz-adv-x="1241" d="M145 393v905q0 20 6.5 26.5t26.5 6.5h10q20 0 26.5 -6.5t6.5 -26.5v-905q0 -182 95 -260t305 -78t304.5 78t94.5 260v905q0 20 6.5 26.5t26.5 6.5h10q20 0 26.5 -6.5t6.5 -26.5v-905q0 -213 -118 -311t-357 -98t-357.5 98t-118.5 311zM567 1444l131 225q15 27 47 27h11 q35 0 14 -27l-131 -225q-15 -27 -47 -27h-8q-32 0 -17 27z" />
<glyph unicode="&#xdb;" horiz-adv-x="1241" d="M145 393v905q0 20 6.5 26.5t26.5 6.5h10q20 0 26.5 -6.5t6.5 -26.5v-905q0 -182 95 -260t305 -78t304.5 78t94.5 260v905q0 20 6.5 26.5t26.5 6.5h10q20 0 26.5 -6.5t6.5 -26.5v-905q0 -213 -118 -311t-357 -98t-357.5 98t-118.5 311zM398.5 1433q-3.5 6 7.5 23l73 121 q39 68 63 89.5t64 21.5q38 0 63 -22.5t64 -88.5l76 -121q11 -17 7.5 -23t-23.5 -6h-9q-33 0 -49 29l-69 121q-34 57 -60 57q-23 0 -57 -57l-70 -121q-16 -29 -49 -29h-8q-20 0 -23.5 6z" />
<glyph unicode="&#xdc;" horiz-adv-x="1241" d="M145 393v905q0 20 6.5 26.5t26.5 6.5h10q20 0 26.5 -6.5t6.5 -26.5v-905q0 -182 95 -260t305 -78t304.5 78t94.5 260v905q0 20 6.5 26.5t26.5 6.5h10q20 0 26.5 -6.5t6.5 -26.5v-905q0 -213 -118 -311t-357 -98t-357.5 98t-118.5 311zM381 1554q0 26 17.5 41t39 15 t39 -15t17.5 -41q0 -34 -28 -48t-56.5 0t-28.5 48zM723 1554q0 26 17.5 41t39 15t39 -15t17.5 -41q0 -34 -28 -48t-56.5 0t-28.5 48z" />
<glyph unicode="&#xdd;" horiz-adv-x="1163" d="M45.5 1324.5q3.5 6.5 26.5 6.5h10q38 0 55 -33l289 -530q40 -75 70 -102q31 -25 88 -25q54 0 84 25.5t73 101.5l289 530q17 33 55 33h11q23 0 26 -6.5t-8 -26.5l-266 -489q-74 -136 -117 -182q-39 -45 -108 -54v-540q0 -20 -6.5 -26.5t-26.5 -6.5h-10q-20 0 -26.5 6.5 t-6.5 26.5v540q-71 9 -113 54q-42 49 -115 182l-266 489q-11 20 -7.5 26.5zM563 1444l131 225q15 27 47 27h11q35 0 14 -27l-131 -225q-15 -27 -47 -27h-8q-32 0 -17 27z" />
<glyph unicode="&#xde;" horiz-adv-x="1110" d="M166 33v1204q0 20 6.5 26.5t26.5 6.5h10q20 0 26.5 -6.5t6.5 -26.5v-217h362q252 0 346 -94q97 -94 97 -291q0 -200 -101 -292.5t-342 -92.5h-362v-217q0 -20 -6.5 -26.5t-26.5 -6.5h-10q-20 0 -26.5 6.5t-6.5 26.5zM242 322h362q214 0 291 71q76 73 76 242 q0 164 -78 239q-77 74 -289 74h-362v-626z" />
<glyph unicode="&#xdf;" horiz-adv-x="1007" d="M125 33v899q0 416 350 416q160 0 241 -77t81 -202q0 -56 -18 -101.5t-45 -73t-59 -54t-59 -46t-45 -47.5t-18 -61q0 -34 19.5 -58.5t50 -41t68 -32.5t75 -38.5t68 -52.5t50 -81t19.5 -118q0 -280 -344 -280q-92 0 -147 14q-21 5 -28 11.5t-7 23.5v22q0 32 31 23 q64 -23 139 -23q148 0 214 47.5t66 151.5q0 64 -23 109.5t-61 72.5t-77.5 46t-83.5 42.5t-68 50.5q-35 43 -35 109t37 115q41 50 84 75q50 30 85.5 83t35.5 120q0 92 -61 145.5t-187 53.5q-140 0 -206 -78.5t-66 -257.5v-907q0 -20 -6.5 -26.5t-26.5 -6.5h-10 q-20 0 -26.5 6.5t-6.5 26.5z" />
<glyph unicode="&#xe0;" horiz-adv-x="966" d="M94 276q0 153 99.5 220t320.5 67h266v156q0 122 -75.5 175.5t-231.5 53.5q-159 0 -262 -33q-17 -4 -22 0t-5 21v16q0 31 31 37q108 27 256 27q381 0 381 -297v-416q0 -171 -99 -245t-317 -74q-138 0 -239 67q-103 71 -103 225zM166 274q0 -113 73 -168t197 -55 q188 0 266 54.5t78 197.5v197h-260q-189 0 -271.5 -50.5t-82.5 -175.5zM358 1350q-20 26 15 26h10q33 0 47 -26l131 -226q8 -14 4.5 -20t-20.5 -6h-8q-34 0 -48 26z" />
<glyph unicode="&#xe1;" horiz-adv-x="966" d="M94 276q0 153 99.5 220t320.5 67h266v156q0 122 -75.5 175.5t-231.5 53.5q-159 0 -262 -33q-17 -4 -22 0t-5 21v16q0 31 31 37q108 27 256 27q381 0 381 -297v-416q0 -171 -99 -245t-317 -74q-138 0 -239 67q-103 71 -103 225zM166 274q0 -113 73 -168t197 -55 q188 0 266 54.5t78 197.5v197h-260q-189 0 -271.5 -50.5t-82.5 -175.5zM397 1124l131 226q14 26 47 26h11q34 0 14 -26l-131 -226q-14 -26 -47 -26h-8q-31 0 -17 26z" />
<glyph unicode="&#xe2;" horiz-adv-x="966" d="M94 276q0 153 99.5 220t320.5 67h266v156q0 122 -75.5 175.5t-231.5 53.5q-159 0 -262 -33q-17 -4 -22 0t-5 21v16q0 31 31 37q108 27 256 27q381 0 381 -297v-416q0 -171 -99 -245t-317 -74q-138 0 -239 67q-103 71 -103 225zM166 274q0 -113 73 -168t197 -55 q188 0 266 54.5t78 197.5v197h-260q-189 0 -271.5 -50.5t-82.5 -175.5zM269.5 1112q-3.5 6 6.5 23l74 120q39 68 63 89.5t64 21.5q38 0 63 -22.5t64 -88.5l76 -120q11 -17 7.5 -23t-23.5 -6h-9q-33 0 -49 29l-69 120q-34 58 -60 58q-23 0 -57 -58l-70 -120q-16 -29 -49 -29 h-8q-20 0 -23.5 6z" />
<glyph unicode="&#xe3;" horiz-adv-x="966" d="M94 276q0 153 99.5 220t320.5 67h266v156q0 122 -75.5 175.5t-231.5 53.5q-159 0 -262 -33q-17 -4 -22 0t-5 21v16q0 31 31 37q108 27 256 27q381 0 381 -297v-416q0 -171 -99 -245t-317 -74q-138 0 -239 67q-103 71 -103 225zM166 274q0 -113 73 -168t197 -55 q188 0 266 54.5t78 197.5v197h-260q-189 0 -271.5 -50.5t-82.5 -175.5zM199 1178q12 161 141 161q64 0 149 -73q89 -74 129 -74q32 4 48.5 19t21.5 33.5t6 51.5q3 23 27 23h8q17 0 23 -5.5t4 -17.5q-6 -82 -38 -121.5t-104 -39.5q-63 0 -151 73q-86 74 -127 74 q-45 -5 -59.5 -30t-16.5 -74q-3 -23 -27 -23h-8q-17 0 -22.5 5.5t-3.5 17.5z" />
<glyph unicode="&#xe4;" horiz-adv-x="966" d="M94 276q0 153 99.5 220t320.5 67h266v156q0 122 -75.5 175.5t-231.5 53.5q-159 0 -262 -33q-17 -4 -22 0t-5 21v16q0 31 31 37q108 27 256 27q381 0 381 -297v-416q0 -171 -99 -245t-317 -74q-138 0 -239 67q-103 71 -103 225zM166 274q0 -113 73 -168t197 -55 q188 0 266 54.5t78 197.5v197h-260q-189 0 -271.5 -50.5t-82.5 -175.5zM242 1235q0 35 28 49.5t56 0t28 -49.5q0 -34 -28 -48t-56 0t-28 48zM584 1235q0 35 28 49.5t56 0t28 -49.5q0 -34 -28 -48t-56 0t-28 48z" />
<glyph unicode="&#xe5;" horiz-adv-x="966" d="M94 276q0 153 99.5 220t320.5 67h266v156q0 122 -75.5 175.5t-231.5 53.5q-159 0 -262 -33q-17 -4 -22 0t-5 21v16q0 31 31 37q108 27 256 27q381 0 381 -297v-416q0 -171 -99 -245t-317 -74q-138 0 -239 67q-103 71 -103 225zM166 274q0 -113 73 -168t197 -55 q188 0 266 54.5t78 197.5v197h-260q-189 0 -271.5 -50.5t-82.5 -175.5zM301 1237q0 74 44.5 119t119.5 45q79 0 123.5 -44.5t44.5 -119.5q0 -73 -45 -118.5t-123 -45.5q-74 0 -119 45.5t-45 118.5zM358 1237q0 -45 29 -77t78 -32q52 0 81 32t29 77q0 51 -28 81t-82 30 q-50 0 -78.5 -30.5t-28.5 -80.5z" />
<glyph unicode="&#xe6;" horiz-adv-x="1683" d="M94 276q0 153 99.5 220t320.5 67h266v156q0 122 -75.5 175.5t-231.5 53.5q-170 0 -260 -33q-29 -10 -29 23v16q0 29 29 35q111 27 258 27q329 0 350 -225h8q24 106 114 165.5t239 59.5q191 0 294 -97.5t103 -287.5q0 -98 -8 -129q-5 -21 -11 -27t-24 -6h-684v-82 q0 -183 82 -259.5t272 -76.5q187 0 312 51q17 4 21.5 0.5t4.5 -22.5v-10q0 -17 -4.5 -23t-21.5 -12q-134 -51 -308 -51q-338 0 -387 231h-8q-12 -122 -104.5 -176.5t-274.5 -54.5q-138 0 -239 67q-103 71 -103 225zM166 274q0 -113 73 -168t197 -55q188 0 266 54.5t78 197.5 v197h-260q-189 0 -271.5 -50.5t-82.5 -175.5zM852 537h659v94q0 317 -329 317q-330 0 -330 -317v-94z" />
<glyph unicode="&#xe7;" horiz-adv-x="878" d="M115 395v209q0 204 104 308t330 104q130 0 209 -39q30 -15 30 -43v-12q0 -27 -30 -15q-96 41 -207 41q-200 0 -282.5 -84.5t-82.5 -259.5v-209q0 -189 85.5 -266.5t287.5 -77.5q135 0 223 39q29 13 29 -16v-13q0 -29 -31 -41q-90 -33 -223 -36l-20 -78q200 30 200 -129 q0 -81 -44.5 -117.5t-139.5 -36.5q-53 0 -90 12q-25 9 -25 29v8q0 30 25 21q37 -12 88 -12q70 0 97.5 20.5t27.5 75.5q0 47 -22 63.5t-85 16.5q-34 0 -69 -7q-20 -4 -26.5 3.5t-0.5 27.5l27 105q-199 11 -292 107.5t-93 301.5z" />
<glyph unicode="&#xe8;" horiz-adv-x="1017" d="M115 397v209q0 410 401 410q191 0 294 -97.5t103 -287.5q0 -95 -12 -162h-715v-82q0 -183 82 -259.5t273 -76.5q189 0 311 51q17 6 22 2.5t5 -20.5v-10q0 -30 -27 -39q-137 -51 -307 -51q-223 0 -326.5 97t-103.5 316zM186 537h660v94q0 317 -330 317t-330 -317v-94z M389 1350q-20 26 14 26h11q33 0 47 -26l131 -226q14 -26 -17 -26h-8q-33 0 -47 26z" />
<glyph unicode="&#xe9;" horiz-adv-x="1017" d="M115 397v209q0 410 401 410q191 0 294 -97.5t103 -287.5q0 -95 -12 -162h-715v-82q0 -183 82 -259.5t273 -76.5q189 0 311 51q17 6 22 2.5t5 -20.5v-10q0 -30 -27 -39q-137 -51 -307 -51q-223 0 -326.5 97t-103.5 316zM186 537h660v94q0 317 -330 317t-330 -317v-94z M434 1124l131 226q14 26 47 26h11q34 0 14 -26l-131 -226q-14 -26 -47 -26h-8q-31 0 -17 26z" />
<glyph unicode="&#xea;" horiz-adv-x="1017" d="M115 397v209q0 410 401 410q191 0 294 -97.5t103 -287.5q0 -95 -12 -162h-715v-82q0 -183 82 -259.5t273 -76.5q189 0 311 51q17 6 22 2.5t5 -20.5v-10q0 -30 -27 -39q-137 -51 -307 -51q-223 0 -326.5 97t-103.5 316zM186 537h660v94q0 317 -330 317t-330 -317v-94z M306.5 1112q-3.5 6 6.5 23l74 120q39 68 63 89.5t64 21.5q38 0 63 -22.5t64 -88.5l76 -120q10 -17 6.5 -23t-23.5 -6h-8q-33 0 -49 29l-70 120q-34 58 -59 58q-23 0 -57 -58l-70 -120q-16 -29 -49 -29h-8q-20 0 -23.5 6z" />
<glyph unicode="&#xeb;" horiz-adv-x="1017" d="M115 397v209q0 410 401 410q191 0 294 -97.5t103 -287.5q0 -95 -12 -162h-715v-82q0 -183 82 -259.5t273 -76.5q189 0 311 51q17 6 22 2.5t5 -20.5v-10q0 -30 -27 -39q-137 -51 -307 -51q-223 0 -326.5 97t-103.5 316zM186 537h660v94q0 317 -330 317t-330 -317v-94z M287 1235q0 35 28 49.5t56 0t28 -49.5q0 -34 -28 -48t-56 0t-28 48zM629 1235q0 35 28 49.5t56 0t28 -49.5q0 -34 -28 -48t-56 0t-28 48z" />
<glyph unicode="&#xec;" horiz-adv-x="403" d="M20 1350q-20 26 15 26h10q33 0 47 -26l131 -226q8 -14 4.5 -20t-20.5 -6h-8q-33 0 -47 26zM168 31v938q0 19 6 24.5t25 5.5h10q19 0 25 -5.5t6 -24.5v-938q0 -19 -6 -25t-25 -6h-10q-19 0 -25 6t-6 25z" />
<glyph unicode="&#xed;" horiz-adv-x="403" d="M174 31v938q0 19 6 24.5t25 5.5h10q19 0 25 -5.5t6 -24.5v-938q0 -19 -6 -25t-25 -6h-10q-19 0 -25 6t-6 25zM182 1124l131 226q14 26 47 26h11q34 0 14 -26l-131 -226q-14 -26 -47 -26h-8q-31 0 -17 26z" />
<glyph unicode="&#xee;" horiz-adv-x="403" d="M-3.5 1112q-3.5 6 7.5 23l74 120q39 68 63 89.5t64 21.5q38 0 63 -22.5t64 -88.5l76 -120q10 -17 6.5 -23t-23.5 -6h-8q-33 0 -49 29l-70 120q-34 58 -59 58q-24 0 -58 -58l-69 -120q-16 -29 -49 -29h-9q-20 0 -23.5 6zM170 31v938q0 19 6 24.5t25 5.5h10q19 0 25 -5.5 t6 -24.5v-938q0 -19 -6 -25t-25 -6h-10q-19 0 -25 6t-6 25z" />
<glyph unicode="&#xef;" horiz-adv-x="403" d="M-27 1235q0 26 17.5 41t39 15t39 -15t17.5 -41q0 -34 -28 -48t-56.5 0t-28.5 48zM166 31v938q0 19 6 24.5t25 5.5h10q19 0 25 -5.5t6 -24.5v-938q0 -19 -6 -25t-25 -6h-10q-19 0 -25 6t-6 25zM315 1235q0 26 17.5 41t39 15t39 -15t17.5 -41q0 -34 -28 -48t-56.5 0 t-28.5 48z" />
<glyph unicode="&#xf0;" horiz-adv-x="1024" d="M84 397q0 199 107 300.5t307 101.5q148 0 325 -54q-5 196 -55.5 317.5t-169.5 201.5l-195 -195q-15 -15 -34 0l-9 8q-16 17 0 33l187 186q-106 59 -289 80q-29 3 -20 37l4 14q9 27 39 21q213 -38 319 -98l145 145q17 17 33 0l8 -8q19 -16 2 -33l-137 -137 q141 -102 194.5 -249t53.5 -384q0 -211 -16 -330t-62 -207q-43 -89 -124.5 -126t-219.5 -37q-192 0 -292.5 104t-100.5 309zM160 395q0 -340 313 -340q178 0 256 84q41 41 59 121q35 137 35 414q-161 53 -327 53q-336 0 -336 -332z" />
<glyph unicode="&#xf1;" horiz-adv-x="1069" d="M135 31v624q0 178 95 269.5t305 91.5t304.5 -91.5t94.5 -269.5v-624q0 -19 -6 -25t-25 -6h-10q-19 0 -25 6t-6 25v624q0 152 -74.5 222.5t-252.5 70.5q-179 0 -253.5 -70.5t-74.5 -222.5v-624q0 -19 -6 -25t-25 -6h-10q-19 0 -25 6t-6 25zM258 1178q12 161 141 161 q65 0 150 -73q89 -74 129 -74q32 4 48.5 19t21.5 33.5t6 51.5q3 23 26 23h8q17 0 23 -5.5t4 -17.5q-6 -82 -37.5 -121.5t-103.5 -39.5q-64 0 -152 73q-86 74 -127 74q-45 -5 -59.5 -30t-16.5 -74q-3 -23 -26 -23h-8q-17 0 -23 5.5t-4 17.5z" />
<glyph unicode="&#xf2;" horiz-adv-x="1069" d="M115 395v209q0 205 99 308.5t321 103.5t320.5 -103.5t98.5 -308.5v-209q0 -205 -98.5 -308t-320.5 -103t-321 103t-99 308zM186 395q0 -183 78 -263.5t271 -80.5q192 0 270 80.5t78 263.5v209q0 183 -78 263.5t-270 80.5q-193 0 -271 -80.5t-78 -263.5v-209zM393 1350 q-20 26 15 26h10q33 0 47 -26l131 -226q8 -14 4.5 -20t-20.5 -6h-9q-33 0 -47 26z" />
<glyph unicode="&#xf3;" horiz-adv-x="1069" d="M115 395v209q0 205 99 308.5t321 103.5t320.5 -103.5t98.5 -308.5v-209q0 -205 -98.5 -308t-320.5 -103t-321 103t-99 308zM186 395q0 -183 78 -263.5t271 -80.5q192 0 270 80.5t78 263.5v209q0 183 -78 263.5t-270 80.5q-193 0 -271 -80.5t-78 -263.5v-209zM475 1124 l131 226q14 26 47 26h11q34 0 14 -26l-131 -226q-14 -26 -47 -26h-8q-31 0 -17 26z" />
<glyph unicode="&#xf4;" horiz-adv-x="1069" d="M115 395v209q0 205 99 308.5t321 103.5t320.5 -103.5t98.5 -308.5v-209q0 -205 -98.5 -308t-320.5 -103t-321 103t-99 308zM186 395q0 -183 78 -263.5t271 -80.5q192 0 270 80.5t78 263.5v209q0 183 -78 263.5t-270 80.5q-193 0 -271 -80.5t-78 -263.5v-209zM326.5 1112 q-3.5 6 7.5 23l74 120q39 68 63 89.5t64 21.5q38 0 63 -22.5t64 -88.5l75 -120q11 -17 7.5 -23t-23.5 -6h-8q-33 0 -49 29l-70 120q-34 58 -59 58q-24 0 -58 -58l-69 -120q-16 -29 -50 -29h-8q-20 0 -23.5 6z" />
<glyph unicode="&#xf5;" horiz-adv-x="1069" d="M115 395v209q0 205 99 308.5t321 103.5t320.5 -103.5t98.5 -308.5v-209q0 -205 -98.5 -308t-320.5 -103t-321 103t-99 308zM186 395q0 -183 78 -263.5t271 -80.5q192 0 270 80.5t78 263.5v209q0 183 -78 263.5t-270 80.5q-193 0 -271 -80.5t-78 -263.5v-209zM258 1178 q12 161 141 161q65 0 150 -73q89 -74 129 -74q32 4 48.5 19t21.5 33.5t6 51.5q3 23 26 23h8q17 0 23 -5.5t4 -17.5q-6 -82 -37.5 -121.5t-103.5 -39.5q-64 0 -152 73q-86 74 -127 74q-45 -5 -59.5 -30t-16.5 -74q-3 -23 -26 -23h-8q-17 0 -23 5.5t-4 17.5z" />
<glyph unicode="&#xf6;" horiz-adv-x="1069" d="M115 395v209q0 205 99 308.5t321 103.5t320.5 -103.5t98.5 -308.5v-209q0 -205 -98.5 -308t-320.5 -103t-321 103t-99 308zM186 395q0 -183 78 -263.5t271 -80.5q192 0 270 80.5t78 263.5v209q0 183 -78 263.5t-270 80.5q-193 0 -271 -80.5t-78 -263.5v-209zM307 1235 q0 26 17.5 41t39 15t39 -15t17.5 -41q0 -34 -28 -48t-56.5 0t-28.5 48zM649 1235q0 26 17.5 41t39 15t39 -15t17.5 -41q0 -34 -28 -48t-56.5 0t-28.5 48z" />
<glyph unicode="&#xf7;" horiz-adv-x="1126" d="M125 662v8q0 26 27 26h823q26 0 26 -26v-8q0 -27 -26 -27h-823q-27 0 -27 27zM492 303q0 31 20 51t51 20t51 -20t20 -51t-20 -51t-51 -20t-51 20t-20 51zM492 1028q0 31 20 51t51 20t51 -20t20 -51t-20 -51t-51 -20t-51 20t-20 51z" />
<glyph unicode="&#xf8;" horiz-adv-x="1069" d="M115 395v209q0 205 99 308.5t321 103.5q146 0 237 -45l31 53q13 23 35 8l8 -4q23 -13 8 -35l-31 -53q131 -98 131 -336v-209q0 -205 -98.5 -308t-320.5 -103q-145 0 -238 43l-29 -52q-16 -23 -37 -8l-8 4q-23 13 -10 35l31 53q-129 95 -129 336zM186 395q0 -198 93 -276 l458 794q-78 35 -202 35q-193 0 -271 -80.5t-78 -263.5v-209zM330 86q72 -35 205 -35q192 0 270 80.5t78 263.5v209q0 200 -92 277z" />
<glyph unicode="&#xf9;" horiz-adv-x="1028" d="M115 344v625q0 19 5.5 24.5t24.5 5.5h11q19 0 24.5 -5.5t5.5 -24.5v-625q0 -152 74.5 -222.5t253.5 -70.5t253.5 70.5t74.5 222.5v625q0 19 5.5 24.5t24.5 5.5h11q19 0 24.5 -5.5t5.5 -24.5v-625q0 -178 -94.5 -269t-304.5 -91t-304.5 91t-94.5 269zM389 1350 q-20 26 14 26h11q33 0 47 -26l131 -226q14 -26 -17 -26h-8q-33 0 -47 26z" />
<glyph unicode="&#xfa;" horiz-adv-x="1028" d="M115 344v625q0 19 5.5 24.5t24.5 5.5h11q19 0 24.5 -5.5t5.5 -24.5v-625q0 -152 74.5 -222.5t253.5 -70.5t253.5 70.5t74.5 222.5v625q0 19 5.5 24.5t24.5 5.5h11q19 0 24.5 -5.5t5.5 -24.5v-625q0 -178 -94.5 -269t-304.5 -91t-304.5 91t-94.5 269zM466.5 1104 q-3.5 6 4.5 20l131 226q14 26 47 26h10q35 0 15 -26l-131 -226q-14 -26 -47 -26h-9q-17 0 -20.5 6z" />
<glyph unicode="&#xfb;" horiz-adv-x="1028" d="M115 344v625q0 19 5.5 24.5t24.5 5.5h11q19 0 24.5 -5.5t5.5 -24.5v-625q0 -152 74.5 -222.5t253.5 -70.5t253.5 70.5t74.5 222.5v625q0 19 5.5 24.5t24.5 5.5h11q19 0 24.5 -5.5t5.5 -24.5v-625q0 -178 -94.5 -269t-304.5 -91t-304.5 91t-94.5 269zM312.5 1112 q-3.5 6 6.5 23l74 120q39 68 63 89.5t64 21.5q38 0 63 -22.5t64 -88.5l76 -120q11 -17 7.5 -23t-23.5 -6h-9q-33 0 -49 29l-69 120q-34 58 -60 58q-23 0 -57 -58l-70 -120q-16 -29 -49 -29h-8q-20 0 -23.5 6z" />
<glyph unicode="&#xfc;" horiz-adv-x="1028" d="M115 344v625q0 19 5.5 24.5t24.5 5.5h11q19 0 24.5 -5.5t5.5 -24.5v-625q0 -152 74.5 -222.5t253.5 -70.5t253.5 70.5t74.5 222.5v625q0 19 5.5 24.5t24.5 5.5h11q19 0 24.5 -5.5t5.5 -24.5v-625q0 -178 -94.5 -269t-304.5 -91t-304.5 91t-94.5 269zM293 1235 q0 26 17.5 41t39 15t39 -15t17.5 -41q0 -34 -28 -48t-56.5 0t-28.5 48zM635 1235q0 26 17.5 41t39 15t39 -15t17.5 -41q0 -34 -28 -48t-56.5 0t-28.5 48z" />
<glyph unicode="&#xfd;" horiz-adv-x="1011" d="M75 993.5q4 5.5 23 5.5h11q29 0 38 -28l240 -776q25 -78 54 -105t89 -27q61 0 93 29t51 103l198 774q9 30 39 30h11q19 0 23 -5.5t-1 -24.5l-256 -969q-53 -202 -142.5 -306t-240.5 -104q-29 0 -35 29l-2 10q-4 19 0 24t21 5q131 0 202.5 79t124.5 263l11 35 q-47 -35 -117 -35q-75 0 -119.5 50.5t-87.5 185.5l-227 735q-5 17 -1 22.5zM479 1124l131 226q14 26 47 26h11q34 0 14 -26l-131 -226q-14 -26 -47 -26h-8q-31 0 -17 26z" />
<glyph unicode="&#xfe;" horiz-adv-x="1110" d="M156 -379v1720q0 19 5.5 25t24.5 6h11q19 0 24.5 -6t5.5 -25v-497q82 172 348 172q222 0 321 -103.5t99 -308.5v-209q0 -205 -99 -308t-321 -103q-272 0 -348 174v-537q0 -19 -5.5 -25t-24.5 -6h-11q-19 0 -24.5 6t-5.5 25zM227 395q0 -183 78 -263.5t270 -80.5 q193 0 271 80.5t78 263.5v209q0 183 -78 263.5t-271 80.5q-188 0 -268 -78.5t-80 -248.5v-226z" />
<glyph unicode="&#xff;" horiz-adv-x="1011" d="M75 993.5q4 5.5 23 5.5h11q29 0 38 -28l240 -776q25 -78 54 -105t89 -27q61 0 93 29t51 103l198 774q9 30 39 30h11q19 0 23 -5.5t-1 -24.5l-256 -969q-53 -202 -142.5 -306t-240.5 -104q-29 0 -35 29l-2 10q-4 19 0 24t21 5q131 0 202.5 79t124.5 263l11 35 q-47 -35 -117 -35q-75 0 -119.5 50.5t-87.5 185.5l-227 735q-5 17 -1 22.5zM309 1235q0 26 17.5 41t39 15t39 -15t17.5 -41q0 -34 -28 -48t-56.5 0t-28.5 48zM651 1235q0 26 17.5 41t39 15t39 -15t17.5 -41q0 -34 -28 -48t-56.5 0t-28.5 48z" />
<glyph unicode="&#x152;" horiz-adv-x="1912" d="M125 512v307q0 276 106 400q108 129 385 129q360 0 416 -222q0 106 49.5 155.5t155.5 49.5h563q19 0 25 -6t6 -25v-10q0 -19 -6 -24.5t-25 -5.5h-569q-63 0 -93 -30t-30 -93v-400h610q19 0 25 -5.5t6 -24.5v-11q0 -19 -6 -24.5t-25 -5.5h-610v-471q0 -63 30 -93t93 -30 h569q19 0 25 -6t6 -25v-10q0 -19 -6 -25t-25 -6h-563q-106 0 -155.5 49.5t-49.5 155.5q-56 -221 -416 -221q-276 0 -385 127q-106 127 -106 401zM201 512q0 -238 84 -348q86 -109 331 -109q247 0 330 109q86 109 86 348v307q0 239 -86 348q-83 109 -330 109 q-245 0 -331 -109q-84 -110 -84 -348v-307z" />
<glyph unicode="&#x153;" horiz-adv-x="1785" d="M115 395v209q0 205 99 308.5t321 103.5q342 0 385 -260q19 123 112 191.5t252 68.5q191 0 294 -97.5t103 -287.5q0 -93 -8 -129q-5 -21 -11 -27t-24 -6h-684v-82q0 -183 82 -259.5t273 -76.5q189 0 311 51q17 5 22 1t5 -23v-10q0 -17 -4.5 -23t-22.5 -12 q-134 -51 -307 -51q-347 0 -393 258q-44 -258 -385 -258q-222 0 -321 103t-99 308zM186 395q0 -183 78 -263.5t271 -80.5q192 0 270 80.5t78 263.5v209q0 183 -78 263.5t-270 80.5q-193 0 -271 -80.5t-78 -263.5v-209zM954 537h660v94q0 317 -330 317t-330 -317v-94z" />
<glyph unicode="&#x178;" horiz-adv-x="1163" d="M45.5 1324.5q3.5 6.5 26.5 6.5h10q38 0 55 -33l289 -530q40 -75 70 -102q31 -25 88 -25q54 0 84 25.5t73 101.5l289 530q17 33 55 33h11q23 0 26 -6.5t-8 -26.5l-266 -489q-74 -136 -117 -182q-39 -45 -108 -54v-540q0 -20 -6.5 -26.5t-26.5 -6.5h-10q-20 0 -26.5 6.5 t-6.5 26.5v540q-71 9 -113 54q-42 49 -115 182l-266 489q-11 20 -7.5 26.5zM356 1554q0 26 17.5 41t39 15t39 -15t17.5 -41q0 -34 -28.5 -48t-56.5 0t-28 48zM698 1554q0 26 17.5 41t39 15t39 -15t17.5 -41q0 -34 -28.5 -48t-56.5 0t-28 48z" />
<glyph unicode="&#x2c6;" horiz-adv-x="645" d="M115.5 1542q-3.5 6 7.5 23l74 121q39 68 63 89t64 21q38 0 63.5 -22t63.5 -88l75 -121q11 -17 7.5 -23t-23.5 -6h-8q-33 0 -49 29l-70 121q-34 57 -59 57q-24 0 -58 -57l-69 -121q-16 -29 -50 -29h-8q-20 0 -23.5 6z" />
<glyph unicode="&#x2dc;" horiz-adv-x="888" d="M168 1620q12 162 141 162q64 0 150 -74q89 -74 129 -74q45 6 59.5 30.5t16.5 74.5q3 22 26 22h8q17 0 23 -5t4 -17q-6 -83 -37.5 -122.5t-103.5 -39.5q-63 0 -152 74q-85 73 -127 73q-45 -5 -59.5 -30t-16.5 -74q-3 -23 -26 -23h-8q-17 0 -23 5.5t-4 17.5z" />
<glyph unicode="&#x2000;" horiz-adv-x="907" />
<glyph unicode="&#x2001;" horiz-adv-x="1815" />
<glyph unicode="&#x2002;" horiz-adv-x="907" />
<glyph unicode="&#x2003;" horiz-adv-x="1815" />
<glyph unicode="&#x2004;" horiz-adv-x="605" />
<glyph unicode="&#x2005;" horiz-adv-x="453" />
<glyph unicode="&#x2006;" horiz-adv-x="302" />
<glyph unicode="&#x2007;" horiz-adv-x="302" />
<glyph unicode="&#x2008;" horiz-adv-x="226" />
<glyph unicode="&#x2009;" horiz-adv-x="363" />
<glyph unicode="&#x200a;" horiz-adv-x="100" />
<glyph unicode="&#x2010;" horiz-adv-x="700" d="M47 631v8q0 27 27 27h553q26 0 26 -27v-8q0 -27 -26 -27h-553q-27 0 -27 27z" />
<glyph unicode="&#x2011;" horiz-adv-x="700" d="M47 631v8q0 27 27 27h553q26 0 26 -27v-8q0 -27 -26 -27h-553q-27 0 -27 27z" />
<glyph unicode="&#x2012;" horiz-adv-x="700" d="M47 631v8q0 27 27 27h553q26 0 26 -27v-8q0 -27 -26 -27h-553q-27 0 -27 27z" />
<glyph unicode="&#x2013;" horiz-adv-x="782" d="M-18 631v8q0 27 26 27h766q27 0 27 -27v-8q0 -27 -27 -27h-766q-26 0 -26 27z" />
<glyph unicode="&#x2014;" horiz-adv-x="1601" d="M-18 631v8q0 27 26 27h1585q27 0 27 -27v-8q0 -27 -27 -27h-1585q-26 0 -26 27z" />
<glyph unicode="&#x2018;" horiz-adv-x="348" d="M102 1075q0 31 56 158q66 145 90 186q8 14 24 11q16 -6 13 -25q-13 -73 -35 -168q-28 -120 -41 -154q-21 -61 -62 -61q-20 0 -32.5 15t-12.5 38z" />
<glyph unicode="&#x2019;" horiz-adv-x="348" d="M66 1051q15 89 34 168q28 117 41 153q21 62 62 62q20 0 32.5 -15t12.5 -39q0 -31 -58 -159q-62 -141 -88 -185q-9 -16 -24 -10t-12 25z" />
<glyph unicode="&#x201a;" horiz-adv-x="348" d="M66 -248q15 89 34 168q28 120 41 154q21 61 62 61q20 0 32.5 -15t12.5 -38q0 -33 -58 -158q-59 -136 -88 -186q-9 -16 -24 -10t-12 24z" />
<glyph unicode="&#x201c;" horiz-adv-x="634" d="M102 1075q0 31 56 158q66 145 90 186q8 14 24 11q16 -6 13 -25q-13 -73 -35 -168q-28 -120 -41 -154q-21 -61 -62 -61q-20 0 -32.5 15t-12.5 38zM389 1075q0 33 55 158q62 137 91 186q8 14 24 11q15 -6 12 -25q-15 -89 -34 -168q-28 -120 -41 -154q-21 -61 -62 -61 q-20 0 -32.5 15t-12.5 38z" />
<glyph unicode="&#x201d;" horiz-adv-x="634" d="M66 1051q15 89 34 168q28 117 41 153q21 62 62 62q20 0 32.5 -15t12.5 -39q0 -31 -58 -159q-62 -141 -88 -185q-9 -16 -24 -10t-12 25zM352 1051q13 73 35 168q28 117 41 153q21 62 61 62q20 0 33 -15.5t13 -38.5q0 -31 -58 -159q-62 -141 -88 -185q-9 -16 -24 -10 q-16 6 -13 25z" />
<glyph unicode="&#x201e;" horiz-adv-x="614" d="M66 -248q15 89 34 168q28 120 41 154q21 61 62 61q20 0 32.5 -15t12.5 -38q0 -33 -58 -158q-59 -136 -88 -186q-9 -16 -24 -10t-12 24zM332 -248q13 73 35 168q28 120 41 154q21 61 61 61q20 0 32.5 -15t12.5 -38q0 -35 -57 -158q-59 -136 -88 -186q-10 -16 -25 -10 t-12 24z" />
<glyph unicode="&#x2022;" horiz-adv-x="438" d="M74 632.5q0 63.5 41 104.5t104.5 41t104.5 -41t41 -104.5t-41 -104.5t-104.5 -41t-104.5 41t-41 104.5z" />
<glyph unicode="&#x2026;" horiz-adv-x="1183" d="M111 63.5q0 31.5 20 51.5t51 20t51 -20t20 -51.5t-20 -51.5t-51 -20t-51 20t-20 51.5zM521 63.5q0 31.5 20 51.5t51 20t51 -20t20 -51.5t-20 -51.5t-51 -20t-51 20t-20 51.5zM930 63.5q0 31.5 20 51.5t51.5 20t51.5 -20t20 -51.5t-20 -51.5t-51.5 -20t-51.5 20t-20 51.5z " />
<glyph unicode="&#x202f;" horiz-adv-x="363" />
<glyph unicode="&#x2039;" horiz-adv-x="530" d="M68 512q0 39 67 121l211 252q23 26 57 26h9q21 0 23 -4.5t-11 -21.5l-248 -301q-43 -52 -43 -72t43 -72l248 -301q13 -17 11 -21.5t-23 -4.5h-9q-34 0 -57 26l-211 252q-67 82 -67 121z" />
<glyph unicode="&#x203a;" horiz-adv-x="530" d="M98 117.5q-2 4.5 11 21.5l247 301q43 52 43 72t-43 72l-247 301q-13 17 -11 21.5t23 4.5h8q34 0 57 -26l211 -252q68 -83 68 -121t-68 -121l-211 -252q-23 -26 -57 -26h-8q-21 0 -23 4.5z" />
<glyph unicode="&#x205f;" horiz-adv-x="453" />
<glyph unicode="&#x20ac;" horiz-adv-x="1081" d="M43 508v8q0 27 27 27h120v245h-120q-27 0 -27 27v8q0 27 27 27h123q9 281 124 387q117 111 330 111q172 0 279 -45q34 -12 24 -41l-2 -9q-8 -32 -37 -22q-122 45 -262 45q-178 0 -274 -90q-95 -89 -107 -336h553q17 0 21.5 -5t-0.5 -18l-4 -14q-9 -25 -33 -25h-539v-245 h477q27 0 21 -27l-2 -8q-6 -27 -33 -27h-461q9 -235 99 -331q89 -95 288 -95q177 0 303 66q33 17 33 -21v-16q0 -17 -4.5 -22.5t-25.5 -16.5q-122 -61 -283 -61q-113 0 -192.5 21t-145.5 71q-135 102 -147 405h-123q-27 0 -27 27z" />
<glyph unicode="&#x2122;" horiz-adv-x="1622" d="M43 1212v58h606v-58h-272v-692q0 -26 -27 -26h-8q-27 0 -27 26v692h-272zM819 520v699q0 51 41 51h8q44 0 62 -47l244 -633l233 633q18 47 61 47h9q41 0 41 -51v-699q0 -26 -27 -26h-8q-27 0 -27 26v666l-223 -602q-15 -47 -59 -47t-62 47l-231 602v-666q0 -26 -27 -26 h-8q-27 0 -27 26z" />
<glyph unicode="&#x25fc;" horiz-adv-x="1003" d="M0 0v1004h1004v-1004h-1004z" />
<glyph unicode="&#xfb01;" horiz-adv-x="1128" d="M29 954v9q0 21 22 24l142 12v201q0 262 305 262q90 0 161 -24q20 -7 24.5 -13t4.5 -24v-10q0 -30 -33 -21q-89 25 -159 25q-115 0 -173.5 -46.5t-58.5 -148.5v-201h400q17 0 22.5 -5.5t5.5 -22.5v-10q0 -17 -5.5 -23t-22.5 -6h-400v-901q0 -19 -6 -25t-25 -6h-10 q-19 0 -24.5 6t-5.5 25v901h-142q-13 0 -17.5 4t-4.5 18zM870 1321q0 26 17.5 41t39 15t39 -15t17.5 -41q0 -34 -28.5 -48t-56.5 0t-28 48zM891 31v938q0 19 6 24.5t25 5.5h10q19 0 25 -5.5t6 -24.5v-938q0 -19 -6 -25t-25 -6h-10q-19 0 -25 6t-6 25z" />
<glyph unicode="&#xfb02;" horiz-adv-x="1155" d="M29 954v9q0 21 22 24l142 12v201q0 262 305 262q90 0 161 -24q20 -7 24.5 -13t4.5 -24v-10q0 -30 -33 -21q-89 25 -159 25q-115 0 -173.5 -46.5t-58.5 -148.5v-201h400q17 0 22.5 -5.5t5.5 -22.5v-10q0 -17 -5.5 -23t-22.5 -6h-400v-901q0 -19 -6 -25t-25 -6h-10 q-19 0 -24.5 6t-5.5 25v901h-142q-13 0 -17.5 4t-4.5 18zM870 229v1174q0 19 6 25t25 6h10q19 0 25 -6t6 -25v-1174q0 -168 115 -168q29 0 37 2q32 6 32 -24v-10q0 -27 -32 -33q-8 -2 -35 -2q-89 0 -139 57.5t-50 177.5z" />
</font>
</defs>
</svg>
